<svg width="16" height="16" viewBox="0 0 16 16" fill="none" xmlns="http://www.w3.org/2000/svg">
<path d="M5.5 2.63333V3.8H10.5V2.63333C10.5 2.505 10.3875 2.4 10.25 2.4H5.75C5.6125 2.4 5.5 2.505 5.5 2.63333ZM4 3.8V2.63333C4 1.73208 4.78438 1 5.75 1H10.25C11.2156 1 12 1.73208 12 2.63333V3.8V4.73333V15H4V4.73333V3.8ZM2 3.8H3V15H2C0.896875 15 0 14.1629 0 13.1333V5.66667C0 4.63708 0.896875 3.8 2 3.8ZM14 15H13V3.8H14C15.1031 3.8 16 4.63708 16 5.66667V13.1333C16 14.1629 15.1031 15 14 15Z" fill="black"/>
</svg>
