<svg width="727" height="200" viewBox="0 0 727 200" fill="none" xmlns="http://www.w3.org/2000/svg">
<g clip-path="url(#clip0_2_2)">
<path d="M98.0381 156.777C97.8467 157.862 97.4001 158.628 96.6982 159.074C96.0602 159.585 95.4541 160.286 94.8799 161.18H94.4971C93.859 161.18 93.221 161.243 92.583 161.371C92.0088 161.499 91.4027 161.658 90.7646 161.85C90.4456 161.722 90.0628 161.626 89.6162 161.562C89.1696 161.499 88.8825 161.275 88.7549 160.893C88.2445 161.148 87.5426 161.275 86.6494 161.275C85.182 161.275 83.7783 160.861 82.4385 160.031C81.1624 159.202 79.8226 158.564 78.4189 158.117C78.0361 157.352 77.5576 156.65 76.9834 156.012C76.473 155.438 75.9307 154.863 75.3564 154.289C74.846 153.715 74.3356 153.109 73.8252 152.471C73.3148 151.833 72.9001 151.067 72.5811 150.174C72.4535 149.791 72.2939 149.568 72.1025 149.504C71.9111 149.44 71.624 149.44 71.2412 149.504C71.305 148.802 71.2093 148.196 70.9541 147.686C70.7627 147.175 70.2842 146.856 69.5186 146.729C69.5186 145.899 69.391 145.197 69.1357 144.623C68.8805 144.049 68.5615 143.538 68.1787 143.092C67.8597 142.709 67.4769 142.294 67.0303 141.848C66.6475 141.401 66.3285 140.859 66.0732 140.221C65.499 140.093 64.9248 139.997 64.3506 139.934C63.8402 139.934 63.266 139.934 62.6279 139.934C59.5654 139.934 56.5986 140.508 53.7275 141.656C53.4085 141.784 53.0576 141.943 52.6748 142.135C52.3558 142.326 52.0368 142.486 51.7178 142.613C51.5902 142.613 51.4626 142.613 51.335 142.613C51.2712 142.677 51.1755 142.709 51.0479 142.709C50.6012 142.709 50.1865 142.613 49.8037 142.422C49.4209 142.294 49.0062 142.23 48.5596 142.23C48.3682 142.23 48.1449 142.262 47.8896 142.326C47.6982 142.454 47.5068 142.549 47.3154 142.613C46.3584 142.932 45.4652 143.124 44.6357 143.188C42.0199 143.698 39.2445 144.081 36.3096 144.336C33.4385 144.591 30.7907 145.261 28.3662 146.346C27.8558 146.601 27.5368 146.984 27.4092 147.494C27.2816 148.068 27.2497 148.611 27.3135 149.121C26.6117 149.632 26.0693 150.301 25.6865 151.131C25.3675 151.96 25.0485 152.822 24.7295 153.715C24.4743 154.672 24.1872 155.597 23.8682 156.49C23.5492 157.383 23.1025 158.149 22.5283 158.787C22.7197 159.17 22.8154 159.585 22.8154 160.031C22.8154 160.988 22.4964 161.945 21.8584 162.902C21.2204 163.859 20.7419 164.785 20.4229 165.678C20.1038 166.571 19.8486 167.432 19.6572 168.262C19.4658 169.155 19.1787 169.952 18.7959 170.654C18.4131 171.356 17.9027 171.93 17.2646 172.377C16.5628 172.824 15.6058 173.047 14.3936 173.047C13.2451 173.047 12.2562 172.824 11.4268 172.377C10.5973 171.93 9.92741 171.356 9.41699 170.654C8.90658 169.952 8.49186 169.123 8.17285 168.166C7.85384 167.209 7.59863 166.252 7.40723 165.295C8.10905 163.891 8.77897 162.679 9.41699 161.658C10.055 160.637 10.5335 159.329 10.8525 157.734C12.001 156.905 12.8623 155.884 13.4365 154.672C13.9469 153.523 14.234 152.247 14.2979 150.844C14.9997 150.397 15.5101 149.791 15.8291 149.025C16.0843 148.324 16.2438 147.558 16.3076 146.729C14.7764 146.601 13.1813 146.473 11.5225 146.346C9.7998 146.218 8.20475 145.899 6.7373 145.389C6.7373 145.261 6.76921 145.133 6.83301 145.006C6.83301 144.878 6.83301 144.751 6.83301 144.623C6.83301 143.794 6.6416 143.028 6.25879 142.326C5.87598 141.688 5.68457 140.986 5.68457 140.221V139.455C6.19499 138.945 6.6735 138.402 7.12012 137.828C7.50293 137.318 7.91764 136.839 8.36426 136.393C8.81087 135.946 9.32129 135.563 9.89551 135.244C10.4697 134.989 11.2035 134.861 12.0967 134.861C13.3089 134.861 14.4893 134.925 15.6377 135.053C16.7861 135.244 17.9665 135.34 19.1787 135.34C20.0081 135.34 20.8695 135.244 21.7627 135.053C23.1663 132.182 24.4105 129.279 25.4951 126.344C26.5798 123.345 27.4092 120.314 27.9834 117.252C28.43 116.614 28.8447 115.88 29.2275 115.051C29.6104 114.158 29.8975 113.232 30.0889 112.275C30.3441 111.318 30.5036 110.393 30.5674 109.5C30.695 108.543 30.7588 107.682 30.7588 106.916C31.4606 106.087 31.9391 105.066 32.1943 103.854C32.5133 102.641 32.7686 101.397 32.96 100.121C33.1514 98.7812 33.3428 97.4733 33.5342 96.1973C33.7894 94.9212 34.236 93.8047 34.874 92.8477V91.9863C34.9378 91.0293 34.8421 90.168 34.5869 89.4023C34.9059 89.2747 35.0973 88.9876 35.1611 88.541C35.2249 88.0944 35.3525 87.7116 35.5439 87.3926C35.6077 84.4577 35.9268 81.5866 36.501 78.7793C37.0752 75.9082 37.5537 73.0371 37.9365 70.166V69.8789C37.9365 69.5599 37.8089 69.4004 37.5537 69.4004C37.3623 69.3366 37.2666 69.1452 37.2666 68.8262C37.2666 68.252 37.3304 67.4863 37.458 66.5293C37.6494 65.5723 37.777 64.7747 37.8408 64.1367C38.2236 60.6914 38.415 57.278 38.415 53.8965C38.415 51.0254 38.3193 48.1862 38.1279 45.3789C37.9365 42.5716 37.7451 39.7324 37.5537 36.8613L38.3193 35.7129C38.5745 35.3301 38.7979 34.9473 38.9893 34.5645C39.6273 34.3092 40.1377 34.054 40.5205 33.7988C40.9671 33.4798 41.5413 33.3203 42.2432 33.3203C42.4346 33.3203 42.5941 33.3522 42.7217 33.416C42.8493 33.416 42.9769 33.416 43.1045 33.416C43.4873 33.6712 43.7744 34.0221 43.9658 34.4688C44.221 34.9154 44.4443 35.3301 44.6357 35.7129C44.891 36.0957 45.21 36.4147 45.5928 36.6699C45.9756 36.9251 46.5179 36.9889 47.2197 36.8613C47.5387 38.6478 48.432 39.5729 49.8994 39.6367C50.2184 40.5299 50.6012 41.4232 51.0479 42.3164C51.5583 43.2096 52.2282 43.9115 53.0576 44.4219C52.9938 44.6771 52.9619 45.028 52.9619 45.4746C52.9619 46.3678 53.1533 47.2292 53.5361 48.0586C53.9827 48.888 54.5251 49.6536 55.1631 50.3555V50.5469C55.1631 51.2487 54.9079 51.7272 54.3975 51.9824C54.9717 52.6204 55.3864 53.3861 55.6416 54.2793C55.8968 55.1725 56.1201 56.0977 56.3115 57.0547C56.5029 57.9479 56.7262 58.8092 56.9814 59.6387C57.3005 60.4681 57.8109 61.1061 58.5127 61.5527V61.8398C58.5127 62.1589 58.3851 62.3503 58.1299 62.4141C57.9385 62.4779 57.8428 62.6693 57.8428 62.9883C58.9912 65.0938 59.7887 67.3906 60.2354 69.8789C60.682 72.3672 61.2562 74.7598 61.958 77.0566C62.2132 77.3118 62.5003 77.4714 62.8193 77.5352C63.2021 77.599 63.4893 77.7585 63.6807 78.0137C63.2979 78.2689 63.1064 78.7155 63.1064 79.3535C63.1064 79.9915 62.9469 80.4701 62.6279 80.7891C63.1383 81.2357 63.3617 81.9056 63.2979 82.7988C63.2979 83.6283 63.5531 84.2344 64.0635 84.6172V85C64.0635 85.2552 63.9997 85.4785 63.8721 85.6699C63.7445 85.7975 63.6807 85.9889 63.6807 86.2441V86.627C64.1911 88.86 64.5739 91.0931 64.8291 93.3262C65.1481 95.5592 65.4671 97.7923 65.7861 100.025C66.1051 102.258 66.4561 104.492 66.8389 106.725C67.2217 108.894 67.764 111.031 68.4658 113.137C68.5296 113.201 68.5615 113.296 68.5615 113.424C68.5615 113.743 68.4339 113.934 68.1787 113.998C67.9235 113.998 67.7959 114.158 67.7959 114.477C67.7959 114.796 67.8916 115.178 68.083 115.625C68.3382 116.008 68.5934 116.327 68.8486 116.582C68.7848 116.837 68.7529 117.22 68.7529 117.73C68.7529 118.688 68.9124 119.613 69.2314 120.506C69.6143 121.399 69.9971 122.292 70.3799 123.186C70.8265 124.015 71.2093 124.908 71.5283 125.865C71.8473 126.822 71.9749 127.843 71.9111 128.928C72.2939 129.502 72.7725 129.98 73.3467 130.363C73.9847 130.746 74.6227 131.097 75.2607 131.416C75.8988 131.735 76.473 132.118 76.9834 132.564C77.5576 133.011 77.9404 133.617 78.1318 134.383C77.6214 134.829 77.2705 135.372 77.0791 136.01C76.8877 136.712 76.5368 137.318 76.0264 137.828C76.473 138.913 76.9834 139.902 77.5576 140.795C78.1956 141.752 78.8337 142.677 79.4717 143.57L81.4814 146.25C82.1833 147.143 82.7894 148.1 83.2998 149.121C84.0016 149.121 84.512 149.312 84.8311 149.695C85.1501 150.078 85.6605 150.238 86.3623 150.174C86.6175 150.684 86.7132 151.258 86.6494 151.896C87.9255 151.45 89.2015 151.227 90.4775 151.227C91.1794 151.227 91.8174 151.258 92.3916 151.322C93.0296 151.386 93.6676 151.418 94.3057 151.418C95.0713 151.418 95.7412 151.322 96.3154 151.131C96.5706 151.514 96.762 151.928 96.8896 152.375C97.0173 152.885 97.113 153.396 97.1768 153.906L97.4639 155.438C97.5915 155.948 97.7829 156.395 98.0381 156.777ZM61.958 130.268C61.0648 125.865 60.1396 121.495 59.1826 117.156C58.2894 112.754 57.4919 108.32 56.79 103.854C56.4072 101.493 56.1201 99.1322 55.9287 96.7715C55.7373 94.4108 55.4821 92.082 55.1631 89.7852C54.9079 87.4245 54.5251 85.0957 54.0146 82.7988C53.568 80.502 52.8981 78.237 52.0049 76.0039V75.8125C52.0049 75.6211 52.0687 75.4616 52.1963 75.334C52.3239 75.2064 52.3877 74.9831 52.3877 74.6641V74.2812C51.5583 73.707 50.984 72.9095 50.665 71.8887C50.346 70.804 50.0589 69.6875 49.8037 68.5391C49.6123 67.3268 49.3252 66.1784 48.9424 65.0938C48.6234 63.9453 48.0492 62.9883 47.2197 62.2227C46.9007 65.9232 46.5498 69.6237 46.167 73.3242C45.848 76.9609 45.6247 80.6296 45.4971 84.3301C44.859 84.7129 44.4443 85.3509 44.2529 86.2441C44.0615 87.1374 43.9658 87.9349 43.9658 88.6367C43.9658 89.1471 43.9977 89.6895 44.0615 90.2637C44.1253 90.7741 44.2529 91.3164 44.4443 91.8906C43.2959 94.7617 42.4665 97.7285 41.9561 100.791C41.4456 103.79 40.8714 106.788 40.2334 109.787C40.1696 109.979 40.042 110.425 39.8506 111.127C39.723 111.765 39.5635 112.435 39.3721 113.137C39.1807 113.839 39.0212 114.477 38.8936 115.051C38.766 115.561 38.7021 115.848 38.7021 115.912C38.6383 116.359 38.6064 116.805 38.6064 117.252C38.6702 117.699 38.7021 118.145 38.7021 118.592L37.2666 120.027C37.0114 122.452 36.5329 124.812 35.8311 127.109C35.193 129.342 34.5231 131.639 33.8213 134C34.2679 134.064 34.6826 134.096 35.0654 134.096C35.512 134.16 35.9587 134.191 36.4053 134.191C38.4469 134.191 40.4886 134.064 42.5303 133.809C44.6357 133.49 46.7093 133.202 48.751 132.947C49.4528 132.82 50.1865 132.724 50.9521 132.66C51.7178 132.533 52.4515 132.469 53.1533 132.469C53.4723 132.405 53.8551 132.405 54.3018 132.469C54.7484 132.469 55.1312 132.437 55.4502 132.373C55.9606 132.245 56.2796 132.054 56.4072 131.799C56.5986 131.48 56.9495 131.288 57.46 131.225C57.8428 131.416 58.2894 131.512 58.7998 131.512C59.374 131.512 59.9163 131.384 60.4268 131.129C60.9372 130.874 61.4476 130.587 61.958 130.268ZM178.237 112.084C178.237 113.36 178.014 114.413 177.567 115.242C177.185 116.008 176.738 116.901 176.228 117.922C176.1 117.858 175.94 117.826 175.749 117.826C175.366 117.826 175.015 117.922 174.696 118.113C174.377 118.305 174.058 118.464 173.739 118.592C171.889 120.633 169.975 122.611 167.997 124.525C166.083 126.439 163.946 128.13 161.585 129.598C160.947 129.98 160.309 130.363 159.671 130.746C159.033 131.065 158.363 131.384 157.661 131.703C157.406 131.831 157.151 131.958 156.896 132.086C156.704 132.15 156.513 132.245 156.321 132.373C155.875 132.628 155.396 133.043 154.886 133.617C154.439 134.191 153.897 134.766 153.259 135.34C152.685 135.978 152.047 136.488 151.345 136.871C150.643 137.318 149.877 137.509 149.048 137.445C148.537 137.764 148.091 138.179 147.708 138.689C147.325 139.2 146.879 139.71 146.368 140.221C143.625 141.178 141.104 142.422 138.808 143.953C136.575 145.548 134.246 147.079 131.821 148.547C130.354 149.504 128.886 150.27 127.419 150.844C127.1 150.971 126.717 151.067 126.271 151.131C125.888 151.195 125.473 151.29 125.026 151.418C122.921 151.928 120.784 152.343 118.614 152.662C116.509 152.981 114.371 153.141 112.202 153.141C109.522 153.141 106.938 152.822 104.45 152.184C104.45 151.992 104.386 151.865 104.259 151.801C104.131 151.737 103.972 151.673 103.78 151.609C103.653 151.546 103.525 151.45 103.397 151.322C103.27 151.258 103.27 151.099 103.397 150.844C101.994 150.716 100.75 150.365 99.665 149.791C98.6442 149.217 97.9743 148.196 97.6553 146.729C97.4639 146.856 97.3044 147.016 97.1768 147.207C97.0492 147.398 96.8258 147.462 96.5068 147.398C95.6136 146.122 94.6247 144.942 93.54 143.857C92.4554 142.773 91.6579 141.465 91.1475 139.934C91.0199 139.615 90.9242 139.296 90.8604 138.977C90.8604 138.721 90.8285 138.434 90.7646 138.115C90.4456 137.222 89.8714 136.775 89.042 136.775C89.1696 136.52 89.2334 136.201 89.2334 135.818C89.2334 135.627 89.2015 135.436 89.1377 135.244C89.1377 135.053 89.1377 134.861 89.1377 134.67C89.1377 134.351 89.2334 134.032 89.4248 133.713C88.7868 132.245 88.3402 130.81 88.085 129.406C87.8298 127.939 87.7021 126.439 87.7021 124.908C87.7021 122.93 87.7979 120.984 87.9893 119.07C88.1807 117.092 88.2764 115.115 88.2764 113.137C88.6592 112.371 88.9463 111.478 89.1377 110.457C89.3929 109.436 89.8076 108.607 90.3818 107.969C90.318 107.586 90.1904 107.395 89.999 107.395C89.8076 107.331 89.7119 107.139 89.7119 106.82C89.7119 105.672 89.9352 104.428 90.3818 103.088C90.8285 101.748 91.0518 100.376 91.0518 98.9727C91.626 98.6536 91.9769 98.1751 92.1045 97.5371C92.2959 96.8991 92.6468 96.3887 93.1572 96.0059V95.5273C93.1572 94.5703 93.2529 93.6133 93.4443 92.6562C93.6995 91.6992 93.9229 90.7741 94.1143 89.8809C94.3695 88.9238 94.5609 87.9987 94.6885 87.1055C94.8799 86.1484 94.9437 85.2233 94.8799 84.3301C95.0075 84.1387 95.167 83.7878 95.3584 83.2773C95.6136 82.7031 95.8369 82.1289 96.0283 81.5547C96.2835 80.9167 96.4749 80.3105 96.6025 79.7363C96.7939 79.1621 96.8896 78.7474 96.8896 78.4922C96.8896 78.1094 96.8258 77.7585 96.6982 77.4395C96.5706 77.1204 96.5068 76.7695 96.5068 76.3867C96.5068 76.0677 96.6025 75.6211 96.7939 75.0469C96.9854 74.4089 97.1449 73.8984 97.2725 73.5156C97.5277 72.431 97.751 71.3145 97.9424 70.166C98.1976 68.9538 98.4209 67.8053 98.6123 66.7207C99.1865 63.2116 99.6012 59.7025 99.8564 56.1934C100.112 52.6204 100.271 49.0475 100.335 45.4746C101.228 44.9642 102.153 44.4857 103.11 44.0391C104.131 43.5924 105.184 43.3691 106.269 43.3691C106.588 43.3691 106.907 43.401 107.226 43.4648C107.545 43.5286 107.864 43.6243 108.183 43.752C108.502 45.028 109.012 46.0488 109.714 46.8145C110.416 47.5801 111.054 48.5052 111.628 49.5898C111.245 50.6107 110.99 51.6634 110.862 52.748L110.575 56.002C110.511 57.0866 110.384 58.1712 110.192 59.2559C110.001 60.2767 109.682 61.2656 109.235 62.2227C109.363 62.5417 109.427 62.8607 109.427 63.1797V64.1367C109.427 65.0299 109.331 65.8913 109.14 66.7207C109.012 67.5501 108.853 68.4115 108.661 69.3047C108.47 70.1341 108.31 70.9635 108.183 71.793C108.055 72.6224 108.055 73.4518 108.183 74.2812C107.991 74.6003 107.8 74.8555 107.608 75.0469C107.417 75.1745 107.289 75.3978 107.226 75.7168L107.034 77.5352C106.907 78.237 106.779 78.9388 106.651 79.6406C106.588 80.2786 106.492 80.9486 106.364 81.6504C105.918 83.5645 105.407 85.4785 104.833 87.3926C104.323 89.3066 104.067 91.2845 104.067 93.3262V93.9004C103.493 94.7936 103.047 95.9102 102.728 97.25C102.409 98.526 102.313 99.7064 102.44 100.791C101.739 102.641 101.069 104.46 100.431 106.246C99.7926 108.033 99.4736 109.883 99.4736 111.797C99.4736 112.116 99.4736 112.467 99.4736 112.85C99.5374 113.169 99.6012 113.488 99.665 113.807C99.1546 115.083 98.8356 116.391 98.708 117.73C98.5804 119.007 98.5166 120.283 98.5166 121.559C98.5166 122.452 98.5485 123.505 98.6123 124.717C98.7399 125.865 98.8994 127.077 99.0908 128.354C99.346 129.566 99.6331 130.746 99.9521 131.895C100.271 133.043 100.622 133.968 101.005 134.67C102.472 137.031 104.386 138.881 106.747 140.221C109.172 141.624 111.724 142.518 114.403 142.9C115.488 142.518 116.349 142.294 116.987 142.23C117.689 142.167 118.646 142.167 119.858 142.23C120.879 141.72 121.9 141.337 122.921 141.082C124.006 140.827 125.09 140.54 126.175 140.221C126.494 140.093 126.813 139.965 127.132 139.838C127.515 139.71 127.834 139.583 128.089 139.455C128.408 139.327 128.759 139.04 129.142 138.594C129.524 138.147 129.875 137.764 130.194 137.445C131.534 137.062 132.81 136.52 134.022 135.818C135.235 135.18 136.415 134.51 137.563 133.809L141.104 131.703C142.317 131.001 143.593 130.395 144.933 129.885C145.443 129.693 145.73 129.438 145.794 129.119C145.922 128.736 146.113 128.29 146.368 127.779C146.496 127.907 146.687 127.971 146.942 127.971C147.708 127.971 148.25 127.747 148.569 127.301C148.888 126.79 149.271 126.28 149.718 125.77C150.547 125.642 151.345 125.419 152.11 125.1C152.876 124.717 153.45 124.143 153.833 123.377C155.428 123.058 156.832 122.484 158.044 121.654C159.256 120.825 160.437 119.932 161.585 118.975C162.733 117.954 163.882 116.997 165.03 116.104C166.179 115.146 167.487 114.381 168.954 113.807C169.146 113.488 169.273 113.201 169.337 112.945C169.401 112.69 169.496 112.403 169.624 112.084C170.709 111.956 171.57 111.669 172.208 111.223C172.846 110.712 173.58 110.202 174.409 109.691C176.196 109.883 177.472 110.68 178.237 112.084ZM281.692 117.73C281.692 118.56 281.469 119.326 281.022 120.027C280.576 120.665 280.448 121.431 280.64 122.324C280.384 122.771 280.034 123.122 279.587 123.377C279.204 123.632 279.076 124.111 279.204 124.812C277.864 125.514 276.62 126.408 275.472 127.492C274.387 128.513 273.207 129.502 271.931 130.459C271.165 131.033 270.495 131.448 269.921 131.703C269.41 131.895 268.772 132.214 268.007 132.66L265.614 134.191C264.53 134.766 263.413 135.34 262.265 135.914C261.18 136.488 260.191 137.222 259.298 138.115C257.958 138.179 256.586 138.53 255.183 139.168C253.779 139.87 252.439 140.476 251.163 140.986C250.653 141.178 250.142 141.305 249.632 141.369C249.121 141.497 248.611 141.688 248.101 141.943L246.569 142.613C245.676 143.06 244.623 143.507 243.411 143.953C242.199 144.464 241.114 144.719 240.157 144.719C239.583 144.974 239.104 145.421 238.722 146.059C236.616 146.76 234.447 147.303 232.214 147.686C229.981 148.068 227.812 148.674 225.706 149.504C225.004 149.823 224.271 150.238 223.505 150.748C222.803 151.322 222.037 151.577 221.208 151.514C221.017 151.833 220.889 152.215 220.825 152.662C220.761 153.109 220.666 153.555 220.538 154.002H220.251C219.996 154.002 219.868 153.874 219.868 153.619C219.932 153.364 219.836 153.236 219.581 153.236C219.39 153.236 219.262 153.268 219.198 153.332C218.369 153.523 217.571 153.683 216.806 153.811C216.104 153.938 215.306 154.002 214.413 154.002C213.903 154.002 213.073 153.938 211.925 153.811C210.84 153.683 210.043 153.523 209.532 153.332C209.149 153.141 208.83 152.79 208.575 152.279C208.32 151.769 208.065 151.227 207.81 150.652C207.618 150.078 207.427 149.472 207.235 148.834C207.108 148.26 206.98 147.781 206.853 147.398C207.044 146.697 207.363 146.122 207.81 145.676C208.256 145.229 208.607 144.655 208.862 143.953C209.437 143.889 210.011 143.794 210.585 143.666C211.159 143.538 211.733 143.507 212.308 143.57C214.285 142.996 216.263 142.422 218.241 141.848C220.283 141.337 222.293 140.795 224.271 140.221C226.248 139.646 228.194 139.008 230.108 138.307C232.022 137.605 233.873 136.743 235.659 135.723H237.669C238.817 135.085 240.093 134.542 241.497 134.096C242.901 133.649 244.049 132.915 244.942 131.895C247.048 131.448 249.249 130.842 251.546 130.076C253.843 129.311 255.757 128.098 257.288 126.439C258.245 126.312 259.075 126.089 259.776 125.77C260.478 125.387 261.148 125.004 261.786 124.621L263.7 123.377C264.338 122.93 265.072 122.579 265.901 122.324C266.412 121.814 266.89 121.271 267.337 120.697C267.784 120.123 268.326 119.645 268.964 119.262C268.772 118.241 268.262 117.475 267.433 116.965C266.603 116.454 265.869 115.848 265.231 115.146H263.126C261.467 114.126 259.681 113.36 257.767 112.85C255.916 112.275 254.066 111.669 252.216 111.031C252.088 110.967 251.929 110.936 251.737 110.936C251.291 110.936 251.004 111.095 250.876 111.414C250.812 111.733 250.557 111.861 250.11 111.797C249.536 111.414 248.93 111.191 248.292 111.127C247.654 110.999 246.984 110.936 246.282 110.936C245.389 110.936 244.496 110.999 243.603 111.127C242.773 111.191 241.912 111.223 241.019 111.223C240.572 111.223 240.125 111.191 239.679 111.127C239.232 111.063 238.785 110.904 238.339 110.648H237.095C235.755 110.648 234.415 110.712 233.075 110.84C231.799 110.904 230.523 110.936 229.247 110.936C228.545 110.936 227.875 110.936 227.237 110.936C226.599 110.872 225.961 110.776 225.323 110.648C223.983 111.286 222.548 111.733 221.017 111.988C219.485 112.243 217.89 112.435 216.231 112.562C214.636 112.69 213.041 112.818 211.446 112.945C209.851 113.009 208.32 113.169 206.853 113.424C206.47 113.36 206.087 113.328 205.704 113.328C205.385 113.264 205.066 113.232 204.747 113.232C204.428 113.232 204.077 113.264 203.694 113.328C203.375 113.328 203.056 113.36 202.737 113.424C201.908 112.531 200.887 111.893 199.675 111.51C198.526 111.063 197.378 110.776 196.229 110.648C195.336 109.564 194.666 108.479 194.22 107.395C193.837 106.246 193.582 104.97 193.454 103.566H193.837C194.284 103.566 194.475 103.343 194.411 102.896C194.411 102.45 194.571 102.067 194.89 101.748C195.209 101.365 195.623 101.11 196.134 100.982C196.708 100.791 197.25 100.6 197.761 100.408C198.271 100.217 198.75 99.9935 199.196 99.7383C199.707 99.4193 200.09 98.9408 200.345 98.3027H201.589C201.844 98.3027 202.099 98.3346 202.354 98.3984C202.674 98.3984 202.929 98.4941 203.12 98.6855C203.375 98.4303 203.694 98.207 204.077 98.0156C204.46 97.8242 204.811 97.6328 205.13 97.4414C205.513 97.25 205.832 97.0267 206.087 96.7715C206.342 96.5163 206.502 96.1335 206.565 95.623C206.629 95.8145 206.789 95.9102 207.044 95.9102C207.299 95.9102 207.522 95.8464 207.714 95.7188C207.969 95.5911 208.256 95.5592 208.575 95.623C208.894 94.7298 209.437 94.2513 210.202 94.1875C210.968 94.1237 211.67 93.9004 212.308 93.5176C212.754 93.2624 213.169 92.9753 213.552 92.6562C213.935 92.2734 214.349 91.9225 214.796 91.6035L220.538 87.2012L229.343 80.502C232.278 78.2689 235.276 76.1953 238.339 74.2812C238.466 73.8984 238.658 73.6113 238.913 73.4199C239.168 73.2285 239.424 73.0371 239.679 72.8457C239.934 72.5905 240.125 72.3353 240.253 72.0801C240.444 71.8249 240.508 71.4421 240.444 70.9316C241.338 70.7402 242.007 70.3893 242.454 69.8789C242.965 69.3685 243.411 68.8262 243.794 68.252C244.177 67.6139 244.56 67.0078 244.942 66.4336C245.389 65.7956 245.963 65.3171 246.665 64.998C246.601 64.8066 246.569 64.5195 246.569 64.1367C246.569 63.6263 246.601 63.1159 246.665 62.6055C246.793 62.0951 247.048 61.6484 247.431 61.2656C246.856 59.9258 245.868 58.9688 244.464 58.3945C243.06 57.7565 241.72 57.2142 240.444 56.7676H240.157C239.838 56.7676 239.647 56.9271 239.583 57.2461C239.583 57.5013 239.424 57.6927 239.104 57.8203C238.084 57.5651 236.935 57.4375 235.659 57.4375C234.383 57.4375 233.107 57.5332 231.831 57.7246C230.619 57.916 229.375 57.9479 228.099 57.8203C227.907 58.0755 227.684 58.3307 227.429 58.5859C227.237 58.8411 226.982 59.0645 226.663 59.2559C225.323 59.3197 223.983 59.5111 222.644 59.8301L218.624 60.7871L216.423 61.2656C216.104 61.3932 215.881 61.6165 215.753 61.9355C215.625 62.2546 215.53 62.6055 215.466 62.9883C215.083 62.9245 214.828 62.765 214.7 62.5098C214.636 62.2546 214.413 62.0632 214.03 61.9355C212.563 62.8288 210.968 63.5625 209.245 64.1367C207.586 64.7109 206.087 65.6042 204.747 66.8164C204.3 66.306 203.662 66.0508 202.833 66.0508C202.131 66.0508 201.366 66.2741 200.536 66.7207C199.707 67.1673 199.196 67.7415 199.005 68.4434C198.367 68.3158 197.888 68.252 197.569 68.252C196.868 68.252 196.261 68.4434 195.751 68.8262C195.304 69.209 194.858 69.6556 194.411 70.166C193.965 70.6126 193.486 71.0592 192.976 71.5059C192.465 71.9525 191.827 72.2077 191.062 72.2715C191.062 72.5905 191.062 72.9414 191.062 73.3242C191.125 73.6432 191.157 73.9941 191.157 74.377C191.157 77.248 190.998 80.1191 190.679 82.9902C190.36 85.7975 190.2 88.6367 190.2 91.5078C190.2 92.1458 190.232 92.7839 190.296 93.4219C190.36 93.9961 190.392 94.6341 190.392 95.3359C190.392 95.5273 190.232 95.9421 189.913 96.5801C189.658 97.2181 189.466 97.6966 189.339 98.0156C189.594 98.7174 189.69 99.4193 189.626 100.121C189.626 100.823 189.785 101.493 190.104 102.131C189.53 102.641 189.243 103.343 189.243 104.236C189.243 104.619 189.243 105.002 189.243 105.385C189.307 105.768 189.339 106.15 189.339 106.533V107.682C189.147 108.958 189.02 110.266 188.956 111.605C188.892 112.882 188.86 114.158 188.86 115.434C188.86 116.008 188.86 116.997 188.86 118.4C188.924 119.74 189.02 121.271 189.147 122.994C189.275 124.653 189.466 126.376 189.722 128.162C189.977 129.949 190.296 131.607 190.679 133.139C191.125 134.606 191.668 135.818 192.306 136.775C192.944 137.732 193.709 138.211 194.603 138.211C194.794 138.211 195.017 138.179 195.272 138.115C195.591 138.051 195.751 137.892 195.751 137.637C195.751 137.382 195.687 137.158 195.56 136.967C195.496 136.775 195.464 136.552 195.464 136.297L195.56 136.105C196.07 136.361 196.612 136.52 197.187 136.584C197.825 136.648 198.463 136.712 199.101 136.775C199.739 136.839 200.345 136.935 200.919 137.062C201.493 137.254 202.004 137.605 202.45 138.115C202.195 138.626 202.067 139.168 202.067 139.742C202.067 140.508 202.259 141.21 202.642 141.848C203.024 142.549 203.28 143.251 203.407 143.953C202.195 144.336 201.078 144.751 200.058 145.197C199.101 145.708 198.144 146.154 197.187 146.537C196.229 146.984 195.209 147.367 194.124 147.686C193.039 148.068 191.795 148.324 190.392 148.451C189.498 147.877 188.733 147.367 188.095 146.92C187.457 146.473 186.595 146.186 185.511 146.059C183.852 143.826 182.48 141.305 181.396 138.498C180.311 135.755 179.45 132.883 178.812 129.885C178.237 126.886 177.823 123.887 177.567 120.889C177.376 117.826 177.28 114.955 177.28 112.275C177.28 109.34 177.376 106.438 177.567 103.566C177.823 100.632 178.142 97.6966 178.524 94.7617C178.652 93.8685 178.78 92.9753 178.907 92.082C179.035 91.125 179.162 90.1999 179.29 89.3066C179.418 88.9876 179.513 88.6367 179.577 88.2539C179.705 87.8073 179.769 87.4245 179.769 87.1055C179.769 86.0208 179.737 84.9362 179.673 83.8516C179.609 82.7669 179.577 81.7142 179.577 80.6934C179.577 79.0983 179.673 77.4714 179.864 75.8125C179.928 75.4935 180.024 75.0788 180.151 74.5684C180.343 74.0579 180.438 73.6113 180.438 73.2285C180.438 72.7181 180.311 72.3672 180.056 72.1758C179.8 71.9844 179.577 71.6654 179.386 71.2188C179.577 70.5807 179.737 69.9746 179.864 69.4004C179.992 68.7624 180.056 68.1243 180.056 67.4863C180.056 66.2741 179.832 65.2214 179.386 64.3281C179.705 62.6693 180.183 61.0423 180.821 59.4473C181.459 57.8522 182.576 56.64 184.171 55.8105C185.447 55.8743 186.723 56.002 187.999 56.1934C189.339 56.3848 190.487 56.9271 191.444 57.8203C191.891 57.5651 192.401 57.4056 192.976 57.3418L194.794 57.1504C195.432 57.0866 196.006 56.9909 196.517 56.8633C197.027 56.6719 197.474 56.321 197.856 55.8105C199.132 55.5553 200.504 55.2044 201.972 54.7578C203.439 54.2474 204.715 53.6732 205.8 53.0352H207.905C208.352 52.7161 208.862 52.4928 209.437 52.3652L211.255 51.8867C211.893 51.6953 212.467 51.5039 212.978 51.3125C213.552 51.1211 213.998 50.8021 214.317 50.3555H214.7C216.168 50.3555 217.603 50.0365 219.007 49.3984C220.41 48.7604 221.782 48.1862 223.122 47.6758C223.441 47.5482 223.92 47.3249 224.558 47.0059C225.259 46.6868 225.738 46.5273 225.993 46.5273C226.886 46.3997 227.78 46.3359 228.673 46.3359C229.566 46.2721 230.459 46.1445 231.353 45.9531C233.394 45.6341 235.404 45.2832 237.382 44.9004C239.424 44.4538 241.465 44.2305 243.507 44.2305C244.209 44.2305 244.847 44.2624 245.421 44.3262C246.059 44.3262 246.729 44.3581 247.431 44.4219C247.494 44.6771 247.654 44.9004 247.909 45.0918C248.164 45.2194 248.388 45.347 248.579 45.4746C248.834 45.6022 249.058 45.7936 249.249 46.0488C249.44 46.2402 249.504 46.5273 249.44 46.9102C249.568 47.0378 249.696 47.1016 249.823 47.1016C250.015 47.1016 250.174 47.0059 250.302 46.8145C250.493 46.623 250.748 46.5273 251.067 46.5273H251.546C252.375 47.4206 253.173 48.2819 253.938 49.1113C254.768 49.877 255.789 50.515 257.001 51.0254C257.511 52.9395 258.118 54.8216 258.819 56.6719C259.521 58.5221 259.872 60.5 259.872 62.6055C259.872 63.8815 259.681 65.1257 259.298 66.3379C258.405 66.7845 257.767 67.4863 257.384 68.4434C257.001 69.4004 256.65 70.3255 256.331 71.2188C254.545 72.112 253.045 73.2923 251.833 74.7598C250.621 76.2272 249.377 77.6947 248.101 79.1621H246.569C246.314 79.1621 246.123 79.2578 245.995 79.4492L245.134 80.4062C244.56 80.9167 243.922 81.4271 243.22 81.9375C242.582 82.4479 242.103 83.1178 241.784 83.9473C239.806 85.0319 237.892 86.2441 236.042 87.584C234.256 88.9238 232.533 90.3275 230.874 91.7949C230.172 92.3691 229.47 93.0391 228.769 93.8047C228.067 94.5065 227.365 95.1126 226.663 95.623C226.28 95.9421 225.834 96.2292 225.323 96.4844C224.877 96.6758 224.462 96.931 224.079 97.25C223.25 97.888 222.484 98.5579 221.782 99.2598C221.08 99.8978 220.347 100.504 219.581 101.078C222.452 100.951 225.355 100.887 228.29 100.887C231.225 100.823 234.128 100.759 236.999 100.695C238.466 100.695 239.902 100.663 241.306 100.6C242.709 100.472 244.145 100.408 245.612 100.408C245.868 100.408 246.091 100.472 246.282 100.6C246.474 100.663 246.697 100.727 246.952 100.791C248.037 100.982 248.994 101.206 249.823 101.461C252.886 102.035 255.948 102.546 259.011 102.992C262.073 103.439 265.072 104.173 268.007 105.193C268.836 105.512 269.442 105.863 269.825 106.246C270.272 106.629 271.037 106.725 272.122 106.533C273.015 107.426 273.972 108.128 274.993 108.639C276.078 109.149 277.162 109.596 278.247 109.979C279.076 111.255 279.842 112.467 280.544 113.615C281.31 114.764 281.692 116.135 281.692 117.73ZM390.985 29.3965C390.985 29.9707 390.953 30.5449 390.89 31.1191C390.89 31.6934 390.858 32.2357 390.794 32.7461C390.603 33.0651 390.22 33.1927 389.646 33.1289C389.135 33.0651 388.72 33.0332 388.401 33.0332C388.082 33.0332 387.795 33.097 387.54 33.2246C387.349 33.2884 387.253 33.4798 387.253 33.7988C387.253 34.1816 387.285 34.4368 387.349 34.5645C386.838 34.5007 386.296 34.4368 385.722 34.373C385.147 34.3092 384.637 34.1178 384.19 33.7988C383.297 33.9902 382.436 34.2454 381.606 34.5645C380.841 34.8835 380.075 35.2344 379.31 35.6172C378.544 36 377.746 36.3509 376.917 36.6699C376.088 36.9889 375.226 37.1803 374.333 37.2441C373.759 37.8822 373.025 38.3607 372.132 38.6797C371.239 38.9987 370.313 39.2858 369.356 39.541C368.399 39.7962 367.506 40.1152 366.677 40.498C365.847 40.8171 365.177 41.3275 364.667 42.0293C363.263 42.1569 361.924 42.5078 360.647 43.082C359.371 43.6562 358.095 44.2624 356.819 44.9004C355.607 45.5384 354.363 46.1445 353.087 46.7188C351.811 47.293 350.439 47.6758 348.972 47.8672C348.589 48.25 348.11 48.569 347.536 48.8242C347.026 49.0794 346.483 49.3346 345.909 49.5898C345.335 49.7812 344.793 50.0046 344.282 50.2598C343.772 50.515 343.357 50.8659 343.038 51.3125H342.847C342.591 51.3125 342.4 51.2487 342.272 51.1211C342.145 50.9935 341.953 50.9297 341.698 50.9297C341.507 50.9297 341.379 50.9616 341.315 51.0254C339.784 51.7272 338.253 52.4609 336.722 53.2266C335.19 53.9922 333.595 54.7259 331.937 55.4277C328.683 56.7676 325.397 58.0755 322.079 59.3516C318.761 60.6276 315.571 62.1908 312.509 64.041C311.807 66.5931 311.233 69.209 310.786 71.8887C310.34 74.5046 309.542 77.0247 308.394 79.4492V83.9473C307.756 85.1595 307.341 86.4993 307.149 87.9668C306.958 89.4342 306.862 90.8379 306.862 92.1777C306.862 92.6882 306.862 93.1667 306.862 93.6133C306.926 93.9961 306.958 94.4108 306.958 94.8574C308.808 94.347 310.595 93.7728 312.317 93.1348C314.104 92.4967 315.89 91.9225 317.677 91.4121C318.57 91.0931 319.463 90.8698 320.356 90.7422C321.313 90.6146 322.239 90.3913 323.132 90.0723C323.834 89.8809 324.567 89.6257 325.333 89.3066C326.099 88.9238 326.832 88.5729 327.534 88.2539C329.448 87.4245 331.394 86.6908 333.372 86.0527C335.414 85.4147 337.487 84.9362 339.593 84.6172C340.231 84.1068 340.933 83.6283 341.698 83.1816C342.464 82.735 343.229 82.5117 343.995 82.5117C344.569 82.5117 345.048 82.6074 345.431 82.7988C346.515 82.1608 347.791 81.5866 349.259 81.0762C350.726 80.5658 352.098 80.3743 353.374 80.502C353.693 80.0553 354.076 79.7682 354.522 79.6406C354.969 79.4492 355.448 79.3535 355.958 79.3535C356.213 79.3535 356.437 79.3854 356.628 79.4492C356.883 79.4492 357.17 79.4492 357.489 79.4492C358.127 79.0026 358.829 78.6836 359.595 78.4922C360.36 78.3008 361.126 78.1413 361.892 78.0137C362.657 77.8861 363.391 77.7266 364.093 77.5352C364.858 77.2799 365.528 76.8971 366.103 76.3867C366.996 76.4505 367.698 76.7057 368.208 77.1523C368.782 77.599 369.261 78.1413 369.644 78.7793C370.026 79.4173 370.345 80.0872 370.601 80.7891C370.856 81.4909 371.175 82.1608 371.558 82.7988C371.43 83.3092 371.239 83.724 370.983 84.043C370.728 84.2982 370.441 84.5534 370.122 84.8086C369.803 85.0638 369.516 85.319 369.261 85.5742C369.006 85.8294 368.846 86.1803 368.782 86.627C366.549 86.627 364.38 86.946 362.274 87.584C360.233 88.222 358.191 88.9557 356.149 89.7852C354.172 90.6146 352.13 91.4121 350.024 92.1777C347.983 92.8796 345.877 93.3262 343.708 93.5176C343.389 93.8366 342.974 94.0918 342.464 94.2832L341.028 94.7617C340.582 94.8893 340.167 95.0807 339.784 95.3359C339.401 95.5273 339.114 95.8464 338.923 96.293C338.54 96.1016 338.125 96.0059 337.679 96.0059C336.594 96.0059 335.541 96.293 334.521 96.8672C333.5 97.4414 332.351 97.7285 331.075 97.7285C330.565 97.7285 330.214 97.6966 330.022 97.6328C329.703 98.207 329.225 98.6217 328.587 98.877C328.013 99.1322 327.375 99.3555 326.673 99.5469C326.035 99.6745 325.397 99.8659 324.759 100.121C324.185 100.376 323.738 100.823 323.419 101.461C323.228 101.397 323.004 101.365 322.749 101.365H322.175C321.154 101.365 319.974 101.557 318.634 101.939C317.358 102.258 316.433 102.896 315.858 103.854C315.348 103.726 314.901 103.662 314.519 103.662C313.625 103.662 312.828 103.854 312.126 104.236C311.424 104.555 310.722 104.938 310.021 105.385L307.915 106.725C307.213 107.171 306.448 107.49 305.618 107.682C303.959 110.042 302.811 112.754 302.173 115.816C301.535 118.879 301.056 122.069 300.737 125.387C300.482 128.704 300.227 131.99 299.972 135.244C299.716 138.562 299.206 141.592 298.44 144.336C298.823 145.357 299.11 146.441 299.302 147.59C299.493 148.738 299.653 149.887 299.78 151.035C299.908 152.247 300.035 153.46 300.163 154.672C300.291 155.884 300.514 157.033 300.833 158.117C301.152 159.457 301.758 160.637 302.651 161.658C303.608 162.743 304.278 163.955 304.661 165.295C304.98 165.359 305.299 165.391 305.618 165.391C306.001 165.454 306.384 165.486 306.767 165.486C309.063 165.486 311.073 165.04 312.796 164.146C314.582 163.253 316.241 162.137 317.772 160.797C319.304 159.521 320.771 158.117 322.175 156.586C323.642 155.118 325.205 153.811 326.864 152.662H328.683C329.129 152.152 329.512 151.609 329.831 151.035C330.15 150.461 330.501 149.919 330.884 149.408C331.267 148.898 331.713 148.451 332.224 148.068C332.734 147.749 333.372 147.526 334.138 147.398C334.329 146.441 334.776 145.708 335.478 145.197C336.179 144.687 336.658 143.921 336.913 142.9C337.041 142.964 337.2 142.996 337.392 142.996C337.902 142.996 338.285 142.868 338.54 142.613L339.976 141.273C340.486 140.763 341.028 140.253 341.603 139.742C342.241 139.296 342.847 138.849 343.421 138.402C345.271 137.062 347.121 135.723 348.972 134.383C350.822 133.107 352.513 131.607 354.044 129.885C354.108 129.949 354.203 129.98 354.331 129.98C354.841 129.98 355.192 129.821 355.384 129.502C355.575 129.183 356.022 129.087 356.724 129.215C357.106 128.641 357.457 128.066 357.776 127.492C358.095 126.854 358.351 126.184 358.542 125.482L361.604 125.865C362.625 125.993 363.646 126.057 364.667 126.057C364.986 126.057 365.273 126.057 365.528 126.057C365.847 125.993 366.134 125.897 366.39 125.77C367.155 126.982 367.57 128.29 367.634 129.693C367.698 131.033 367.857 132.373 368.112 133.713C367.985 133.713 367.889 133.713 367.825 133.713C367.825 133.649 367.761 133.617 367.634 133.617C367.315 133.617 366.996 133.745 366.677 134C366.422 134.191 366.134 134.447 365.815 134.766L364.858 135.723C364.539 136.042 364.252 136.297 363.997 136.488C363.295 136.935 362.562 137.318 361.796 137.637C361.03 138.02 360.297 138.402 359.595 138.785C358.893 139.168 358.223 139.615 357.585 140.125C356.947 140.699 356.437 141.401 356.054 142.23C354.778 142.741 353.534 143.283 352.321 143.857C351.173 144.432 350.056 145.038 348.972 145.676C348.653 145.995 348.366 146.314 348.11 146.633C347.855 146.952 347.664 147.303 347.536 147.686C345.813 148.26 344.378 149.121 343.229 150.27C342.145 151.418 341.028 152.662 339.88 154.002L339.784 153.906C339.338 153.906 339.05 154.066 338.923 154.385C338.859 154.704 338.508 154.799 337.87 154.672C336.658 156.012 335.382 157.256 334.042 158.404C332.702 159.553 331.33 160.701 329.927 161.85C328.523 162.998 327.119 164.146 325.716 165.295C324.312 166.507 323.004 167.783 321.792 169.123C320.963 169.378 320.165 169.697 319.399 170.08C318.634 170.463 318.06 171.037 317.677 171.803H317.39C316.688 171.803 316.177 171.962 315.858 172.281C315.603 172.6 315.284 173.015 314.901 173.525C313.562 173.844 312.19 174.195 310.786 174.578C309.382 174.961 307.947 175.152 306.479 175.152C305.459 175.152 304.47 174.961 303.513 174.578C302.619 174.195 301.726 173.685 300.833 173.047C300.004 172.473 299.206 171.835 298.44 171.133C297.739 170.431 297.069 169.761 296.431 169.123C296.048 167.847 295.537 166.507 294.899 165.104C294.325 163.764 294.038 162.456 294.038 161.18C294.038 160.861 294.07 160.542 294.134 160.223C294.261 159.967 294.325 159.712 294.325 159.457C294.325 159.01 294.166 158.819 293.847 158.883C293.591 158.947 293.4 158.787 293.272 158.404C293.145 157.766 293.049 157.033 292.985 156.203C292.985 155.438 292.922 154.704 292.794 154.002C292.603 152.535 292.347 151.035 292.028 149.504C291.773 147.973 291.486 146.473 291.167 145.006C291.422 144.878 291.614 144.655 291.741 144.336C291.933 144.081 292.124 143.826 292.315 143.57C292.124 143.06 291.933 142.486 291.741 141.848C291.614 141.273 291.55 140.667 291.55 140.029C291.55 138.753 292.028 137.796 292.985 137.158C292.985 136.712 292.858 136.361 292.603 136.105C292.411 135.914 292.315 135.563 292.315 135.053C292.315 134.925 292.347 134.574 292.411 134C292.539 133.362 292.666 132.66 292.794 131.895C292.985 131.129 293.145 130.395 293.272 129.693C293.4 128.992 293.496 128.513 293.56 128.258C294.006 125.323 294.389 122.452 294.708 119.645C295.027 116.773 295.474 113.902 296.048 111.031C295.41 110.521 294.58 110.138 293.56 109.883C292.603 109.564 291.933 109.149 291.55 108.639C291.231 108.192 290.976 107.618 290.784 106.916C290.593 106.214 290.497 105.608 290.497 105.098C290.497 103.247 291.231 101.78 292.698 100.695C294.166 99.5469 295.729 98.877 297.388 98.6855C298.217 96.4525 298.823 94.1875 299.206 91.8906C299.653 89.5299 300.004 87.1693 300.259 84.8086L301.024 77.6309C301.28 75.2064 301.662 72.8138 302.173 70.4531H301.599C300.323 70.4531 299.078 70.6445 297.866 71.0273C296.654 71.4102 295.41 71.6016 294.134 71.6016H293.942C292.092 70.1341 291.167 68.3796 291.167 66.3379C291.167 65.1257 291.422 63.9134 291.933 62.7012C292.953 62.3184 293.879 61.8079 294.708 61.1699C295.537 60.5319 296.367 59.8939 297.196 59.2559C298.09 58.554 298.983 57.9479 299.876 57.4375C300.769 56.9271 301.758 56.6081 302.843 56.4805C302.97 54.6302 303.289 52.7799 303.8 50.9297C304.31 49.0794 304.565 47.2292 304.565 45.3789C304.565 44.9961 304.534 44.6133 304.47 44.2305C304.47 43.8477 304.406 43.4648 304.278 43.082C304.725 42.5078 305.012 41.9017 305.14 41.2637C305.331 40.6257 305.427 39.9557 305.427 39.2539C305.427 38.4883 305.363 37.7546 305.235 37.0527C305.172 36.2871 305.076 35.5534 304.948 34.8516C305.522 34.5964 305.969 34.3411 306.288 34.0859C306.607 33.7669 306.894 33.4798 307.149 33.2246C307.468 32.9694 307.851 32.7461 308.298 32.5547C308.744 32.3633 309.382 32.2676 310.212 32.2676C311.424 32.2676 312.445 32.5228 313.274 33.0332C314.168 33.4798 314.933 34.0859 315.571 34.8516C316.209 35.6172 316.752 36.4785 317.198 37.4355C317.709 38.3926 318.187 39.3496 318.634 40.3066C318.506 41.0085 318.219 41.5189 317.772 41.8379C317.326 42.1569 316.943 42.5716 316.624 43.082C316.752 44.1029 316.879 45.0918 317.007 46.0488C317.134 46.9421 317.134 47.8991 317.007 48.9199C317.645 49.2389 318.251 49.3984 318.825 49.3984C319.782 49.3984 320.644 49.1432 321.409 48.6328C322.239 48.1224 322.813 47.4206 323.132 46.5273H323.323C323.515 46.5273 323.674 46.5911 323.802 46.7188C323.993 46.8464 324.216 46.9102 324.472 46.9102H324.854C325.556 46.2721 326.322 45.7936 327.151 45.4746C327.981 45.0918 328.842 44.7409 329.735 44.4219C330.629 44.1029 331.49 43.7839 332.319 43.4648C333.213 43.082 334.042 42.6035 334.808 42.0293C335.19 42.2207 335.605 42.3164 336.052 42.3164C336.69 42.3164 337.296 42.1888 337.87 41.9336C338.508 41.6784 339.114 41.4232 339.688 41.168C340.263 40.849 340.869 40.5618 341.507 40.3066C342.209 40.0514 342.942 39.9238 343.708 39.9238C343.836 39.9238 343.995 39.9557 344.187 40.0195C344.378 40.0195 344.537 40.0195 344.665 40.0195C345.112 40.0195 345.367 39.86 345.431 39.541C345.494 39.222 345.494 38.9349 345.431 38.6797C347.472 38.1693 349.227 37.5951 350.694 36.957C352.226 36.2552 353.916 35.4577 355.767 34.5645C355.767 34.5007 355.83 34.4688 355.958 34.4688C356.149 34.4688 356.277 34.5645 356.341 34.7559C356.405 34.9473 356.437 35.1068 356.437 35.2344C356.819 35.043 357.011 34.724 357.011 34.2773C357.075 33.8307 357.234 33.4479 357.489 33.1289C357.744 33.1927 358.095 33.2246 358.542 33.2246C359.116 33.2246 359.69 33.097 360.265 32.8418C360.903 32.5866 361.509 32.2995 362.083 31.9805C362.657 31.6615 363.231 31.3743 363.806 31.1191C364.38 30.8639 364.954 30.7363 365.528 30.7363C366.039 30.7363 366.453 30.8639 366.772 31.1191C367.155 30.9277 367.538 30.6725 367.921 30.3535C368.304 29.9707 368.718 29.7793 369.165 29.7793C369.293 29.7793 369.388 29.8112 369.452 29.875C369.58 29.9388 369.707 30.0026 369.835 30.0664C370.154 29.7474 370.441 29.4922 370.696 29.3008C371.015 29.1094 371.175 28.7904 371.175 28.3438C373.535 28.0885 375.705 27.5781 377.683 26.8125C379.724 25.9831 381.67 24.8984 383.521 23.5586C384.222 23.6862 384.892 23.8457 385.53 24.0371C386.232 24.1647 386.934 24.2285 387.636 24.2285C388.019 24.9303 388.369 25.6322 388.688 26.334C389.007 27.0358 389.709 27.3548 390.794 27.291C390.858 27.61 390.89 27.9609 390.89 28.3438C390.953 28.7266 390.985 29.0775 390.985 29.3965ZM494.728 137.924C494.6 139.2 494.153 140.189 493.388 140.891C492.622 141.656 491.633 142.039 490.421 142.039C489.783 142.039 489.177 141.943 488.603 141.752C487.39 142.709 485.955 143.443 484.296 143.953C482.637 144.464 481.074 144.974 479.606 145.484C477.82 145.421 476.065 145.261 474.343 145.006C472.62 144.751 470.834 144.687 468.983 144.814C468.345 144.368 467.675 144.081 466.974 143.953C466.272 143.826 465.538 143.73 464.772 143.666C464.071 143.666 463.369 143.57 462.667 143.379C462.029 143.188 461.391 142.741 460.753 142.039H455.968C455.521 142.039 454.851 141.816 453.958 141.369C453.129 140.986 452.172 140.572 451.087 140.125C450.066 139.678 448.95 139.264 447.737 138.881C446.589 138.498 445.504 138.307 444.483 138.307H443.909C443.207 137.732 442.378 137.286 441.421 136.967C440.528 136.712 439.603 136.456 438.646 136.201C437.688 136.01 436.763 135.786 435.87 135.531C434.977 135.276 434.211 134.925 433.573 134.479C432.935 134.032 432.201 133.585 431.372 133.139C430.543 132.628 429.681 132.405 428.788 132.469C427.576 131.767 426.3 131.161 424.96 130.65C423.684 130.14 422.376 129.661 421.036 129.215L417.112 127.779C415.836 127.269 414.56 126.663 413.284 125.961C413.093 126.025 412.869 126.025 412.614 125.961C412.359 125.897 412.136 125.865 411.944 125.865C411.562 125.865 411.338 125.993 411.274 126.248C410.828 125.801 410.317 125.419 409.743 125.1C409.233 124.781 408.722 124.398 408.212 123.951C407.957 124.015 407.701 124.079 407.446 124.143C407.255 124.143 407 124.143 406.681 124.143C406.106 124.143 405.532 124.079 404.958 123.951C404.448 123.824 403.937 123.664 403.427 123.473C402.853 124.749 402.47 126.184 402.278 127.779C402.087 129.374 401.927 131.033 401.8 132.756C401.736 134.415 401.64 136.074 401.513 137.732C401.385 139.455 401.098 141.018 400.651 142.422C400.779 142.932 400.843 143.443 400.843 143.953V145.58C400.843 146.665 401.002 147.526 401.321 148.164C401.194 148.738 401.066 149.281 400.938 149.791C400.875 150.301 400.779 150.812 400.651 151.322C400.715 152.024 400.747 152.662 400.747 153.236C400.811 153.874 400.843 154.544 400.843 155.246V156.873C400.843 157.447 400.779 158.021 400.651 158.596C400.013 158.979 399.375 159.329 398.737 159.648C398.099 160.031 397.461 160.478 396.823 160.988C396.377 160.159 395.611 159.68 394.526 159.553C394.271 159.872 394.08 160.286 393.952 160.797C393.888 161.371 393.601 161.658 393.091 161.658C392.198 160.956 391.464 160.382 390.89 159.936C390.315 159.489 389.677 158.819 388.976 157.926C388.912 157.798 388.88 157.639 388.88 157.447C388.88 157.128 388.944 156.841 389.071 156.586C389.199 156.331 389.263 156.076 389.263 155.82C389.263 155.055 389.167 154.385 388.976 153.811C388.848 152.981 388.752 152.152 388.688 151.322C388.625 150.557 388.593 149.791 388.593 149.025C388.593 147.941 388.657 146.888 388.784 145.867C388.976 144.846 389.295 143.794 389.741 142.709C390.443 140.859 390.922 138.913 391.177 136.871C391.496 134.829 391.719 132.788 391.847 130.746C391.974 128.641 392.038 126.535 392.038 124.43C392.102 122.324 392.229 120.314 392.421 118.4C391.974 117.38 391.432 116.582 390.794 116.008C390.22 115.37 389.933 114.381 389.933 113.041C389.933 111.829 390.315 110.904 391.081 110.266C391.847 109.564 392.517 108.734 393.091 107.777C392.963 107.395 393.059 107.139 393.378 107.012L394.526 96.9629C394.59 96.2611 394.686 95.4954 394.813 94.666C395.005 93.8366 395.132 93.071 395.196 92.3691C395.324 90.9017 395.388 89.4661 395.388 88.0625C395.388 86.6589 395.451 85.2552 395.579 83.8516C395.898 80.7253 396.185 77.6309 396.44 74.5684C396.759 71.5059 396.919 68.4434 396.919 65.3809C396.919 63.9134 396.855 62.446 396.728 60.9785C396.664 59.5111 396.472 58.0436 396.153 56.5762C395.069 56.8952 393.856 57.2461 392.517 57.6289C391.241 57.9479 390.156 58.5221 389.263 59.3516H388.497C386.838 59.3516 385.275 59.6706 383.808 60.3086C382.404 60.9466 380.968 61.5527 379.501 62.127C378.863 62.446 378.225 62.6693 377.587 62.7969C376.949 62.8607 376.279 62.9883 375.577 63.1797C375.258 63.2435 374.907 63.4349 374.524 63.7539C374.142 64.0729 373.791 64.2962 373.472 64.4238L371.845 64.8066C371.398 64.9342 371.207 65.2214 371.271 65.668C371.334 66.1146 371.175 66.4017 370.792 66.5293C370.473 66.8483 370.026 67.0078 369.452 67.0078C368.878 66.944 368.431 66.9121 368.112 66.9121H367.729C366.134 68.0605 364.603 69.0495 363.136 69.8789C361.604 70.6445 359.818 71.1549 357.776 71.4102L355.671 72.75C354.969 73.1966 354.172 73.4199 353.278 73.4199C352.576 73.4199 352.002 73.2923 351.556 73.0371C351.045 72.2715 350.662 71.4102 350.407 70.4531C350.088 69.4961 349.578 68.6667 348.876 67.9648C349.195 67.6458 349.418 67.2311 349.546 66.7207C349.61 66.1465 349.705 65.6361 349.833 65.1895C351.747 64.36 353.693 63.5625 355.671 62.7969C357.585 62.0312 359.435 61.1061 361.222 60.0215C361.413 60.0853 361.7 60.1172 362.083 60.1172C362.721 60.1172 363.295 60.0215 363.806 59.8301C364.316 59.6387 364.826 59.4154 365.337 59.1602C365.847 58.9049 366.358 58.6816 366.868 58.4902C367.379 58.2988 367.985 58.235 368.687 58.2988C370.856 57.0866 373.153 56.0977 375.577 55.332C378.002 54.5664 380.299 53.5137 382.468 52.1738C382.787 52.1738 383.042 52.2376 383.233 52.3652C383.489 52.4928 383.744 52.5566 383.999 52.5566C384.254 52.5566 384.414 52.5247 384.478 52.4609C384.86 51.9505 385.371 51.5996 386.009 51.4082C386.647 51.153 387.285 50.9616 387.923 50.834C388.625 50.6426 389.263 50.4193 389.837 50.1641C390.475 49.8451 390.89 49.3665 391.081 48.7285C391.4 48.9837 391.879 49.1113 392.517 49.1113C393.601 49.1113 394.59 48.888 395.483 48.4414C396.44 47.9948 397.461 47.7715 398.546 47.7715C398.801 47.7715 399.024 47.8353 399.216 47.9629C399.471 48.0267 399.726 48.0586 399.981 48.0586C400.492 48.0586 400.747 47.8991 400.747 47.5801C400.811 47.2611 401.002 46.974 401.321 46.7188C405.213 46.0169 409.073 45.3789 412.901 44.8047C416.793 44.2305 420.717 43.9434 424.673 43.9434C425.247 43.5605 425.885 43.3691 426.587 43.3691C427.289 43.3691 427.927 43.5605 428.501 43.9434C429.586 43.8158 430.67 43.7201 431.755 43.6562C432.84 43.5924 433.924 43.5605 435.009 43.5605C437.497 43.5605 440.049 43.7201 442.665 44.0391C445.281 44.3581 447.865 44.8685 450.417 45.5703C453.033 46.2083 455.521 47.1016 457.882 48.25C460.243 49.3346 462.444 50.6426 464.485 52.1738C464.677 52.748 464.932 53.3223 465.251 53.8965C465.57 54.4707 465.985 54.9173 466.495 55.2363C466.495 55.3639 466.463 55.4596 466.399 55.5234C466.399 55.5872 466.399 55.6829 466.399 55.8105C466.399 56.5124 466.591 57.1823 466.974 57.8203C467.42 58.4583 467.644 59.224 467.644 60.1172C467.644 61.0104 467.484 61.9036 467.165 62.7969C466.91 63.6901 466.814 64.5833 466.878 65.4766C466.176 66.4974 465.57 67.4225 465.06 68.252C464.613 69.0814 464.326 70.1341 464.198 71.4102C463.05 72.5586 462.029 73.8346 461.136 75.2383C460.243 76.5781 459.317 77.918 458.36 79.2578C457.467 80.5339 456.446 81.7142 455.298 82.7988C454.149 83.8835 452.778 84.7448 451.183 85.3828C451.119 86.0208 450.864 86.7227 450.417 87.4883H448.407C448.216 87.9987 447.897 88.3815 447.45 88.6367L446.11 89.4023C445.664 89.6576 445.281 89.9766 444.962 90.3594C444.707 90.7422 444.579 91.2845 444.579 91.9863C444.451 91.9225 444.292 91.8906 444.101 91.8906C443.463 91.8906 442.697 92.2096 441.804 92.8477C440.974 93.4857 440.304 93.9961 439.794 94.3789C438.709 95.1445 437.593 95.8464 436.444 96.4844C435.36 97.1224 434.403 98.0156 433.573 99.1641C431.021 100.249 428.597 101.525 426.3 102.992C424.003 104.396 421.515 105.512 418.835 106.342C417.814 107.426 416.602 108.288 415.198 108.926C413.858 109.5 412.55 110.138 411.274 110.84V111.127C411.274 111.637 411.466 112.148 411.849 112.658C412.231 113.105 412.678 113.52 413.188 113.902C413.699 114.221 414.241 114.445 414.815 114.572C415.453 114.7 415.996 114.7 416.442 114.572C417.718 115.721 419.186 116.646 420.845 117.348C422.504 118.049 424.226 118.688 426.013 119.262C427.799 119.836 429.554 120.442 431.276 121.08C432.999 121.718 434.594 122.516 436.062 123.473H438.358C439.826 124.749 441.549 125.706 443.526 126.344C445.568 126.982 447.514 127.556 449.364 128.066C450.13 128.768 451.087 129.311 452.235 129.693C453.448 130.012 454.596 130.172 455.681 130.172H456.255C456.51 130.172 456.733 130.14 456.925 130.076V130.268C456.925 130.587 457.021 130.81 457.212 130.938C457.403 131.001 457.595 131.065 457.786 131.129C458.041 131.129 458.265 131.193 458.456 131.32C458.711 131.384 458.903 131.512 459.03 131.703H459.987C461.327 131.703 462.603 131.99 463.815 132.564C465.028 133.075 466.304 133.33 467.644 133.33C468.218 133.33 468.664 133.266 468.983 133.139C469.366 133.266 469.653 133.521 469.845 133.904C470.036 134.287 470.291 134.606 470.61 134.861C471.057 134.798 471.472 134.734 471.854 134.67C472.237 134.67 472.62 134.67 473.003 134.67C474.407 134.67 475.715 134.829 476.927 135.148C478.139 135.467 479.383 135.946 480.659 136.584C482.701 135.691 484.711 134.957 486.688 134.383C488.666 133.809 490.772 133.521 493.005 133.521V133.713C493.005 134.479 493.196 135.18 493.579 135.818C494.026 136.52 494.409 137.222 494.728 137.924ZM458.073 61.5527C458.073 60.7871 457.914 60.181 457.595 59.7344C457.34 59.2878 456.989 58.9049 456.542 58.5859C456.095 58.2031 455.617 57.8522 455.106 57.5332C454.66 57.2142 454.245 56.7995 453.862 56.2891C452.203 55.7786 450.576 55.2044 448.981 54.5664C447.386 53.9284 445.759 53.3861 444.101 52.9395C443.271 52.748 442.442 52.5885 441.612 52.4609C440.783 52.2695 439.953 52.1738 439.124 52.1738H437.019C436.636 52.11 436.221 52.0462 435.774 51.9824C435.392 51.8548 435.009 51.7591 434.626 51.6953C433.733 51.5677 432.84 51.472 431.946 51.4082C431.117 51.3444 430.256 51.3125 429.362 51.3125C427.703 51.3125 426.045 51.3763 424.386 51.5039L419.409 51.8867C418.707 51.9505 417.974 51.9824 417.208 51.9824C416.442 51.9824 415.741 52.0462 415.103 52.1738C414.784 52.2376 414.337 52.3971 413.763 52.6523C413.188 52.8438 412.582 53.0671 411.944 53.3223C411.306 53.5137 410.668 53.737 410.03 53.9922C409.456 54.2474 408.946 54.4388 408.499 54.5664C408.563 55.013 408.595 55.4596 408.595 55.9062V57.1504C408.595 58.1074 408.563 59.0645 408.499 60.0215C408.435 60.9785 408.308 61.9355 408.116 62.8926C408.052 63.2754 407.957 63.6582 407.829 64.041C407.701 64.4238 407.606 64.8066 407.542 65.1895C407.414 65.7637 407.351 66.4017 407.351 67.1035V68.9219C407.223 70.3893 407.127 71.8249 407.063 73.2285C407 74.6322 406.904 76.0677 406.776 77.5352C406.394 81.7461 405.979 85.9251 405.532 90.0723C405.149 94.2194 404.894 98.3984 404.767 102.609C406.872 102.163 408.882 101.493 410.796 100.6C412.71 99.7064 414.592 98.7493 416.442 97.7285C418.293 96.6439 420.143 95.5911 421.993 94.5703C423.843 93.5495 425.789 92.6882 427.831 91.9863C428.341 91.2845 428.948 90.7103 429.649 90.2637C430.415 89.8171 431.053 89.2428 431.563 88.541C432.201 88.541 432.68 88.4134 432.999 88.1582C433.318 87.8392 433.733 87.6159 434.243 87.4883C437.306 84.8086 440.432 82.2884 443.622 79.9277C446.812 77.5671 449.875 75.0469 452.81 72.3672C453.065 71.474 453.479 70.6126 454.054 69.7832C454.692 68.89 455.298 67.9967 455.872 67.1035C456.446 66.2103 456.957 65.3171 457.403 64.4238C457.85 63.5306 458.073 62.5736 458.073 61.5527ZM556.839 42.7949C556.328 43.1139 555.786 43.3053 555.212 43.3691C554.638 43.4329 554.032 43.5286 553.394 43.6562C552.819 43.7201 552.277 43.8477 551.767 44.0391C551.256 44.2305 550.873 44.5814 550.618 45.0918C549.98 44.4538 549.278 43.9115 548.513 43.4648C547.747 43.0182 546.981 42.5397 546.216 42.0293C545.578 42.2207 544.94 42.4759 544.302 42.7949C543.664 43.1139 543.026 43.2734 542.388 43.2734C541.941 43.2734 541.494 43.1139 541.048 42.7949C540.537 43.1777 539.931 43.4967 539.229 43.752C538.591 43.9434 537.89 44.1348 537.124 44.3262C536.422 44.5176 535.752 44.7728 535.114 45.0918C534.54 45.4108 534.125 45.8893 533.87 46.5273C533.743 46.2083 533.424 46.1126 532.913 46.2402C532.466 46.3678 532.211 46.2083 532.147 45.7617C530.106 46.4635 528.032 47.0697 525.927 47.5801C523.821 48.0905 521.716 48.6328 519.61 49.207C517.505 49.7812 515.431 50.4193 513.39 51.1211C511.348 51.8229 509.37 52.6842 507.456 53.7051C507.392 53.7689 507.36 53.8646 507.36 53.9922C507.36 54.6302 507.456 55.2363 507.647 55.8105C507.839 56.3848 507.998 56.9271 508.126 57.4375C506.978 61.3294 506.212 65.2852 505.829 69.3047C505.446 73.3242 504.936 77.2799 504.298 81.1719V81.5547C504.298 81.8737 504.425 82.1289 504.681 82.3203C504.936 82.4479 505.063 82.7031 505.063 83.0859L504.968 83.2773C504.649 83.4688 504.425 83.7559 504.298 84.1387C504.17 84.4577 504.106 84.8086 504.106 85.1914C504.106 85.4466 504.17 85.8294 504.298 86.3398C503.213 89.9766 502.479 93.6771 502.097 97.4414C501.778 101.206 501.363 104.97 500.853 108.734L499.991 115.051C499.864 115.434 499.736 115.816 499.608 116.199C499.545 116.518 499.513 116.869 499.513 117.252C499.513 119.294 499.64 121.303 499.896 123.281C500.215 125.195 500.31 127.173 500.183 129.215C500.757 130.108 501.044 130.969 501.044 131.799C501.044 132.118 501.012 132.437 500.948 132.756C500.948 133.075 500.916 133.394 500.853 133.713C501.682 134.542 502.639 135.117 503.724 135.436C504.872 135.818 505.893 136.393 506.786 137.158V137.541C506.786 138.179 506.69 138.785 506.499 139.359C506.308 139.997 506.148 140.635 506.021 141.273C505.893 141.784 505.733 142.518 505.542 143.475C505.414 144.432 505.223 145.07 504.968 145.389C504.649 145.835 504.17 146.218 503.532 146.537C502.958 146.92 502.384 147.111 501.81 147.111C501.618 147.111 501.331 147.016 500.948 146.824C500.629 146.633 500.374 146.473 500.183 146.346C499.864 146.346 499.449 146.505 498.938 146.824C498.428 147.143 497.918 147.303 497.407 147.303C497.152 147.303 496.929 147.271 496.737 147.207C496.546 147.207 496.323 147.143 496.067 147.016C495.812 146.378 495.429 145.803 494.919 145.293C494.472 144.846 493.93 144.4 493.292 143.953C493.356 143.06 493.196 142.39 492.813 141.943C492.431 141.497 492.048 140.923 491.665 140.221C491.537 139.327 491.41 138.307 491.282 137.158C491.218 136.01 490.74 135.18 489.847 134.67C490.166 134.223 490.325 133.617 490.325 132.852C490.325 132.533 490.261 132.182 490.134 131.799C490.07 131.416 489.879 131.129 489.56 130.938V130.746C489.496 130.427 489.591 130.204 489.847 130.076C490.166 129.885 490.325 129.63 490.325 129.311V128.928C489.879 126.886 489.655 124.749 489.655 122.516C489.655 120.41 489.719 118.337 489.847 116.295C489.974 114.189 489.974 112.084 489.847 109.979C490.229 109.66 490.517 109.149 490.708 108.447C490.963 107.745 491.155 106.98 491.282 106.15C491.41 105.321 491.474 104.523 491.474 103.758C491.537 102.928 491.601 102.258 491.665 101.748C491.984 98.1113 492.494 94.5384 493.196 91.0293C493.898 87.4564 494.313 83.8197 494.44 80.1191C494.759 79.6087 494.951 78.9388 495.015 78.1094C495.078 77.2799 495.11 76.4186 495.11 75.5254C495.11 74.5684 495.174 73.6432 495.302 72.75C495.429 71.8568 495.685 71.0911 496.067 70.4531C496.067 68.6667 496.227 66.8802 496.546 65.0938C496.865 63.2435 497.024 61.3932 497.024 59.543C497.024 58.6497 496.929 57.7246 496.737 56.7676C496.099 56.5124 495.525 56.3848 495.015 56.3848C494.313 56.3848 493.579 56.5443 492.813 56.8633C492.112 57.1185 491.601 57.5332 491.282 58.1074C489.879 58.1712 488.507 58.3945 487.167 58.7773C485.827 59.1602 484.487 59.3516 483.147 59.3516H482.19C481.935 59.3516 481.648 59.3197 481.329 59.2559C480.882 59.4473 480.404 59.6068 479.894 59.7344C479.447 59.862 479.256 60.2448 479.319 60.8828C477.341 61.0742 475.396 61.4889 473.481 62.127C471.631 62.765 469.781 63.4668 467.931 64.2324C466.08 64.9342 464.23 65.6042 462.38 66.2422C460.466 66.8802 458.52 67.2949 456.542 67.4863C455.84 67.8053 455.394 68.4753 455.202 69.4961C453.799 69.3685 452.618 69.0176 451.661 68.4434C450.704 67.8691 449.588 67.3268 448.312 66.8164C447.929 65.4766 447.737 64.2005 447.737 62.9883C447.737 61.3932 448.056 59.862 448.694 58.3945C449.332 56.9271 450.353 55.8424 451.757 55.1406C452.076 55.2044 452.363 55.2682 452.618 55.332C452.873 55.332 453.16 55.332 453.479 55.332C454.5 55.332 455.521 55.1406 456.542 54.7578C457.563 54.375 458.616 54.1836 459.7 54.1836C460.019 54.1836 460.37 54.2793 460.753 54.4707C461.2 54.2155 461.774 54.0241 462.476 53.8965C463.114 53.7051 463.72 53.5456 464.294 53.418C464.932 53.2266 465.506 52.9714 466.017 52.6523C466.527 52.3333 466.846 51.8867 466.974 51.3125C467.293 51.5677 467.644 51.7272 468.026 51.791C468.409 51.8548 468.792 51.8867 469.175 51.8867C470.004 51.8867 470.866 51.7272 471.759 51.4082C472.652 51.0892 473.354 50.5788 473.864 49.877C474.311 50.3874 474.949 50.6426 475.778 50.6426C476.672 50.6426 477.533 50.4193 478.362 49.9727C479.256 49.4622 480.117 49.207 480.946 49.207C481.584 49.207 482.063 49.4303 482.382 49.877C483.084 49.3027 483.913 48.8561 484.87 48.5371C485.827 48.2181 486.784 47.931 487.741 47.6758C488.762 47.4206 489.687 47.1335 490.517 46.8145C491.41 46.4954 492.112 46.0488 492.622 45.4746C492.941 45.5384 493.451 45.5703 494.153 45.5703C495.238 45.5703 496.259 45.4427 497.216 45.1875C498.237 44.8685 499.257 44.5814 500.278 44.3262L502.288 44.1348C502.799 44.071 503.245 43.9115 503.628 43.6562C504.075 43.401 504.521 43.1777 504.968 42.9863C505.414 42.7949 505.861 42.6354 506.308 42.5078C506.818 42.3802 507.424 42.3483 508.126 42.4121C509.657 41.5827 511.284 40.9447 513.007 40.498C514.729 40.0514 516.484 39.6686 518.271 39.3496C520.057 38.9668 521.812 38.5521 523.534 38.1055C525.257 37.5951 526.884 36.8613 528.415 35.9043H528.702C529.978 35.9043 531.222 35.681 532.435 35.2344C533.711 34.7878 534.891 34.1816 535.976 33.416C536.167 33.4798 536.358 33.5117 536.55 33.5117H537.22C539.006 33.5117 540.729 33.2565 542.388 32.7461C544.11 32.2357 545.897 31.9805 547.747 31.9805C548.832 31.9805 549.693 32.14 550.331 32.459C550.969 32.7142 551.543 33.0651 552.054 33.5117C552.564 33.8945 553.106 34.2773 553.681 34.6602C554.255 35.043 554.989 35.3301 555.882 35.5215C556.456 36.6061 556.743 37.7865 556.743 39.0625C556.743 40.2747 556.775 41.5189 556.839 42.7949ZM626.511 80.502C626.511 84.1387 626.256 87.6797 625.745 91.125C625.299 94.5065 624.629 97.9518 623.735 101.461C622.906 102.099 622.396 102.896 622.204 103.854C622.013 104.811 621.694 105.704 621.247 106.533C620.864 107.235 620.354 108.001 619.716 108.83C619.078 109.596 618.376 110.425 617.61 111.318C616.845 112.148 616.079 113.009 615.313 113.902C614.548 114.796 613.91 115.689 613.399 116.582C611.485 117.22 610.114 118.592 609.284 120.697C608.263 121.08 607.211 121.527 606.126 122.037C605.041 122.484 604.276 123.281 603.829 124.43C601.468 125.642 599.235 127.046 597.13 128.641C595.088 130.172 592.855 131.512 590.431 132.66C590.112 132.979 589.729 133.234 589.282 133.426C588.899 133.553 588.485 133.713 588.038 133.904C587.655 134.096 587.272 134.319 586.89 134.574C586.571 134.893 586.379 135.276 586.315 135.723C586.06 135.723 585.869 135.659 585.741 135.531C585.677 135.467 585.486 135.404 585.167 135.34C584.465 135.723 584.146 136.329 584.21 137.158C583.955 137.031 583.604 136.967 583.157 136.967C582.392 136.967 581.626 137.19 580.86 137.637C580.159 138.147 579.552 138.658 579.042 139.168C578.276 139.551 577.383 139.934 576.362 140.316C575.405 140.699 574.703 141.337 574.257 142.23C574.002 141.975 573.619 141.848 573.108 141.848C572.534 141.848 571.928 142.007 571.29 142.326C570.652 142.709 570.174 143.124 569.854 143.57C568.961 143.57 568.1 143.698 567.271 143.953C566.505 144.272 565.707 144.559 564.878 144.814C564.049 145.133 563.219 145.421 562.39 145.676C561.624 145.931 560.795 146.059 559.901 146.059C559.391 146.059 559.008 145.931 558.753 145.676C558.498 145.421 558.179 145.197 557.796 145.006C557.477 145.261 556.903 145.548 556.073 145.867C555.308 146.186 554.733 146.346 554.351 146.346C553.649 146.346 552.947 146.25 552.245 146.059C551.607 145.867 550.937 145.644 550.235 145.389L548.226 144.719C547.588 144.527 546.886 144.4 546.12 144.336C545.546 143.826 544.844 143.283 544.015 142.709C543.249 142.199 542.483 142.039 541.718 142.23C541.399 141.273 540.92 140.444 540.282 139.742C539.644 139.04 538.91 138.402 538.081 137.828C537.89 137.701 537.666 137.573 537.411 137.445C537.22 137.382 537.06 137.286 536.933 137.158C536.614 136.967 536.326 136.584 536.071 136.01C535.816 135.436 535.529 135.148 535.21 135.148C535.146 135.148 535.05 135.18 534.923 135.244C534.859 135.308 534.795 135.34 534.731 135.34C534.604 134.766 534.412 134.223 534.157 133.713C533.902 133.139 533.455 132.788 532.817 132.66C532.307 131.001 531.956 129.342 531.765 127.684C531.573 126.025 531.318 124.366 530.999 122.707C530.871 122.197 530.712 121.59 530.521 120.889C530.393 120.123 530.329 119.453 530.329 118.879C530.329 117.922 530.457 116.773 530.712 115.434C531.031 114.094 531.286 112.913 531.478 111.893C532.243 108.192 533.264 104.619 534.54 101.174C535.816 97.6647 537.188 94.1875 538.655 90.7422C540.187 87.2969 541.75 83.8835 543.345 80.502C544.94 77.1204 546.439 73.6751 547.843 70.166C548.098 70.166 548.257 70.1022 548.321 69.9746L548.608 69.4961C548.736 69.3047 548.832 69.1452 548.896 69.0176C549.023 68.89 549.246 68.8262 549.565 68.8262V68.5391C549.502 68.1562 549.565 67.8372 549.757 67.582C550.012 67.3268 550.076 66.9121 549.948 66.3379C550.969 65.1895 551.83 63.9134 552.532 62.5098C553.234 61.0423 553.936 59.6068 554.638 58.2031C555.403 56.7995 556.201 55.4277 557.03 54.0879C557.86 52.748 558.912 51.5996 560.188 50.6426V49.9727C560.125 49.6536 560.125 49.3346 560.188 49.0156C560.316 48.6328 560.539 48.3776 560.858 48.25C562.007 47.1016 562.964 45.9531 563.729 44.8047C564.495 43.6562 565.261 42.5397 566.026 41.4551C566.856 40.3066 567.749 39.2539 568.706 38.2969C569.727 37.276 571.003 36.3509 572.534 35.5215C573.236 35.2025 573.746 34.724 574.065 34.0859C574.384 33.4479 574.799 33.0013 575.31 32.7461C575.565 32.6185 575.82 32.5547 576.075 32.5547C576.394 32.4909 576.681 32.3952 576.937 32.2676C578.021 31.9486 579.106 31.5658 580.19 31.1191C581.275 30.6087 582.424 30.3535 583.636 30.3535C585.167 30.3535 586.315 30.8001 587.081 31.6934C587.91 32.5228 588.549 33.5436 588.995 34.7559C589.506 35.9681 589.92 37.2441 590.239 38.584C590.558 39.9238 591.069 41.0723 591.771 42.0293C593.685 42.1569 595.631 42.3802 597.608 42.6992C599.586 42.9544 601.309 43.752 602.776 45.0918C602.904 45.1556 603.063 45.1875 603.255 45.1875C603.574 45.1875 603.733 45.0599 603.733 44.8047C603.733 44.5495 603.893 44.4219 604.212 44.4219H604.499C606.413 45.5703 608.231 46.8464 609.954 48.25C611.741 49.5898 613.495 50.9935 615.218 52.4609C615.537 52.7161 615.856 52.9714 616.175 53.2266C616.558 53.418 616.877 53.6732 617.132 53.9922C617.451 54.375 617.738 54.8216 617.993 55.332C618.312 55.8424 618.599 56.2891 618.854 56.6719C622.045 62.2227 624.182 68.1882 625.267 74.5684C625.394 75.2702 625.49 75.9401 625.554 76.5781C625.681 77.2161 625.745 77.8223 625.745 78.3965C625.745 78.9707 625.873 79.3535 626.128 79.5449C626.383 79.6725 626.511 79.9915 626.511 80.502ZM619.142 85.3828C619.142 82.8307 618.823 80.3743 618.185 78.0137C618.504 77.8861 618.695 77.6947 618.759 77.4395C618.886 77.1204 618.95 76.8014 618.95 76.4824V76.0039L617.802 73.8984C617.738 73.0052 617.547 72.1758 617.228 71.4102C616.972 70.6445 616.653 69.8789 616.271 69.1133C615.888 68.3477 615.505 67.582 615.122 66.8164C614.803 66.0508 614.58 65.2214 614.452 64.3281C613.431 63.5625 612.506 62.7012 611.677 61.7441C610.911 60.7233 610.209 59.6706 609.571 58.5859C609.125 58.3945 608.71 58.2669 608.327 58.2031C607.944 58.1393 607.817 57.7884 607.944 57.1504C606.796 56.8314 605.743 56.3848 604.786 55.8105C603.893 55.1725 603 54.4707 602.106 53.7051C600.639 53.3861 599.172 53.0033 597.704 52.5566C596.3 52.0462 594.865 51.791 593.397 51.791C592.377 51.791 591.388 51.9824 590.431 52.3652C590.75 52.8757 590.909 53.4499 590.909 54.0879C590.909 54.6621 590.973 55.2363 591.101 55.8105C593.142 56.321 594.386 57.5651 594.833 59.543C594.514 59.7344 594.227 59.9896 593.972 60.3086C593.716 60.5638 593.461 60.819 593.206 61.0742C593.015 61.2656 592.759 61.457 592.44 61.6484C592.121 61.8398 591.739 61.9355 591.292 61.9355C590.399 61.9355 589.697 61.776 589.187 61.457C588.74 61.138 588.006 61.0742 586.985 61.2656C585.901 60.3086 584.848 59.3197 583.827 58.2988C582.806 57.2142 581.658 56.2572 580.382 55.4277C580.19 54.7897 579.871 54.2155 579.425 53.7051C579.042 53.1947 578.627 52.7161 578.181 52.2695C577.798 51.7591 577.415 51.2487 577.032 50.7383C576.713 50.1641 576.554 49.526 576.554 48.8242C576.554 48.3776 576.586 48.0586 576.649 47.8672C576.267 47.7396 575.979 47.6758 575.788 47.6758C575.278 47.6758 574.799 47.8672 574.353 48.25C573.906 48.569 573.396 48.7923 572.821 48.9199C572.311 50.4512 571.577 51.791 570.62 52.9395C569.663 54.0879 568.674 55.2044 567.653 56.2891C566.632 57.3737 565.675 58.5221 564.782 59.7344C563.953 60.8828 563.347 62.3184 562.964 64.041C560.922 66.5931 559.04 69.4961 557.317 72.75C555.595 75.9401 554.287 79.0664 553.394 82.1289C551.926 83.7878 550.778 85.5423 549.948 87.3926C549.119 89.2428 548.64 91.2845 548.513 93.5176C548.194 93.709 547.938 93.9642 547.747 94.2832L546.79 96.1973C546.662 96.5163 546.439 96.7715 546.12 96.9629V97.4414C546.12 97.9518 546.024 98.4303 545.833 98.877C545.642 99.2598 545.418 99.6426 545.163 100.025C544.972 100.408 544.78 100.791 544.589 101.174C544.397 101.493 544.302 101.876 544.302 102.322C544.302 102.833 544.429 103.343 544.685 103.854C543.983 103.981 543.504 104.364 543.249 105.002C543.058 105.576 542.771 106.087 542.388 106.533C542.132 108.575 541.877 110.648 541.622 112.754C541.367 114.859 541.239 116.933 541.239 118.975C541.239 121.335 541.494 123.728 542.005 126.152C542.579 126.727 543.09 127.365 543.536 128.066C543.983 128.768 544.429 129.438 544.876 130.076C545.386 130.714 545.929 131.288 546.503 131.799C547.077 132.245 547.843 132.533 548.8 132.66C548.8 133.107 548.896 133.426 549.087 133.617C549.278 133.809 549.438 134.064 549.565 134.383C550.905 134.829 552.309 135.18 553.776 135.436C555.244 135.755 556.711 135.914 558.179 135.914C559.2 135.914 560.22 135.786 561.241 135.531C562.326 135.276 563.219 134.766 563.921 134C567.175 133.872 570.397 133.107 573.587 131.703C576.841 130.299 579.808 128.768 582.487 127.109H584.497C585.199 126.152 586.06 125.387 587.081 124.812C588.102 124.174 589.155 123.6 590.239 123.09C590.431 122.962 590.686 122.835 591.005 122.707C591.324 122.579 591.579 122.452 591.771 122.324C592.472 121.814 593.174 121.24 593.876 120.602C594.642 119.964 595.407 119.357 596.173 118.783C597.449 117.826 598.757 116.901 600.097 116.008C601.437 115.115 602.713 114.158 603.925 113.137C605.201 112.116 606.381 111.031 607.466 109.883C608.614 108.671 609.571 107.331 610.337 105.863C610.72 105.863 611.007 105.768 611.198 105.576C611.453 105.321 611.645 105.066 611.772 104.811C611.964 104.555 612.155 104.332 612.347 104.141C612.602 103.949 612.953 103.854 613.399 103.854C613.399 103.279 613.495 102.801 613.687 102.418C613.942 101.971 614.197 101.589 614.452 101.27C614.771 100.887 615.058 100.536 615.313 100.217C615.632 99.8978 615.92 99.4831 616.175 98.9727V96.293C617.196 94.6341 617.929 92.8796 618.376 91.0293C618.886 89.179 619.142 87.2969 619.142 85.3828ZM657.901 66.0508C657.901 66.8802 657.71 67.4225 657.327 67.6777C656.944 67.8691 656.689 68.252 656.562 68.8262C656.37 69.5918 656.179 70.3893 655.987 71.2188C655.86 72.0482 655.668 72.8457 655.413 73.6113C654.137 77.5033 652.319 80.8848 649.958 83.7559C647.661 86.627 645.173 89.5299 642.493 92.4648C641.6 92.6562 640.771 92.752 640.005 92.752C639.175 92.752 638.474 92.5924 637.899 92.2734C637.325 91.9544 636.687 91.5397 635.985 91.0293C635.922 90.5827 635.858 90.168 635.794 89.7852C635.794 89.3385 635.794 88.8919 635.794 88.4453V86.7227C635.794 86.0208 635.858 85.4147 635.985 84.9043C636.113 84.2663 636.4 83.7559 636.847 83.373C637.293 82.9902 637.549 82.3522 637.612 81.459C637.74 81.5228 637.899 81.5547 638.091 81.5547C638.346 81.5547 638.569 81.459 638.761 81.2676C638.952 81.0762 639.175 81.0443 639.431 81.1719C642.748 76.2591 645.173 70.8678 646.704 64.998C646.449 63.9134 646.162 62.8607 645.843 61.8398C645.588 60.819 645.173 59.8301 644.599 58.873C644.981 58.2988 645.237 57.6608 645.364 56.959C645.556 56.1934 645.779 55.4915 646.034 54.8535C646.353 54.1517 646.8 53.5775 647.374 53.1309C648.012 52.6204 648.937 52.3652 650.149 52.3652C651.362 52.3652 652.574 52.6842 653.786 53.3223C654.998 53.8965 656.051 54.5983 656.944 55.4277C656.881 55.5553 656.849 55.7786 656.849 56.0977C656.849 56.7995 657.008 57.4056 657.327 57.916C657.71 58.3626 657.901 58.9049 657.901 59.543C657.901 60.181 657.806 60.819 657.614 61.457C657.487 62.0951 657.423 62.765 657.423 63.4668C657.423 63.9772 657.487 64.4876 657.614 64.998C657.806 65.5085 657.901 65.8594 657.901 66.0508ZM714.749 121.941C714.749 123.026 714.462 123.983 713.888 124.812C713.377 125.578 713.186 126.535 713.313 127.684C712.42 128.194 711.687 128.864 711.112 129.693C710.538 130.523 709.996 131.384 709.485 132.277C705.274 135.021 700.744 137.222 695.896 138.881C691.11 140.604 686.166 141.465 681.062 141.465C680.743 141.465 680.455 141.305 680.2 140.986C679.945 140.731 679.69 140.444 679.435 140.125C679.179 139.806 678.892 139.487 678.573 139.168C678.318 138.913 677.999 138.785 677.616 138.785C677.17 138.785 676.819 138.881 676.563 139.072C676.563 138.945 676.563 138.817 676.563 138.689C676.627 138.626 676.659 138.53 676.659 138.402C676.659 137.637 676.563 136.839 676.372 136.01C676.181 135.244 676.085 134.479 676.085 133.713C676.085 132.82 676.244 132.086 676.563 131.512H677.712C678.35 131.512 678.956 131.48 679.53 131.416C680.168 131.288 680.838 131.225 681.54 131.225C682.242 131.225 682.88 131.416 683.454 131.799C686.963 131.671 690.281 131.033 693.407 129.885C696.597 128.673 699.819 127.492 703.073 126.344C703.584 125.642 703.871 124.876 703.935 124.047C704.062 123.154 704.317 122.324 704.7 121.559C703.041 120.155 701.351 119.07 699.628 118.305C697.969 117.475 696.023 117.188 693.79 117.443C692.45 116.614 691.015 116.135 689.483 116.008C688.016 115.88 686.517 115.689 684.985 115.434C684.603 115.37 684.188 115.306 683.741 115.242C683.358 115.115 682.944 115.051 682.497 115.051C682.178 115.051 681.859 115.146 681.54 115.338C681.285 115.465 681.221 115.689 681.349 116.008C681.03 115.497 680.583 115.21 680.009 115.146C679.498 115.019 679.052 114.764 678.669 114.381C676.627 114.253 674.841 113.902 673.31 113.328C671.778 112.69 670.088 111.988 668.237 111.223C667.727 111.031 667.216 110.904 666.706 110.84C666.259 110.712 665.813 110.521 665.366 110.266C664.218 109.691 663.293 108.926 662.591 107.969C661.889 107.012 661.347 105.959 660.964 104.811C660.517 103.598 660.198 102.354 660.007 101.078C659.815 99.8021 659.624 98.6217 659.433 97.5371C660.007 96.5163 660.549 95.4635 661.06 94.3789C661.506 93.2943 661.889 92.1458 662.208 90.9336C662.591 90.7422 662.974 90.5827 663.356 90.4551C663.739 90.3275 664.154 90.168 664.601 89.9766C664.537 89.849 664.505 89.6895 664.505 89.498C664.505 89.179 664.601 88.86 664.792 88.541C665.047 88.222 665.111 87.903 664.983 87.584C666.387 86.3079 667.727 85 669.003 83.6602C670.343 82.2565 671.491 80.7253 672.448 79.0664C673.405 78.7474 674.171 78.2689 674.745 77.6309C675.319 76.9928 675.894 76.3548 676.468 75.7168C677.042 75.015 677.68 74.4089 678.382 73.8984C679.084 73.3242 679.977 72.9733 681.062 72.8457C681.317 72.3991 681.668 72.0482 682.114 71.793C682.561 71.474 683.007 71.1868 683.454 70.9316C683.901 70.6764 684.315 70.3893 684.698 70.0703C685.081 69.7513 685.368 69.3047 685.56 68.7305C686.58 68.7305 687.506 68.5391 688.335 68.1562C689.228 67.7734 690.09 67.3587 690.919 66.9121C691.748 66.4655 692.578 66.0508 693.407 65.668C694.3 65.2852 695.257 65.0938 696.278 65.0938C696.534 65.0938 696.789 65.1257 697.044 65.1895C697.299 65.1895 697.586 65.2214 697.905 65.2852C698.352 65.7318 698.639 66.2741 698.767 66.9121C698.958 67.4863 699.086 68.1243 699.149 68.8262C699.213 69.528 699.245 70.2298 699.245 70.9316C699.309 71.6335 699.437 72.2715 699.628 72.8457C699.054 73.9303 698.416 75.015 697.714 76.0996C697.076 77.1842 696.215 78.0137 695.13 78.5879H694.938C694.492 78.6517 694.077 78.556 693.694 78.3008C693.312 78.0456 692.865 77.918 692.354 77.918C692.035 77.918 691.78 78.0137 691.589 78.2051L691.11 78.6836C690.983 78.8112 690.791 78.9388 690.536 79.0664C690.345 79.194 690.058 79.194 689.675 79.0664C688.782 79.3854 688.431 79.9277 688.622 80.6934C687.41 80.821 686.389 81.2038 685.56 81.8418C684.73 82.416 683.965 83.0859 683.263 83.8516C682.561 84.5534 681.859 85.2233 681.157 85.8613C680.455 86.4355 679.626 86.7546 678.669 86.8184C677.584 88.7324 676.244 90.4232 674.649 91.8906C673.118 93.3581 671.842 95.0169 670.821 96.8672C671.013 97.3776 671.14 97.9199 671.204 98.4941C671.268 99.0684 671.364 99.6745 671.491 100.312C672.065 101.078 672.735 101.748 673.501 102.322C674.33 102.896 675.128 103.471 675.894 104.045H676.181C677.457 104.045 678.637 104.3 679.722 104.811C680.806 105.257 681.955 105.48 683.167 105.48C683.805 105.48 684.347 105.353 684.794 105.098C686.453 105.48 688.08 105.799 689.675 106.055C691.334 106.31 692.993 106.501 694.651 106.629C695.481 106.757 696.31 106.82 697.14 106.82C698.033 106.82 698.862 106.916 699.628 107.107C700.33 107.299 701.032 107.554 701.733 107.873C702.435 108.128 703.137 108.415 703.839 108.734C705.306 109.372 706.678 110.074 707.954 110.84C709.294 111.605 710.474 112.531 711.495 113.615C712.516 114.636 713.313 115.848 713.888 117.252C714.462 118.592 714.749 120.155 714.749 121.941Z" fill="black"/>
</g>
<defs>
<clipPath id="clip0_2_2">
<rect width="727" height="200" fill="white"/>
</clipPath>
</defs>
</svg>
