<svg width="500" height="200" viewBox="0 0 500 200" fill="none" xmlns="http://www.w3.org/2000/svg">
<g clip-path="url(#clip0_2_2)">
<path d="M152.883 95.4023C152.755 96.168 152.532 97.0293 152.213 97.9863C151.958 98.9434 151.575 99.8366 151.064 100.666C150.618 101.432 150.044 102.102 149.342 102.676C148.64 103.186 147.811 103.441 146.854 103.441C146.152 103.441 145.45 103.378 144.748 103.25C144.046 103.059 143.312 102.963 142.547 102.963C142.228 102.963 141.877 103.09 141.494 103.346C141.175 103.537 140.856 103.633 140.537 103.633C140.218 103.633 139.931 103.601 139.676 103.537C139.484 103.41 139.229 103.346 138.91 103.346C138.719 103.346 138.368 103.41 137.857 103.537C137.347 103.665 136.805 103.792 136.23 103.92C135.656 104.048 135.114 104.207 134.604 104.398C134.093 104.526 133.742 104.622 133.551 104.686C131.828 105.26 130.105 105.77 128.383 106.217C126.66 106.663 124.874 106.951 123.023 107.078C122.641 106.951 122.066 106.823 121.301 106.695C120.535 106.504 119.961 106.408 119.578 106.408C118.812 106.408 118.302 106.727 118.047 107.365C117.855 108.003 117.441 108.482 116.803 108.801C116.037 109.247 115.08 109.503 113.932 109.566C112.783 109.63 111.635 109.726 110.486 109.854C109.338 109.981 108.253 110.236 107.232 110.619C106.275 110.938 105.574 111.576 105.127 112.533C104.808 112.469 104.457 112.438 104.074 112.438C103.755 112.374 103.404 112.342 103.021 112.342C100.98 112.342 99.0658 112.757 97.2793 113.586C95.4928 114.352 93.6745 115.053 91.8242 115.691C92.1432 116.266 92.3665 116.967 92.4941 117.797C92.6217 118.626 92.7493 119.456 92.877 120.285C93.0046 121.051 93.1641 121.816 93.3555 122.582C93.6107 123.284 94.0254 123.826 94.5996 124.209C94.5996 124.592 94.5039 124.911 94.3125 125.166C94.1849 125.421 94.0254 125.645 93.834 125.836L93.1641 126.506C92.9727 126.697 92.8451 126.984 92.7812 127.367C92.5898 128.133 92.4941 128.93 92.4941 129.76C92.4941 130.525 92.0475 131.1 91.1543 131.482C91.2181 131.674 91.25 132.025 91.25 132.535C91.25 133.173 91.1543 133.779 90.9629 134.354C90.7715 134.928 90.7077 135.566 90.7715 136.268C89.6868 137.48 88.7617 138.724 87.9961 140C87.2943 141.276 86.752 142.648 86.3691 144.115C84.0085 146.476 81.584 148.837 79.0957 151.197C76.6712 153.622 74.151 155.951 71.5352 158.184C68.9831 160.417 66.3353 162.522 63.5918 164.5C60.8483 166.542 58.0091 168.328 55.0742 169.859H54.4043C52.9368 169.859 51.7884 170.115 50.959 170.625C50.1296 171.135 49.0768 171.582 47.8008 171.965C46.8438 171.71 45.6953 171.582 44.3555 171.582C43.5898 171.582 42.7923 171.614 41.9629 171.678C41.1973 171.742 40.3997 171.773 39.5703 171.773C38.4857 171.773 37.4967 171.646 36.6035 171.391C35.7741 171.135 34.9447 170.848 34.1152 170.529C33.3496 170.21 32.5521 169.891 31.7227 169.572C30.8932 169.253 30 169.03 29.043 168.902C25.0872 164.947 21.9609 160.321 19.6641 155.025C17.3672 149.794 16.2188 144.402 16.2188 138.852C16.2188 136.299 16.5697 133.811 17.2715 131.387C17.9733 128.898 18.3242 126.41 18.3242 123.922C19.4727 121.625 20.4616 119.264 21.291 116.84C22.1842 114.415 23.0775 111.991 23.9707 109.566C24.8639 107.142 25.821 104.781 26.8418 102.484C27.9264 100.124 29.2025 97.8906 30.6699 95.7852C30.9889 94.1263 31.4993 92.6908 32.2012 91.4785C32.903 90.2663 33.6686 88.9264 34.498 87.459C34.498 86.0553 34.7852 84.7793 35.3594 83.6309C35.9974 82.4186 36.3802 81.0788 36.5078 79.6113C37.5286 78.6543 38.3581 77.5697 38.9961 76.3574C39.6341 75.1452 40.2402 73.901 40.8145 72.625C41.3887 71.349 42.0267 70.1367 42.7285 68.9883C43.4941 67.776 44.515 66.7552 45.791 65.9258C45.9186 65.4792 45.9824 65.0007 45.9824 64.4902C46.0462 63.916 46.2057 63.4694 46.4609 63.1504L48.4707 60.9492C49.1087 60.1198 49.6829 59.2904 50.1934 58.4609C50.7676 57.5677 51.3737 56.7702 52.0117 56.0684C52.3945 55.6855 52.8092 55.3665 53.2559 55.1113C53.7025 54.8561 54.0853 54.569 54.4043 54.25C54.7233 53.931 54.819 53.5163 54.6914 53.0059C54.6276 52.4954 54.7552 52.0807 55.0742 51.7617C55.2018 51.6341 55.3932 51.5065 55.6484 51.3789C55.9036 51.2513 56.127 51.1237 56.3184 50.9961C57.1478 50.4219 57.8496 49.8477 58.4238 49.2734C58.998 48.6992 59.7956 48.2845 60.8164 48.0293C61.7096 47.3275 62.5072 46.6257 63.209 45.9238C63.9746 45.222 64.7402 44.584 65.5059 44.0098C66.2715 43.4355 67.1009 42.9889 67.9941 42.6699C68.8874 42.2871 70.0039 42.0957 71.3438 42.0957C71.599 42.0957 71.8542 42.1276 72.1094 42.1914C72.3646 42.1914 72.6198 42.1914 72.875 42.1914C75.4909 44.6159 77.1178 47.5827 77.7559 51.0918C77.054 51.985 76.4798 52.9421 76.0332 53.9629C75.6504 54.9837 75.2038 56.0046 74.6934 57.0254C73.6087 57.4082 72.5879 57.9824 71.6309 58.748C70.6738 59.4499 69.7168 60.1836 68.7598 60.9492C67.8665 61.7148 66.9095 62.3848 65.8887 62.959C64.9316 63.5332 63.847 63.8203 62.6348 63.8203C62.1243 64.2669 61.2949 65.0007 60.1465 66.0215C59.0618 66.9785 57.9134 67.9993 56.7012 69.084C55.5527 70.1686 54.4681 71.1895 53.4473 72.1465C52.4902 73.1035 51.8841 73.7734 51.6289 74.1562C51.4375 74.4753 51.278 74.7624 51.1504 75.0176C51.0228 75.2728 50.8952 75.5599 50.7676 75.8789L48.2793 80.0898C46.8757 82.5143 45.4401 84.9069 43.9727 87.2676C42.5052 89.5645 41.2292 91.9889 40.1445 94.541C39.6341 95.6895 39.2194 96.8379 38.9004 97.9863C38.5814 99.1348 38.2624 100.347 37.9434 101.623C37.8158 102.006 37.6562 102.389 37.4648 102.771C37.2734 103.154 37.1139 103.505 36.9863 103.824C36.2845 105.164 35.7103 106.408 35.2637 107.557C34.8171 108.705 34.5618 110.045 34.498 111.576C32.903 115.149 31.4036 118.754 30 122.391C28.6602 125.964 27.6393 129.664 26.9375 133.492C27.3203 134.768 27.4798 136.076 27.416 137.416C27.416 138.692 27.416 139.968 27.416 141.244C27.416 142.839 27.5117 144.147 27.7031 145.168C27.9583 146.253 28.2773 147.21 28.6602 148.039C29.1068 148.932 29.5853 149.826 30.0957 150.719C30.6061 151.676 31.1484 152.792 31.7227 154.068C32.6797 154.834 33.541 155.632 34.3066 156.461C35.0723 157.354 35.806 158.311 36.5078 159.332C38.9323 160.544 41.3887 161.15 43.877 161.15C45.6634 161.15 47.4818 160.863 49.332 160.289C51.1823 159.715 52.9688 158.981 54.6914 158.088C56.4779 157.258 58.2005 156.333 59.8594 155.312C61.5182 154.292 63.1133 153.303 64.6445 152.346C67.3242 150.751 69.653 149.028 71.6309 147.178C73.6087 145.327 75.3952 143.382 76.9902 141.34C78.6491 139.298 80.1803 137.129 81.584 134.832C82.9876 132.471 84.4551 129.983 85.9863 127.367C86.0501 127.048 86.1777 126.665 86.3691 126.219L86.9434 124.783C87.1348 124.273 87.2943 123.826 87.4219 123.443C87.6133 122.997 87.709 122.71 87.709 122.582C87.709 122.072 87.5814 121.721 87.3262 121.529C87.1348 121.274 87.0391 121.019 87.0391 120.764C87.0391 120.253 87.1667 119.902 87.4219 119.711C87.6771 119.52 87.9642 119.328 88.2832 119.137C88.666 118.945 88.985 118.722 89.2402 118.467C89.5592 118.212 89.7188 117.733 89.7188 117.031C89.5911 116.967 89.3678 116.936 89.0488 116.936C88.7298 116.936 88.4108 116.967 88.0918 117.031C87.7728 117.095 87.4538 117.127 87.1348 117.127C86.3691 117.127 85.7311 116.872 85.2207 116.361C84.9017 116.489 84.5827 116.712 84.2637 117.031C83.9447 117.286 83.6257 117.574 83.3066 117.893C83.0514 118.212 82.7962 118.499 82.541 118.754C82.2858 119.009 82.0625 119.137 81.8711 119.137C81.5521 119.137 81.2969 119.073 81.1055 118.945C80.9779 118.818 80.7865 118.754 80.5312 118.754C79.4466 118.754 78.4896 119.009 77.6602 119.52C76.8307 120.03 75.9375 120.445 74.9805 120.764C74.7891 120.764 74.5977 120.764 74.4062 120.764C74.2148 120.7 74.0234 120.668 73.832 120.668C73.1302 120.668 72.4284 120.796 71.7266 121.051C71.0885 121.242 70.4505 121.465 69.8125 121.721C69.2383 121.976 68.6322 122.199 67.9941 122.391C67.3561 122.582 66.7181 122.646 66.0801 122.582C64.6764 123.092 63.3685 123.635 62.1562 124.209C61.0078 124.783 59.668 125.007 58.1367 124.879C57.6901 125.07 57.2116 125.294 56.7012 125.549C56.2546 125.74 55.8079 125.995 55.3613 126.314C54.9785 126.442 54.6914 126.506 54.5 126.506C54.181 126.506 53.9258 126.346 53.7344 126.027C53.224 126.602 52.554 127.016 51.7246 127.271C50.8952 127.463 50.0339 127.654 49.1406 127.846C48.2474 127.973 47.3861 128.165 46.5566 128.42C45.791 128.611 45.1849 129.026 44.7383 129.664C44.0365 129.09 43.207 128.803 42.25 128.803C41.293 128.803 40.3678 128.994 39.4746 129.377C38.5814 129.696 37.6243 129.855 36.6035 129.855C36.2207 129.855 35.9655 129.792 35.8379 129.664C35.5827 128.962 35.2956 128.26 34.9766 127.559C34.6576 126.857 34.1471 126.346 33.4453 126.027C33.3177 125.326 33.1901 124.656 33.0625 124.018C32.9987 123.316 32.9668 122.646 32.9668 122.008C32.9668 120.285 33.4772 118.722 34.498 117.318C35.3913 116.999 36.2845 116.744 37.1777 116.553C38.1348 116.298 39.0599 116.01 39.9531 115.691C40.6549 115.819 41.3568 115.915 42.0586 115.979C42.7604 116.042 43.4622 116.074 44.1641 116.074C46.7799 116.074 49.332 115.755 51.8203 115.117C54.3086 114.415 56.765 113.682 59.1895 112.916C61.4863 112.214 63.8151 111.576 66.1758 111.002C68.5365 110.428 70.8971 109.79 73.2578 109.088C75.4909 108.514 77.6921 107.876 79.8613 107.174C82.0306 106.408 84.2956 105.93 86.6562 105.738C88.1875 104.654 90.0378 103.92 92.207 103.537C94.4401 103.154 96.4818 102.74 98.332 102.293C101.267 101.591 104.17 100.889 107.041 100.188C109.912 99.4219 112.847 98.752 115.846 98.1777C119.163 97.4759 122.385 96.6146 125.512 95.5938C128.702 94.5729 131.892 93.4883 135.082 92.3398H136.039C137.124 92.3398 138.24 92.2122 139.389 91.957C140.537 91.7018 141.686 91.5742 142.834 91.5742C143.153 91.5742 143.408 91.6061 143.6 91.6699C143.855 91.6699 144.11 91.6699 144.365 91.6699C144.557 91.6699 145.035 91.5423 145.801 91.2871C146.566 90.9681 147.109 90.7448 147.428 90.6172C148.257 91.5104 149.182 92.3079 150.203 93.0098C151.224 93.7116 152.117 94.5091 152.883 95.4023ZM183.221 133.014C183.029 133.907 182.615 134.641 181.977 135.215C181.402 135.725 180.701 136.14 179.871 136.459C179.042 136.778 178.18 137.001 177.287 137.129C176.458 137.193 175.692 137.225 174.99 137.225C174.671 137.225 174.352 137.225 174.033 137.225C173.778 137.161 173.491 137.129 173.172 137.129C172.853 137.129 172.693 137.288 172.693 137.607C172.693 137.926 172.534 138.15 172.215 138.277C171.896 138.15 171.577 138.054 171.258 137.99C170.939 137.926 170.62 137.895 170.301 137.895C169.854 137.895 169.408 137.926 168.961 137.99C168.578 138.054 168.195 138.086 167.812 138.086C167.302 138.086 166.919 138.022 166.664 137.895C166.473 137.767 166.281 137.639 166.09 137.512C165.962 137.32 165.803 137.129 165.611 136.938C165.484 136.746 165.26 136.587 164.941 136.459C164.495 136.268 164.112 136.236 163.793 136.363C163.538 136.491 163.123 136.299 162.549 135.789C161.783 135.151 161.113 134.385 160.539 133.492C160.029 132.535 159.518 131.546 159.008 130.525C158.497 129.505 157.955 128.484 157.381 127.463C156.807 126.442 156.137 125.549 155.371 124.783H154.605C153.457 124.783 152.66 125.262 152.213 126.219C151.894 126.027 151.575 125.804 151.256 125.549C150.937 125.23 150.586 124.975 150.203 124.783C148.736 125.23 147.204 125.613 145.609 125.932C144.014 126.251 142.419 126.41 140.824 126.41H139.484C139.102 126.41 138.687 126.346 138.24 126.219C137.602 126.474 137.028 126.793 136.518 127.176C136.007 127.495 135.433 127.654 134.795 127.654C134.412 127.654 133.965 127.527 133.455 127.271C133.072 127.271 132.881 127.431 132.881 127.75C132.945 128.069 132.753 128.229 132.307 128.229H131.445C130.552 128.229 129.659 128.26 128.766 128.324C127.936 128.388 127.075 128.42 126.182 128.42C124.969 128.42 123.725 128.26 122.449 127.941C122.13 128.133 121.779 128.229 121.396 128.229C121.141 128.356 120.95 128.579 120.822 128.898C120.695 129.154 120.567 129.409 120.439 129.664C120.312 129.855 120.12 130.047 119.865 130.238C119.674 130.366 119.387 130.398 119.004 130.334C118.876 131.1 118.557 131.706 118.047 132.152C117.536 132.599 117.281 133.269 117.281 134.162C116.579 134.545 116.005 135.023 115.559 135.598C115.112 136.172 114.665 136.778 114.219 137.416C113.772 138.054 113.294 138.66 112.783 139.234C112.337 139.809 111.762 140.255 111.061 140.574C110.742 140.957 110.646 141.563 110.773 142.393C110.072 142.967 109.21 143.477 108.189 143.924C107.169 144.37 106.212 144.594 105.318 144.594C103.468 144.594 102.192 143.605 101.49 141.627C101.49 140.989 101.554 140.319 101.682 139.617C101.745 138.852 101.873 138.15 102.064 137.512C102.256 136.81 102.543 136.204 102.926 135.693C103.309 135.119 103.851 134.704 104.553 134.449C104.553 133.875 104.361 133.492 103.979 133.301C103.596 133.046 103.436 132.631 103.5 132.057C105.223 131.227 106.722 130.143 107.998 128.803C109.274 127.463 110.423 126.059 111.443 124.592C112.528 123.061 113.613 121.529 114.697 119.998C115.782 118.467 116.994 117.095 118.334 115.883V113.873C120.248 111.831 121.492 109.535 122.066 106.982C122.768 106.855 123.215 106.536 123.406 106.025C123.661 105.515 123.789 104.909 123.789 104.207C124.108 104.207 124.299 104.079 124.363 103.824C124.491 103.505 124.778 103.41 125.225 103.537C125.799 102.006 126.437 100.602 127.139 99.3262C127.84 98.0501 128.542 96.7741 129.244 95.498C129.946 94.1582 130.552 92.7865 131.062 91.3828C131.637 89.9792 132.051 88.416 132.307 86.6934C133.2 86.6296 133.678 86.2148 133.742 85.4492C133.87 84.6198 133.997 83.8861 134.125 83.248C135.082 82.3548 135.784 81.3021 136.23 80.0898C136.741 78.8776 137.188 77.6335 137.57 76.3574C137.953 75.0176 138.368 73.7096 138.814 72.4336C139.325 71.0938 140.027 69.9134 140.92 68.8926V68.6055C140.92 68.2865 140.792 68.0951 140.537 68.0312C140.282 67.9036 140.154 67.6803 140.154 67.3613C140.218 67.2975 140.25 67.2337 140.25 67.1699C141.016 66.8509 141.59 66.3405 141.973 65.6387C142.355 64.873 142.93 64.3307 143.695 64.0117C145.035 65.0964 146.215 65.7663 147.236 66.0215C148.257 66.2129 149.597 66.3724 151.256 66.5C152.085 67.3932 152.532 68.4779 152.596 69.7539C152.723 70.9661 152.947 72.1784 153.266 73.3906C153.776 75.4323 154.318 77.4421 154.893 79.4199C155.531 81.334 156.009 83.3118 156.328 85.3535C156.52 86.5658 156.87 87.7142 157.381 88.7988C157.891 89.8835 158.242 91 158.434 92.1484C158.561 93.0417 158.561 94.0625 158.434 95.2109C158.306 96.2956 158.434 97.2526 158.816 98.082L159.486 99.6133C159.805 100.315 160.061 101.049 160.252 101.814C160.507 102.58 160.73 103.346 160.922 104.111C161.432 106.025 161.879 108.099 162.262 110.332C162.708 112.501 163.378 114.479 164.271 116.266C164.59 116.904 165.069 117.35 165.707 117.605C166.409 117.861 167.174 118.052 168.004 118.18C168.833 118.243 169.631 118.275 170.396 118.275C171.226 118.212 171.928 118.18 172.502 118.18H173.459C173.842 118.18 174.225 118.243 174.607 118.371C174.863 118.882 174.99 119.328 174.99 119.711C174.99 120.477 174.735 121.083 174.225 121.529C173.714 121.976 173.459 122.486 173.459 123.061C173.459 123.38 173.587 123.73 173.842 124.113C173.587 124.049 173.204 124.018 172.693 124.018C171.226 124.018 169.79 124.273 168.387 124.783C168.897 125.868 169.567 126.793 170.396 127.559C171.29 128.26 172.215 128.93 173.172 129.568C173.81 129.058 174.48 128.803 175.182 128.803C175.947 128.803 176.649 128.994 177.287 129.377C177.989 129.696 178.723 129.855 179.488 129.855C180.062 129.855 180.477 129.76 180.732 129.568C181.243 130.143 181.658 130.749 181.977 131.387C182.296 131.961 182.71 132.503 183.221 133.014ZM153.266 117.701C153.138 116.617 152.915 115.851 152.596 115.404C152.34 114.894 152.117 114.288 151.926 113.586C151.671 112.693 151.479 111.736 151.352 110.715C151.288 109.694 151.16 108.705 150.969 107.748C150.522 105.579 150.012 103.41 149.438 101.24C148.927 99.071 148.257 96.9655 147.428 94.9238C147.683 94.541 147.811 94.1901 147.811 93.8711V93.584C147.236 92.946 146.822 92.1803 146.566 91.2871C146.311 90.3301 146.056 89.4049 145.801 88.5117C145.609 87.5547 145.322 86.6934 144.939 85.9277C144.62 85.0983 144.078 84.4284 143.312 83.918C143.121 84.3008 143.025 84.7474 143.025 85.2578C143.025 85.7044 143.057 86.1191 143.121 86.502C143.249 86.8848 143.312 87.2995 143.312 87.7461C142.674 88.0651 142.196 88.5755 141.877 89.2773C141.622 89.9154 141.175 90.4258 140.537 90.8086C140.027 92.8503 139.293 94.7962 138.336 96.6465C137.379 98.4329 136.358 100.219 135.273 102.006C134.253 103.792 133.264 105.611 132.307 107.461C131.35 109.247 130.584 111.13 130.01 113.107C129.18 113.682 128.606 114.415 128.287 115.309C128.032 116.202 127.904 117.095 127.904 117.988C128.479 118.307 129.117 118.499 129.818 118.562C130.584 118.562 131.318 118.562 132.02 118.562C132.721 118.562 133.391 118.626 134.029 118.754C134.667 118.882 135.242 119.201 135.752 119.711C136.581 119.456 137.475 119.296 138.432 119.232C139.452 119.105 140.282 118.818 140.92 118.371C142.196 118.818 143.568 119.041 145.035 119.041C145.801 119.041 146.535 118.977 147.236 118.85C148.002 118.722 148.736 118.562 149.438 118.371C150.012 118.499 150.458 118.722 150.777 119.041C151.096 119.296 151.575 119.392 152.213 119.328C152.532 119.073 152.723 118.818 152.787 118.562C152.851 118.243 153.01 117.956 153.266 117.701ZM254.232 72.5293C254.232 73.1035 254.105 73.6458 253.85 74.1562L253.18 75.5918C252.988 76.0384 252.797 76.5169 252.605 77.0273C252.414 77.5378 252.35 78.1439 252.414 78.8457C251.521 79.8665 250.628 80.8555 249.734 81.8125C248.841 82.7695 248.044 83.8542 247.342 85.0664C246.64 85.0026 246.098 85.1621 245.715 85.5449C245.396 85.9277 245.141 86.4382 244.949 87.0762C243.609 87.5228 242.429 88.2246 241.408 89.1816C240.387 90.0749 239.494 91.0638 238.729 92.1484C235.347 93.5521 232.189 95.2747 229.254 97.3164C226.319 99.3581 223.639 101.751 221.215 104.494C222.363 104.494 223.48 104.622 224.564 104.877C225.713 105.132 226.829 105.419 227.914 105.738C229.062 105.993 230.179 106.249 231.264 106.504C232.348 106.695 233.465 106.727 234.613 106.6C235.443 107.365 236.368 108.003 237.389 108.514C238.473 109.024 239.526 109.503 240.547 109.949C241.632 110.396 242.652 110.906 243.609 111.48C244.63 112.055 245.523 112.757 246.289 113.586C246.289 113.714 246.257 113.841 246.193 113.969C246.193 114.033 246.193 114.128 246.193 114.256C246.193 114.766 246.321 115.277 246.576 115.787C246.831 116.234 246.959 116.712 246.959 117.223C246.64 117.733 246.353 118.275 246.098 118.85C245.842 119.424 245.523 119.934 245.141 120.381C244.822 120.827 244.439 121.21 243.992 121.529C243.546 121.848 242.939 122.04 242.174 122.104C241.855 123.188 241.344 124.049 240.643 124.688C239.941 125.262 239.143 125.804 238.25 126.314C237.421 126.761 236.591 127.24 235.762 127.75C234.932 128.197 234.23 128.803 233.656 129.568C231.742 130.015 229.86 130.653 228.01 131.482C226.223 132.248 224.628 133.365 223.225 134.832C222.268 134.96 221.279 135.119 220.258 135.311C219.301 135.438 218.344 135.502 217.387 135.502C216.047 135.502 214.962 135.247 214.133 134.736C213.303 134.162 212.825 133.141 212.697 131.674C212.889 131.227 213.176 130.844 213.559 130.525L214.803 129.568C215.249 129.249 215.632 128.93 215.951 128.611C216.334 128.229 216.621 127.782 216.812 127.271C216.94 127.271 217.1 127.303 217.291 127.367C217.482 127.367 217.674 127.367 217.865 127.367C218.631 127.367 219.237 127.208 219.684 126.889C220.13 126.57 220.545 126.251 220.928 125.932C221.374 125.613 221.853 125.326 222.363 125.07C222.874 124.815 223.544 124.719 224.373 124.783C224.82 123.954 225.49 123.348 226.383 122.965C227.276 122.518 228.201 122.135 229.158 121.816C230.115 121.434 231.008 121.019 231.838 120.572C232.731 120.062 233.337 119.328 233.656 118.371C233.337 117.861 232.923 117.478 232.412 117.223C231.902 116.904 231.327 116.648 230.689 116.457L228.871 115.883C228.297 115.691 227.786 115.468 227.34 115.213C226.638 115.404 225.968 115.5 225.33 115.5C223.99 115.5 222.682 115.372 221.406 115.117C220.13 114.862 218.822 114.734 217.482 114.734C216.27 114.734 215.217 114.894 214.324 115.213C214.005 115.149 213.654 115.053 213.271 114.926C212.952 114.798 212.633 114.671 212.314 114.543C210.847 115.117 209.316 115.404 207.721 115.404H201.5C200.99 115.404 200.479 115.468 199.969 115.596C199.267 116.872 198.916 118.243 198.916 119.711C198.916 120.796 199.076 121.848 199.395 122.869C199.714 123.826 200.033 124.847 200.352 125.932C201.628 127.08 202.808 128.452 203.893 130.047C204.977 131.578 205.52 133.269 205.52 135.119C205.52 135.566 205.488 135.917 205.424 136.172C204.786 135.725 203.956 135.502 202.936 135.502C202.042 135.502 201.181 135.63 200.352 135.885C199.586 136.14 198.757 136.331 197.863 136.459C197.161 136.14 196.428 135.821 195.662 135.502C194.896 135.119 194.163 134.673 193.461 134.162C192.951 133.077 192.44 132.057 191.93 131.1C191.419 130.079 190.781 129.122 190.016 128.229V127.846C190.016 125.613 189.824 123.411 189.441 121.242C189.122 119.073 188.963 116.872 188.963 114.639C188.963 113.618 188.995 112.597 189.059 111.576C189.186 110.492 189.505 109.503 190.016 108.609C189.824 107.078 189.729 105.483 189.729 103.824C189.729 100.507 189.92 97.1888 190.303 93.8711C190.686 90.5534 190.877 87.1719 190.877 83.7266C190.877 83.0247 190.845 82.3229 190.781 81.6211C190.781 80.9193 190.749 80.2174 190.686 79.5156H190.303C189.473 79.5156 188.676 79.6432 187.91 79.8984C187.145 80.0898 186.379 80.3132 185.613 80.5684C184.848 80.8236 184.05 81.0788 183.221 81.334C182.391 81.5254 181.562 81.6211 180.732 81.6211C180.222 81.8763 179.807 82.1315 179.488 82.3867C179.169 82.6419 178.85 82.8652 178.531 83.0566C178.212 83.248 177.861 83.4076 177.479 83.5352C177.032 83.6628 176.521 83.6947 175.947 83.6309C175.245 84.0775 174.703 84.4284 174.32 84.6836C173.874 84.875 173.268 85.0983 172.502 85.3535C172.119 85.4811 171.8 85.6725 171.545 85.9277L170.779 86.5977C170.524 86.7891 170.237 86.9805 169.918 87.1719C169.599 87.3633 169.184 87.459 168.674 87.459C168.227 87.459 167.908 87.4271 167.717 87.3633C167.334 87.0443 167.015 86.6615 166.76 86.2148C166.441 85.7682 166.154 85.3535 165.898 84.9707C165.579 84.5241 165.26 84.1413 164.941 83.8223C164.559 83.4395 164.112 83.1523 163.602 82.9609C163.857 82.6419 163.984 82.3867 163.984 82.1953C163.921 81.9401 163.889 81.653 163.889 81.334C163.889 81.1426 163.921 81.015 163.984 80.9512C164.303 79.8027 164.878 78.9095 165.707 78.2715C166.536 77.5697 167.462 77.0273 168.482 76.6445C169.503 76.1979 170.556 75.8151 171.641 75.4961C172.661 75.1771 173.618 74.7943 174.512 74.3477C177 74.4115 179.265 74.1882 181.307 73.6777C183.348 73.1035 185.454 72.306 187.623 71.2852C188.006 71.4766 188.389 71.5723 188.771 71.5723C189.09 71.5723 189.41 71.5404 189.729 71.4766L190.686 71.2852C191.451 70.6471 192.281 70.2324 193.174 70.041C194.067 69.8496 194.96 69.6901 195.854 69.5625C196.747 69.4349 197.608 69.3073 198.438 69.1797C199.267 68.9883 200.001 68.6374 200.639 68.127H201.021C202.553 68.127 204.084 67.8717 205.615 67.3613C207.21 66.8509 208.742 66.6595 210.209 66.7871C211.485 66.0853 212.665 65.6387 213.75 65.4473C214.835 65.2559 216.079 65.1602 217.482 65.1602C217.801 65.1602 218.184 65.0326 218.631 64.7773C219.077 64.4583 219.62 64.2988 220.258 64.2988C220.385 64.2988 220.481 64.3307 220.545 64.3945C220.673 64.3945 220.8 64.3945 220.928 64.3945C221.502 64.3945 221.885 64.2031 222.076 63.8203C222.331 63.4375 222.938 63.2461 223.895 63.2461C224.341 63.2461 224.756 63.278 225.139 63.3418C225.521 63.3418 225.904 63.3418 226.287 63.3418C226.734 63.3418 227.021 63.1823 227.148 62.8633C227.276 62.4805 227.563 62.321 228.01 62.3848C228.201 62.64 228.52 62.7676 228.967 62.7676C229.413 62.7038 229.764 62.6719 230.02 62.6719C230.466 62.6719 230.721 62.7995 230.785 63.0547C231.806 62.4167 232.923 62.002 234.135 61.8105C235.411 61.6191 236.623 61.5234 237.771 61.5234C238.218 61.5234 238.665 61.5553 239.111 61.6191C239.558 61.6191 240.036 61.651 240.547 61.7148C241.121 61.332 241.791 61.1406 242.557 61.1406C243.003 61.1406 243.705 61.332 244.662 61.7148C245.683 62.0977 246.736 62.5443 247.82 63.0547C248.905 63.5651 249.894 64.1074 250.787 64.6816C251.68 65.2559 252.223 65.7344 252.414 66.1172C252.542 66.2448 252.605 66.5319 252.605 66.9785C252.669 67.4251 252.765 67.8079 252.893 68.127C253.212 68.8926 253.499 69.6263 253.754 70.3281C254.073 70.9661 254.232 71.6999 254.232 72.5293ZM243.609 73.582C243.609 73.4544 243.577 73.3268 243.514 73.1992C243.514 73.0078 243.514 72.8483 243.514 72.7207C243.195 72.3379 242.748 72.0508 242.174 71.8594C241.663 71.668 241.089 71.5085 240.451 71.3809C239.877 71.2533 239.271 71.1576 238.633 71.0938C238.059 70.9661 237.548 70.8066 237.102 70.6152C235.762 71.0618 234.294 71.2852 232.699 71.2852C231.232 71.2852 229.924 71.0618 228.775 70.6152C228.201 71.1895 227.467 71.6361 226.574 71.9551C225.681 72.2741 224.724 72.5293 223.703 72.7207C222.746 72.8483 221.757 72.944 220.736 73.0078C219.779 73.0078 218.918 73.0078 218.152 73.0078C217.897 73.0078 217.451 73.1992 216.812 73.582C216.174 73.9648 215.6 74.1562 215.09 74.1562C214.707 74.1562 214.356 73.9967 214.037 73.6777C213.463 74.1243 212.665 74.5072 211.645 74.8262C210.624 75.1452 209.571 75.4323 208.486 75.6875C207.402 75.8789 206.285 76.1022 205.137 76.3574C204.052 76.6126 203.127 76.8678 202.361 77.123C201.596 78.7819 201.181 80.6003 201.117 82.5781C201.053 84.4922 201.021 86.3743 201.021 88.2246C201.021 89.3092 200.958 90.362 200.83 91.3828C200.702 92.4036 200.639 93.4564 200.639 94.541C200.639 95.0514 200.671 95.5938 200.734 96.168C200.798 96.6784 200.99 97.1888 201.309 97.6992C200.798 98.082 200.447 98.5924 200.256 99.2305C200.128 99.8047 200.064 100.379 200.064 100.953C200.064 101.655 200.128 102.293 200.256 102.867C200.383 103.441 200.511 103.984 200.639 104.494C202.68 104.303 204.531 103.92 206.189 103.346C207.912 102.771 209.507 102.07 210.975 101.24C212.506 100.411 213.973 99.4538 215.377 98.3691C216.781 97.2845 218.248 96.1361 219.779 94.9238C220.417 94.7962 220.928 94.6048 221.311 94.3496C221.757 94.0944 222.299 93.9668 222.938 93.9668C223.193 93.0736 223.671 92.4674 224.373 92.1484C225.075 91.7656 225.617 91.2233 226 90.5215C226.766 90.3301 227.404 90.0749 227.914 89.7559C228.488 89.373 229.031 89.0221 229.541 88.7031C230.051 88.3203 230.594 87.9694 231.168 87.6504C231.806 87.3314 232.508 87.14 233.273 87.0762C234.358 85.8001 235.475 84.5241 236.623 83.248C237.835 81.972 239.239 80.9512 240.834 80.1855C241.089 79.5475 241.376 79.0052 241.695 78.5586C242.014 78.0482 242.301 77.5697 242.557 77.123C242.876 76.6126 243.131 76.1022 243.322 75.5918C243.514 75.0176 243.609 74.3477 243.609 73.582ZM377.881 123.348C377.753 124.305 377.402 125.038 376.828 125.549C376.318 126.059 375.712 126.538 375.01 126.984C374.691 126.921 374.372 126.889 374.053 126.889C373.798 126.825 373.51 126.793 373.191 126.793C371.214 126.729 369.331 126.984 367.545 127.559C365.822 128.133 364.036 128.548 362.186 128.803C361.548 128.93 360.941 128.994 360.367 128.994C359.857 128.93 359.314 128.962 358.74 129.09C356.699 129.409 354.529 129.664 352.232 129.855C349.936 130.047 347.639 130.302 345.342 130.621C343.045 130.876 340.78 131.227 338.547 131.674C336.378 132.057 334.336 132.631 332.422 133.396C332.23 133.269 332.039 133.141 331.848 133.014C331.656 132.822 331.433 132.727 331.178 132.727C330.54 132.727 329.934 132.822 329.359 133.014C328.785 133.205 328.211 133.269 327.637 133.205C326.999 133.588 326.297 133.875 325.531 134.066C324.829 134.194 324.096 134.322 323.33 134.449C322.628 134.513 321.926 134.641 321.225 134.832C320.523 135.023 319.853 135.374 319.215 135.885C318.704 135.63 318.066 135.502 317.301 135.502C316.599 135.438 316.12 135.183 315.865 134.736C314.398 135.438 312.835 135.885 311.176 136.076C309.581 136.268 307.954 136.331 306.295 136.268C305.21 136.204 303.966 136.044 302.562 135.789C301.159 135.534 299.755 135.183 298.352 134.736C296.948 134.226 295.64 133.652 294.428 133.014C293.215 132.312 292.29 131.482 291.652 130.525C291.206 129.887 290.887 129.186 290.695 128.42C290.504 127.654 290.057 127.08 289.355 126.697C289.547 125.23 289.77 123.794 290.025 122.391C290.281 120.987 290.536 119.551 290.791 118.084C292.067 116.999 293.279 115.851 294.428 114.639C295.576 113.426 296.661 112.15 297.682 110.811C298.894 110.236 300.01 109.535 301.031 108.705C302.116 107.876 303.169 107.046 304.189 106.217C305.274 105.324 306.327 104.462 307.348 103.633C308.432 102.803 309.581 102.07 310.793 101.432C310.984 100.985 311.24 100.634 311.559 100.379C311.941 100.06 312.324 99.7728 312.707 99.5176C313.09 99.1986 313.441 98.8796 313.76 98.5605C314.079 98.1777 314.302 97.7311 314.43 97.2207C316.663 95.8809 318.609 94.1901 320.268 92.1484C321.926 90.1068 323.011 87.8099 323.521 85.2578C322.437 84.3646 321.193 83.7904 319.789 83.5352C318.449 83.2161 317.046 82.9928 315.578 82.8652C314.302 82.8014 312.962 82.8014 311.559 82.8652C310.219 82.929 308.847 82.8971 307.443 82.7695C306.04 83.2161 304.572 83.5033 303.041 83.6309C301.574 83.7585 300.106 83.8861 298.639 84.0137C297.171 84.0775 295.704 84.2689 294.236 84.5879C292.833 84.8431 291.461 85.3535 290.121 86.1191C289.866 86.1191 289.611 86.0872 289.355 86.0234C289.164 85.9596 288.941 85.9277 288.686 85.9277C286.644 85.8639 284.73 86.2786 282.943 87.1719C281.157 88.0013 279.402 88.8307 277.68 89.6602C277.552 89.9154 277.488 90.1068 277.488 90.2344C277.488 90.6172 277.552 91 277.68 91.3828C277.871 91.7018 277.967 92.0527 277.967 92.4355C277.903 92.4993 277.871 92.5632 277.871 92.627C277.871 92.6908 277.839 92.7546 277.775 92.8184C277.712 93.1374 277.616 93.4245 277.488 93.6797C277.424 93.9349 277.329 94.222 277.201 94.541C276.499 96.5827 276.117 98.5924 276.053 100.57C275.989 102.229 275.989 103.856 276.053 105.451C276.117 107.046 276.117 108.673 276.053 110.332C275.925 112.374 275.606 114.288 275.096 116.074C275.415 117.605 275.702 119.232 275.957 120.955C276.212 122.614 276.531 124.273 276.914 125.932C277.297 127.59 277.743 129.217 278.254 130.812C278.828 132.344 279.562 133.811 280.455 135.215C280.391 135.342 280.423 135.438 280.551 135.502C280.678 135.566 280.806 135.598 280.934 135.598H281.699C282.018 135.598 282.146 135.725 282.082 135.98C282.21 136.172 282.305 136.363 282.369 136.555C282.433 136.682 282.561 136.81 282.752 136.938C282.88 137.129 282.88 137.384 282.752 137.703C282.688 138.979 282.369 140.16 281.795 141.244C281.221 142.329 280.87 143.509 280.742 144.785C279.977 144.977 279.275 145.072 278.637 145.072C277.552 145.008 276.595 144.689 275.766 144.115C274.936 143.605 274.171 142.967 273.469 142.201C272.767 141.436 272.097 140.67 271.459 139.904C270.821 139.075 270.119 138.373 269.354 137.799C268.907 136.012 268.46 134.035 268.014 131.865C267.631 129.696 266.961 127.846 266.004 126.314C266.259 125.74 266.387 125.038 266.387 124.209C266.451 122.933 266.323 121.689 266.004 120.477C265.749 119.201 265.685 117.924 265.812 116.648C265.812 115.947 265.876 115.245 266.004 114.543C266.195 113.841 266.323 113.139 266.387 112.438C266.451 111.353 266.323 110.3 266.004 109.279C265.749 108.258 265.653 107.206 265.717 106.121C265.781 105.611 265.876 105.132 266.004 104.686C266.195 104.175 266.451 103.729 266.77 103.346C266.451 102.58 266.355 101.846 266.482 101.145C266.546 100.06 266.674 99.0391 266.865 98.082C267.057 97.125 267.184 96.168 267.248 95.2109C267.248 94.7005 267.216 94.222 267.152 93.7754C267.089 93.265 266.993 92.7865 266.865 92.3398L266.004 92.0527C265.621 92.0527 265.238 92.1484 264.855 92.3398C264.536 92.5312 264.249 92.7546 263.994 93.0098C263.739 93.265 263.516 93.4883 263.324 93.6797C263.133 93.8073 262.941 93.8711 262.75 93.8711C262.622 93.8711 262.463 93.8711 262.271 93.8711C262.144 93.8073 262.016 93.7754 261.889 93.7754C261.761 93.7754 261.506 93.903 261.123 94.1582C260.804 94.4134 260.389 94.7005 259.879 95.0195C259.432 95.2747 258.986 95.5618 258.539 95.8809C258.092 96.1361 257.742 96.2956 257.486 96.3594C256.785 96.2318 256.21 96.0085 255.764 95.6895C255.381 95.3066 254.998 94.9557 254.615 94.6367C254.296 94.2539 253.945 93.9349 253.562 93.6797C253.18 93.3607 252.701 93.2331 252.127 93.2969C251.936 92.9141 251.84 92.4993 251.84 92.0527C251.776 91.6061 251.776 91.1595 251.84 90.7129V89.1816C252.286 88.3522 252.893 87.6823 253.658 87.1719C254.36 86.5977 255.126 86.1191 255.955 85.7363L258.443 84.5879C259.273 84.2051 260.038 83.7266 260.74 83.1523H261.602C262.75 83.2161 263.739 82.9928 264.568 82.4824C265.462 81.972 266.291 81.3978 267.057 80.7598C267.822 80.0579 268.588 79.3561 269.354 78.6543C270.183 77.9525 271.076 77.4102 272.033 77.0273C272.735 77.3464 273.469 77.6335 274.234 77.8887C275 78.0801 275.798 78.2077 276.627 78.2715C277.456 78.2715 278.318 78.1439 279.211 77.8887C280.104 77.6335 280.806 77.1549 281.316 76.4531C281.635 76.5807 281.891 76.6764 282.082 76.7402C282.337 76.7402 282.624 76.7402 282.943 76.7402C283.9 76.804 284.857 76.6764 285.814 76.3574C286.771 75.9746 287.697 75.528 288.59 75.0176C289.866 75.0814 291.11 75.0176 292.322 74.8262C293.598 74.571 294.842 74.3158 296.055 74.0605C297.331 73.8053 298.575 73.582 299.787 73.3906C301.063 73.1354 302.339 73.0397 303.615 73.1035C305.721 73.1673 307.794 72.9759 309.836 72.5293C311.878 72.0827 313.951 71.9232 316.057 72.0508C317.524 72.1146 318.96 72.2422 320.363 72.4336C321.831 72.5612 323.298 72.5931 324.766 72.5293C325.595 72.9121 326.329 73.263 326.967 73.582C327.669 73.8372 328.53 73.901 329.551 73.7734C331.592 75.4961 333.443 77.5059 335.102 79.8027V81.4297C335.038 82.8971 334.783 84.3327 334.336 85.7363C333.889 87.14 333.347 88.5436 332.709 89.9473C332.135 91.2871 331.497 92.627 330.795 93.9668C330.093 95.2428 329.423 96.5189 328.785 97.7949C324.638 101.559 320.491 105.292 316.344 108.992C312.197 112.693 307.922 116.266 303.52 119.711C303.392 120.349 303.201 120.923 302.945 121.434C302.754 121.944 302.626 122.486 302.562 123.061C302.562 123.38 302.594 123.635 302.658 123.826C303.105 123.954 303.488 124.209 303.807 124.592C304.189 124.911 304.317 125.357 304.189 125.932H305.051C305.37 125.932 305.529 126.059 305.529 126.314L307.061 126.41C309.485 126.538 311.91 126.474 314.334 126.219C316.758 125.964 319.183 125.676 321.607 125.357C324.096 125.038 326.552 124.751 328.977 124.496C331.401 124.177 333.826 123.986 336.25 123.922C336.824 123.73 337.43 123.571 338.068 123.443C338.706 123.316 339.281 123.061 339.791 122.678H340.078C340.525 122.678 340.844 122.805 341.035 123.061C341.29 123.316 341.641 123.475 342.088 123.539C342.407 123.539 342.726 123.475 343.045 123.348C343.428 123.22 343.811 123.124 344.193 123.061C345.087 122.805 346.012 122.646 346.969 122.582C347.99 122.518 348.979 122.423 349.936 122.295C353.636 121.976 357.305 121.785 360.941 121.721C364.578 121.593 368.215 121.115 371.852 120.285C372.171 120.732 372.617 121.051 373.191 121.242C373.766 121.37 374.372 121.529 375.01 121.721C375.648 121.848 376.222 122.008 376.732 122.199C377.307 122.391 377.689 122.773 377.881 123.348ZM371.373 126.889C371.054 127.399 370.671 127.878 370.225 128.324C369.778 128.707 369.363 129.122 368.98 129.568C368.534 129.76 368.023 129.855 367.449 129.855C366.939 129.855 366.428 129.855 365.918 129.855C365.471 129.792 365.025 129.792 364.578 129.855C364.195 129.855 363.876 129.983 363.621 130.238C363.111 130.111 362.728 129.887 362.473 129.568C362.217 129.186 361.771 128.962 361.133 128.898C360.878 128.835 360.622 128.835 360.367 128.898C359.41 127.814 358.517 126.665 357.688 125.453C356.922 124.241 356.188 123.092 355.486 122.008C355.423 119.647 355.231 117.255 354.912 114.83C354.848 114.256 354.753 113.682 354.625 113.107C354.497 112.533 354.402 111.991 354.338 111.48C354.338 110.842 354.37 110.236 354.434 109.662C354.561 109.024 354.657 108.45 354.721 107.939C354.976 106.089 355.263 104.271 355.582 102.484C355.901 100.698 356.188 98.8796 356.443 97.0293C356.699 95.3704 356.826 93.6478 356.826 91.8613C356.826 90.0111 356.539 88.2884 355.965 86.6934L355.869 86.2148C355.997 85.7044 356.124 85.2897 356.252 84.9707C356.443 84.5879 356.571 84.1732 356.635 83.7266C356.762 83.0247 356.603 82.5143 356.156 82.1953C356.348 81.6849 356.667 81.3659 357.113 81.2383C357.56 81.0469 357.815 80.6641 357.879 80.0898C357.943 79.8346 357.943 79.5794 357.879 79.3242C358.389 79.1328 358.9 78.9733 359.41 78.8457C359.984 78.6543 360.527 78.6224 361.037 78.75C361.867 78.8776 362.6 79.1647 363.238 79.6113C363.876 79.9941 364.482 80.4408 365.057 80.9512C366.077 84.0137 366.492 87.2676 366.301 90.7129C366.109 94.0944 365.79 97.5078 365.344 100.953C364.897 104.398 364.61 107.78 364.482 111.098C364.355 114.352 364.865 117.382 366.014 120.189L366.205 120.285C366.524 120.349 366.779 120.253 366.971 119.998C367.162 119.679 367.417 119.551 367.736 119.615C367.992 119.743 368.151 119.807 368.215 119.807C368.47 121.083 368.885 122.295 369.459 123.443C370.033 124.592 370.671 125.74 371.373 126.889ZM441.045 79.1328V79.5156C440.598 79.6432 440.375 79.9622 440.375 80.4727C439.673 80.7917 438.939 81.0469 438.174 81.2383C437.408 81.3659 436.674 81.5892 435.973 81.9082C435.271 81.8444 434.537 81.8125 433.771 81.8125C433.07 81.7487 432.368 81.7168 431.666 81.7168C429.752 81.7168 427.838 81.7806 425.924 81.9082C424.01 82.0358 422.096 82.0358 420.182 81.9082C419.288 82.4186 418.299 82.8333 417.215 83.1523C416.194 83.4076 415.205 83.5352 414.248 83.5352C413.482 83.5352 412.812 83.4395 412.238 83.248C410.707 84.0137 409.016 84.6517 407.166 85.1621C405.38 85.6725 403.561 86.1829 401.711 86.6934C399.861 87.14 398.074 87.6823 396.352 88.3203C394.693 88.8945 393.225 89.724 391.949 90.8086C391.822 91.7018 391.726 92.5951 391.662 93.4883C391.598 94.3177 391.566 95.1471 391.566 95.9766C391.566 96.8698 391.598 97.6992 391.662 98.4648C391.79 99.2305 392.013 99.9961 392.332 100.762C392.651 100.889 393.002 100.985 393.385 101.049C393.831 101.113 394.214 101.145 394.533 101.145C394.852 101.145 395.171 101.113 395.49 101.049C395.809 100.921 396.033 100.698 396.16 100.379C397.117 100.251 398.074 100.219 399.031 100.283C399.988 100.283 400.945 100.283 401.902 100.283C402.859 100.283 403.785 100.251 404.678 100.188C405.635 100.124 406.56 99.9642 407.453 99.709C408.474 99.4538 409.463 99.2943 410.42 99.2305C411.441 99.1667 412.43 99.1029 413.387 99.0391C414.344 98.9753 415.333 98.8796 416.354 98.752C417.374 98.5605 418.427 98.2096 419.512 97.6992C420.341 98.0182 421.171 98.1777 422 98.1777C422.893 98.1777 423.755 98.2415 424.584 98.3691C425.031 98.6882 425.382 99.0391 425.637 99.4219C425.956 99.8047 426.115 100.251 426.115 100.762C426.115 101.655 425.796 102.548 425.158 103.441C424.52 104.335 424.01 105.164 423.627 105.93H422.574C421.043 105.93 419.544 106.153 418.076 106.6C416.673 106.982 415.237 107.461 413.77 108.035C412.366 108.546 410.93 109.024 409.463 109.471C408.059 109.854 406.592 110.045 405.061 110.045C404.805 110.045 404.646 110.204 404.582 110.523C404.582 110.779 404.518 110.97 404.391 111.098C404.072 111.034 403.593 111.002 402.955 111.002C401.488 111.002 400.084 111.161 398.744 111.48C397.404 111.799 396.033 111.959 394.629 111.959C394.246 111.959 393.863 111.959 393.48 111.959C393.098 111.895 392.715 111.831 392.332 111.768C392.013 112.278 391.598 112.629 391.088 112.82C390.577 112.948 390.099 113.203 389.652 113.586C389.461 114.16 389.333 114.862 389.27 115.691C389.27 116.521 389.238 117.382 389.174 118.275C389.174 119.105 389.11 119.902 388.982 120.668C388.855 121.434 388.6 122.04 388.217 122.486C388.281 122.805 388.536 122.933 388.982 122.869C389.429 122.742 389.652 122.933 389.652 123.443C389.652 124.018 389.589 124.624 389.461 125.262C389.333 125.9 389.27 126.538 389.27 127.176C389.27 128.388 389.397 129.728 389.652 131.195C389.971 132.599 390.418 133.907 390.992 135.119C391.63 136.331 392.46 137.352 393.48 138.182C394.501 138.947 395.777 139.33 397.309 139.33C398.329 139.33 399.286 139.139 400.18 138.756C401.073 138.373 401.807 137.735 402.381 136.842L402.859 136.746C403.115 136.746 403.338 136.778 403.529 136.842C403.785 136.906 404.04 136.938 404.295 136.938C404.678 136.938 405.156 136.714 405.73 136.268C406.368 135.757 407.038 135.183 407.74 134.545C408.506 133.907 409.271 133.301 410.037 132.727C410.803 132.089 411.536 131.642 412.238 131.387C412.685 130.493 413.1 129.6 413.482 128.707C413.929 127.814 414.567 127.112 415.396 126.602V123.826C416.035 123.124 416.704 122.486 417.406 121.912C418.172 121.338 418.746 120.604 419.129 119.711C419.448 119.839 419.735 119.934 419.99 119.998C420.309 120.062 420.628 120.094 420.947 120.094C421.266 120.094 421.585 120.062 421.904 119.998C422.287 119.934 422.638 119.839 422.957 119.711C423.467 120.413 423.85 121.21 424.105 122.104C424.424 122.933 424.807 123.73 425.254 124.496C424.68 125.645 424.01 127.016 423.244 128.611C422.479 130.206 421.649 131.801 420.756 133.396C419.863 134.992 418.906 136.523 417.885 137.99C416.928 139.394 415.971 140.479 415.014 141.244C414.822 141.436 414.408 141.659 413.77 141.914C413.068 142.424 412.43 142.903 411.855 143.35C411.281 143.86 410.739 144.434 410.229 145.072C408.378 145.646 406.592 146.412 404.869 147.369C403.21 148.326 401.551 149.251 399.893 150.145C399.127 149.953 398.298 149.857 397.404 149.857C396.639 149.857 395.873 149.889 395.107 149.953C394.342 150.081 393.512 150.145 392.619 150.145C392.364 149.826 391.981 149.602 391.471 149.475C391.024 149.411 390.865 149.092 390.992 148.518C388.823 148.39 387.068 147.784 385.729 146.699C384.389 145.678 383.24 144.402 382.283 142.871C381.39 141.34 380.656 139.681 380.082 137.895C379.508 136.108 378.902 134.385 378.264 132.727V132.439C378.264 132.12 378.391 131.929 378.646 131.865C378.902 131.801 379.029 131.61 379.029 131.291C379.029 131.163 378.997 131.068 378.934 131.004C378.742 130.302 378.583 129.696 378.455 129.186C378.327 128.675 378.264 128.069 378.264 127.367C378.264 126.346 378.327 125.357 378.455 124.4C378.583 123.38 378.646 122.359 378.646 121.338C378.646 120.317 378.519 119.424 378.264 118.658C378.519 118.339 378.742 117.924 378.934 117.414C379.061 116.84 379.157 116.266 379.221 115.691C379.285 115.117 379.316 114.543 379.316 113.969C379.38 113.395 379.476 112.884 379.604 112.438C379.348 111.736 379.125 111.13 378.934 110.619C378.742 110.045 378.646 109.375 378.646 108.609V107.939C379.285 106.855 379.827 105.738 380.273 104.59C380.72 103.441 381.199 102.261 381.709 101.049V100.762C381.709 98.9115 381.645 97.0612 381.518 95.2109C381.39 93.3607 381.326 91.5104 381.326 89.6602V87.8418C381.326 87.2038 381.358 86.5977 381.422 86.0234C381.932 85.7682 382.315 85.4173 382.57 84.9707C382.826 84.5241 383.208 84.1732 383.719 83.918H386.877L387.451 82.9609C387.643 82.6419 387.77 82.291 387.834 81.9082C388.536 81.7168 389.206 81.4616 389.844 81.1426C390.546 80.7598 391.184 80.377 391.758 79.9941C392.651 79.4837 393.449 79.0371 394.15 78.6543C394.916 78.2077 395.65 77.8568 396.352 77.6016C397.117 77.2826 397.915 77.0273 398.744 76.8359C399.574 76.6445 400.531 76.485 401.615 76.3574C402.126 76.3574 402.445 76.2617 402.572 76.0703C402.764 75.8789 403.019 75.6556 403.338 75.4004C404.104 75.528 404.869 75.6556 405.635 75.7832C406.4 75.847 407.166 75.8789 407.932 75.8789C409.463 75.8789 410.898 75.5918 412.238 75.0176C414.152 75.0176 416.035 74.9857 417.885 74.9219C419.799 74.8581 421.713 74.8262 423.627 74.8262C425.286 74.8262 426.945 74.89 428.604 75.0176C430.262 75.1452 431.889 75.3685 433.484 75.6875C434.059 75.4961 434.697 75.4004 435.398 75.4004C436.164 75.4004 436.93 75.4961 437.695 75.6875C438.525 75.8151 439.322 75.8151 440.088 75.6875C440.152 76.3893 440.311 76.9954 440.566 77.5059C440.885 77.9525 441.045 78.4948 441.045 79.1328ZM488.609 115.404C488.609 116.106 488.354 116.648 487.844 117.031C487.333 117.35 487.078 117.797 487.078 118.371C487.078 118.626 487.206 118.945 487.461 119.328C486.568 119.328 485.962 119.615 485.643 120.189C485.324 120.764 485.005 121.402 484.686 122.104H483.441C483.122 122.104 482.867 122.167 482.676 122.295C482.484 122.423 482.293 122.614 482.102 122.869C481.974 123.061 481.783 123.38 481.527 123.826C480.315 124.081 479.135 124.496 477.986 125.07C476.902 125.581 475.817 126.155 474.732 126.793C473.712 127.367 472.659 127.973 471.574 128.611C470.49 129.186 469.373 129.664 468.225 130.047C467.65 131.004 466.821 131.77 465.736 132.344H465.449C465.13 132.408 464.843 132.376 464.588 132.248C464.396 132.057 464.141 131.961 463.822 131.961C463.631 131.961 463.503 131.993 463.439 132.057C461.525 133.333 459.388 133.971 457.027 133.971C456.389 133.971 455.783 133.939 455.209 133.875C454.635 133.747 454.029 133.684 453.391 133.684C453.199 133.684 453.072 133.747 453.008 133.875L452.816 134.258C452.753 134.385 452.657 134.513 452.529 134.641C452.465 134.768 452.242 134.832 451.859 134.832C451.158 134.832 450.456 134.736 449.754 134.545C449.052 134.354 448.318 134.322 447.553 134.449C446.085 133.62 444.937 132.822 444.107 132.057C443.278 131.291 442.512 130.143 441.811 128.611C441.492 127.91 441.045 127.24 440.471 126.602C439.96 125.964 439.577 125.262 439.322 124.496C439.258 124.241 439.163 123.794 439.035 123.156C438.908 122.454 438.78 121.721 438.652 120.955C438.525 120.189 438.397 119.456 438.27 118.754C438.206 118.052 438.174 117.574 438.174 117.318C438.174 116.553 438.206 115.819 438.27 115.117C438.397 114.352 438.525 113.586 438.652 112.82C439.035 110.396 439.29 107.971 439.418 105.547C439.609 103.059 440.152 100.666 441.045 98.3691C440.917 97.6673 440.854 96.9974 440.854 96.3594V94.2539C440.854 93.0417 440.694 92.0208 440.375 91.1914C440.885 90.362 441.141 89.4368 441.141 88.416C441.141 87.2676 440.662 86.5977 439.705 86.4062V86.1191C439.705 84.7793 439.258 83.7266 438.365 82.9609C438.365 80.7279 438.908 79.069 439.992 77.9844C441.141 76.8359 442.64 75.847 444.49 75.0176C444.745 74.6348 444.841 74.3158 444.777 74.0605C445.224 74.1882 445.639 74.3158 446.021 74.4434C446.404 74.571 446.787 74.6348 447.17 74.6348C447.808 74.6348 448.382 74.5391 448.893 74.3477C449.084 75.1133 449.562 75.5918 450.328 75.7832C451.158 75.9108 451.827 76.1022 452.338 76.3574V77.6016C452.338 79.5794 452.816 81.4616 453.773 83.248C453.518 83.7585 453.359 84.3008 453.295 84.875C453.231 85.4492 453.199 85.9915 453.199 86.502C453.199 87.2676 453.231 88.0332 453.295 88.7988C453.359 89.5645 453.391 90.2982 453.391 91C453.391 91.7656 453.295 92.5312 453.104 93.2969C452.976 94.0625 452.625 94.7324 452.051 95.3066C451.987 96.1361 451.923 97.0931 451.859 98.1777C451.859 99.1986 451.796 100.251 451.668 101.336C451.604 102.421 451.445 103.473 451.189 104.494C450.934 105.515 450.551 106.344 450.041 106.982C449.977 107.939 449.913 108.928 449.85 109.949C449.85 110.906 449.85 111.831 449.85 112.725C449.85 114.128 449.913 115.787 450.041 117.701C450.232 119.615 450.679 121.21 451.381 122.486C451.7 122.997 452.306 123.38 453.199 123.635C454.156 123.89 454.922 124.018 455.496 124.018C456.198 124.018 456.9 123.922 457.602 123.73C458.367 123.475 458.91 123.061 459.229 122.486C459.611 122.55 459.867 122.742 459.994 123.061C460.122 123.38 460.345 123.635 460.664 123.826C464.301 122.295 467.938 120.827 471.574 119.424C475.211 118.02 478.784 116.393 482.293 114.543C482.803 114.798 483.346 114.926 483.92 114.926C484.558 114.926 485.196 114.862 485.834 114.734C486.472 114.607 487.11 114.543 487.748 114.543H488.418C488.546 114.926 488.609 115.213 488.609 115.404Z" fill="white"/>
</g>
<defs>
<clipPath id="clip0_2_2">
<rect width="500" height="200" fill="white"/>
</clipPath>
</defs>
</svg>
