<svg width="727" height="200" viewBox="0 0 727 200" fill="none" xmlns="http://www.w3.org/2000/svg">
<g clip-path="url(#clip0_15_4)">
<path d="M149.986 95.4023C149.859 96.168 149.635 97.0293 149.316 97.9863C149.061 98.9434 148.678 99.8366 148.168 100.666C147.721 101.432 147.147 102.102 146.445 102.676C145.743 103.186 144.914 103.441 143.957 103.441C143.255 103.441 142.553 103.378 141.852 103.25C141.15 103.059 140.416 102.963 139.65 102.963C139.331 102.963 138.98 103.09 138.598 103.346C138.279 103.537 137.96 103.633 137.641 103.633C137.322 103.633 137.035 103.601 136.779 103.537C136.588 103.41 136.333 103.346 136.014 103.346C135.822 103.346 135.471 103.41 134.961 103.537C134.451 103.665 133.908 103.792 133.334 103.92C132.76 104.048 132.217 104.207 131.707 104.398C131.197 104.526 130.846 104.622 130.654 104.686C128.932 105.26 127.209 105.77 125.486 106.217C123.764 106.663 121.977 106.951 120.127 107.078C119.744 106.951 119.17 106.823 118.404 106.695C117.639 106.504 117.064 106.408 116.682 106.408C115.916 106.408 115.406 106.727 115.15 107.365C114.959 108.003 114.544 108.482 113.906 108.801C113.141 109.247 112.184 109.503 111.035 109.566C109.887 109.63 108.738 109.726 107.59 109.854C106.441 109.981 105.357 110.236 104.336 110.619C103.379 110.938 102.677 111.576 102.23 112.533C101.911 112.469 101.561 112.438 101.178 112.438C100.859 112.374 100.508 112.342 100.125 112.342C98.0833 112.342 96.1693 112.757 94.3828 113.586C92.5964 114.352 90.778 115.053 88.9277 115.691C89.2467 116.266 89.4701 116.967 89.5977 117.797C89.7253 118.626 89.8529 119.456 89.9805 120.285C90.1081 121.051 90.2676 121.816 90.459 122.582C90.7142 123.284 91.1289 123.826 91.7031 124.209C91.7031 124.592 91.6074 124.911 91.416 125.166C91.2884 125.421 91.1289 125.645 90.9375 125.836L90.2676 126.506C90.0762 126.697 89.9486 126.984 89.8848 127.367C89.6934 128.133 89.5977 128.93 89.5977 129.76C89.5977 130.525 89.151 131.1 88.2578 131.482C88.3216 131.674 88.3535 132.025 88.3535 132.535C88.3535 133.173 88.2578 133.779 88.0664 134.354C87.875 134.928 87.8112 135.566 87.875 136.268C86.7904 137.48 85.8652 138.724 85.0996 140C84.3978 141.276 83.8555 142.648 83.4727 144.115C81.112 146.476 78.6875 148.837 76.1992 151.197C73.7747 153.622 71.2546 155.951 68.6387 158.184C66.0866 160.417 63.4388 162.522 60.6953 164.5C57.9518 166.542 55.1126 168.328 52.1777 169.859H51.5078C50.0404 169.859 48.8919 170.115 48.0625 170.625C47.2331 171.135 46.1803 171.582 44.9043 171.965C43.9473 171.71 42.7988 171.582 41.459 171.582C40.6934 171.582 39.8958 171.614 39.0664 171.678C38.3008 171.742 37.5033 171.773 36.6738 171.773C35.5892 171.773 34.6003 171.646 33.707 171.391C32.8776 171.135 32.0482 170.848 31.2188 170.529C30.4531 170.21 29.6556 169.891 28.8262 169.572C27.9967 169.253 27.1035 169.03 26.1465 168.902C22.1908 164.947 19.0645 160.321 16.7676 155.025C14.4707 149.794 13.3223 144.402 13.3223 138.852C13.3223 136.299 13.6732 133.811 14.375 131.387C15.0768 128.898 15.4277 126.41 15.4277 123.922C16.5762 121.625 17.5651 119.264 18.3945 116.84C19.2878 114.415 20.181 111.991 21.0742 109.566C21.9674 107.142 22.9245 104.781 23.9453 102.484C25.0299 100.124 26.306 97.8906 27.7734 95.7852C28.0924 94.1263 28.6029 92.6908 29.3047 91.4785C30.0065 90.2663 30.7721 88.9264 31.6016 87.459C31.6016 86.0553 31.8887 84.7793 32.4629 83.6309C33.1009 82.4186 33.4837 81.0788 33.6113 79.6113C34.6322 78.6543 35.4616 77.5697 36.0996 76.3574C36.7376 75.1452 37.3438 73.901 37.918 72.625C38.4922 71.349 39.1302 70.1367 39.832 68.9883C40.5977 67.776 41.6185 66.7552 42.8945 65.9258C43.0221 65.4792 43.0859 65.0007 43.0859 64.4902C43.1497 63.916 43.3092 63.4694 43.5645 63.1504L45.5742 60.9492C46.2122 60.1198 46.7865 59.2904 47.2969 58.4609C47.8711 57.5677 48.4772 56.7702 49.1152 56.0684C49.498 55.6855 49.9128 55.3665 50.3594 55.1113C50.806 54.8561 51.1888 54.569 51.5078 54.25C51.8268 53.931 51.9225 53.5163 51.7949 53.0059C51.7311 52.4954 51.8587 52.0807 52.1777 51.7617C52.3053 51.6341 52.4967 51.5065 52.752 51.3789C53.0072 51.2513 53.2305 51.1237 53.4219 50.9961C54.2513 50.4219 54.9531 49.8477 55.5273 49.2734C56.1016 48.6992 56.8991 48.2845 57.9199 48.0293C58.8132 47.3275 59.6107 46.6257 60.3125 45.9238C61.0781 45.222 61.8438 44.584 62.6094 44.0098C63.375 43.4355 64.2044 42.9889 65.0977 42.6699C65.9909 42.2871 67.1074 42.0957 68.4473 42.0957C68.7025 42.0957 68.9577 42.1276 69.2129 42.1914C69.4681 42.1914 69.7233 42.1914 69.9785 42.1914C72.5944 44.6159 74.2214 47.5827 74.8594 51.0918C74.1576 51.985 73.5833 52.9421 73.1367 53.9629C72.7539 54.9837 72.3073 56.0046 71.7969 57.0254C70.7122 57.4082 69.6914 57.9824 68.7344 58.748C67.7773 59.4499 66.8203 60.1836 65.8633 60.9492C64.9701 61.7148 64.013 62.3848 62.9922 62.959C62.0352 63.5332 60.9505 63.8203 59.7383 63.8203C59.2279 64.2669 58.3984 65.0007 57.25 66.0215C56.1654 66.9785 55.0169 67.9993 53.8047 69.084C52.6562 70.1686 51.5716 71.1895 50.5508 72.1465C49.5938 73.1035 48.9876 73.7734 48.7324 74.1562C48.541 74.4753 48.3815 74.7624 48.2539 75.0176C48.1263 75.2728 47.9987 75.5599 47.8711 75.8789L45.3828 80.0898C43.9792 82.5143 42.5436 84.9069 41.0762 87.2676C39.6087 89.5645 38.3327 91.9889 37.248 94.541C36.7376 95.6895 36.3229 96.8379 36.0039 97.9863C35.6849 99.1348 35.3659 100.347 35.0469 101.623C34.9193 102.006 34.7598 102.389 34.5684 102.771C34.377 103.154 34.2174 103.505 34.0898 103.824C33.388 105.164 32.8138 106.408 32.3672 107.557C31.9206 108.705 31.6654 110.045 31.6016 111.576C30.0065 115.149 28.5072 118.754 27.1035 122.391C25.7637 125.964 24.7428 129.664 24.041 133.492C24.4238 134.768 24.5833 136.076 24.5195 137.416C24.5195 138.692 24.5195 139.968 24.5195 141.244C24.5195 142.839 24.6152 144.147 24.8066 145.168C25.0618 146.253 25.3809 147.21 25.7637 148.039C26.2103 148.932 26.6888 149.826 27.1992 150.719C27.7096 151.676 28.252 152.792 28.8262 154.068C29.7832 154.834 30.6445 155.632 31.4102 156.461C32.1758 157.354 32.9095 158.311 33.6113 159.332C36.0358 160.544 38.4922 161.15 40.9805 161.15C42.7669 161.15 44.5853 160.863 46.4355 160.289C48.2858 159.715 50.0723 158.981 51.7949 158.088C53.5814 157.258 55.304 156.333 56.9629 155.312C58.6217 154.292 60.2168 153.303 61.748 152.346C64.4277 150.751 66.7565 149.028 68.7344 147.178C70.7122 145.327 72.4987 143.382 74.0938 141.34C75.7526 139.298 77.2839 137.129 78.6875 134.832C80.0911 132.471 81.5586 129.983 83.0898 127.367C83.1536 127.048 83.2812 126.665 83.4727 126.219L84.0469 124.783C84.2383 124.273 84.3978 123.826 84.5254 123.443C84.7168 122.997 84.8125 122.71 84.8125 122.582C84.8125 122.072 84.6849 121.721 84.4297 121.529C84.2383 121.274 84.1426 121.019 84.1426 120.764C84.1426 120.253 84.2702 119.902 84.5254 119.711C84.7806 119.52 85.0677 119.328 85.3867 119.137C85.7695 118.945 86.0885 118.722 86.3438 118.467C86.6628 118.212 86.8223 117.733 86.8223 117.031C86.6947 116.967 86.4714 116.936 86.1523 116.936C85.8333 116.936 85.5143 116.967 85.1953 117.031C84.8763 117.095 84.5573 117.127 84.2383 117.127C83.4727 117.127 82.8346 116.872 82.3242 116.361C82.0052 116.489 81.6862 116.712 81.3672 117.031C81.0482 117.286 80.7292 117.574 80.4102 117.893C80.1549 118.212 79.8997 118.499 79.6445 118.754C79.3893 119.009 79.166 119.137 78.9746 119.137C78.6556 119.137 78.4004 119.073 78.209 118.945C78.0814 118.818 77.89 118.754 77.6348 118.754C76.5501 118.754 75.5931 119.009 74.7637 119.52C73.9342 120.03 73.041 120.445 72.084 120.764C71.8926 120.764 71.7012 120.764 71.5098 120.764C71.3184 120.7 71.127 120.668 70.9355 120.668C70.2337 120.668 69.5319 120.796 68.8301 121.051C68.1921 121.242 67.554 121.465 66.916 121.721C66.3418 121.976 65.7357 122.199 65.0977 122.391C64.4596 122.582 63.8216 122.646 63.1836 122.582C61.7799 123.092 60.472 123.635 59.2598 124.209C58.1113 124.783 56.7715 125.007 55.2402 124.879C54.7936 125.07 54.3151 125.294 53.8047 125.549C53.3581 125.74 52.9115 125.995 52.4648 126.314C52.082 126.442 51.7949 126.506 51.6035 126.506C51.2845 126.506 51.0293 126.346 50.8379 126.027C50.3275 126.602 49.6576 127.016 48.8281 127.271C47.9987 127.463 47.1374 127.654 46.2441 127.846C45.3509 127.973 44.4896 128.165 43.6602 128.42C42.8945 128.611 42.2884 129.026 41.8418 129.664C41.14 129.09 40.3105 128.803 39.3535 128.803C38.3965 128.803 37.4714 128.994 36.5781 129.377C35.6849 129.696 34.7279 129.855 33.707 129.855C33.3242 129.855 33.069 129.792 32.9414 129.664C32.6862 128.962 32.3991 128.26 32.0801 127.559C31.7611 126.857 31.2507 126.346 30.5488 126.027C30.4212 125.326 30.2936 124.656 30.166 124.018C30.1022 123.316 30.0703 122.646 30.0703 122.008C30.0703 120.285 30.5807 118.722 31.6016 117.318C32.4948 116.999 33.388 116.744 34.2812 116.553C35.2383 116.298 36.1634 116.01 37.0566 115.691C37.7585 115.819 38.4603 115.915 39.1621 115.979C39.8639 116.042 40.5658 116.074 41.2676 116.074C43.8835 116.074 46.4355 115.755 48.9238 115.117C51.4121 114.415 53.8685 113.682 56.293 112.916C58.5898 112.214 60.9186 111.576 63.2793 111.002C65.64 110.428 68.0007 109.79 70.3613 109.088C72.5944 108.514 74.7956 107.876 76.9648 107.174C79.1341 106.408 81.3991 105.93 83.7598 105.738C85.291 104.654 87.1413 103.92 89.3105 103.537C91.5436 103.154 93.5853 102.74 95.4355 102.293C98.3704 101.591 101.273 100.889 104.145 100.188C107.016 99.4219 109.951 98.752 112.949 98.1777C116.267 97.4759 119.489 96.6146 122.615 95.5938C125.805 94.5729 128.995 93.4883 132.186 92.3398H133.143C134.227 92.3398 135.344 92.2122 136.492 91.957C137.641 91.7018 138.789 91.5742 139.938 91.5742C140.257 91.5742 140.512 91.6061 140.703 91.6699C140.958 91.6699 141.214 91.6699 141.469 91.6699C141.66 91.6699 142.139 91.5423 142.904 91.2871C143.67 90.9681 144.212 90.7448 144.531 90.6172C145.361 91.5104 146.286 92.3079 147.307 93.0098C148.327 93.7116 149.221 94.5091 149.986 95.4023ZM186.066 162.777C185.875 163.862 185.428 164.628 184.727 165.074C184.089 165.585 183.482 166.286 182.908 167.18H182.525C181.887 167.18 181.249 167.243 180.611 167.371C180.037 167.499 179.431 167.658 178.793 167.85C178.474 167.722 178.091 167.626 177.645 167.562C177.198 167.499 176.911 167.275 176.783 166.893C176.273 167.148 175.571 167.275 174.678 167.275C173.21 167.275 171.807 166.861 170.467 166.031C169.191 165.202 167.851 164.564 166.447 164.117C166.064 163.352 165.586 162.65 165.012 162.012C164.501 161.438 163.959 160.863 163.385 160.289C162.874 159.715 162.364 159.109 161.854 158.471C161.343 157.833 160.928 157.067 160.609 156.174C160.482 155.791 160.322 155.568 160.131 155.504C159.939 155.44 159.652 155.44 159.27 155.504C159.333 154.802 159.238 154.196 158.982 153.686C158.791 153.175 158.312 152.856 157.547 152.729C157.547 151.899 157.419 151.197 157.164 150.623C156.909 150.049 156.59 149.538 156.207 149.092C155.888 148.709 155.505 148.294 155.059 147.848C154.676 147.401 154.357 146.859 154.102 146.221C153.527 146.093 152.953 145.997 152.379 145.934C151.868 145.934 151.294 145.934 150.656 145.934C147.594 145.934 144.627 146.508 141.756 147.656C141.437 147.784 141.086 147.943 140.703 148.135C140.384 148.326 140.065 148.486 139.746 148.613C139.618 148.613 139.491 148.613 139.363 148.613C139.299 148.677 139.204 148.709 139.076 148.709C138.63 148.709 138.215 148.613 137.832 148.422C137.449 148.294 137.035 148.23 136.588 148.23C136.396 148.23 136.173 148.262 135.918 148.326C135.727 148.454 135.535 148.549 135.344 148.613C134.387 148.932 133.493 149.124 132.664 149.188C130.048 149.698 127.273 150.081 124.338 150.336C121.467 150.591 118.819 151.261 116.395 152.346C115.884 152.601 115.565 152.984 115.438 153.494C115.31 154.068 115.278 154.611 115.342 155.121C114.64 155.632 114.098 156.301 113.715 157.131C113.396 157.96 113.077 158.822 112.758 159.715C112.503 160.672 112.215 161.597 111.896 162.49C111.577 163.383 111.131 164.149 110.557 164.787C110.748 165.17 110.844 165.585 110.844 166.031C110.844 166.988 110.525 167.945 109.887 168.902C109.249 169.859 108.77 170.785 108.451 171.678C108.132 172.571 107.877 173.432 107.686 174.262C107.494 175.155 107.207 175.952 106.824 176.654C106.441 177.356 105.931 177.93 105.293 178.377C104.591 178.824 103.634 179.047 102.422 179.047C101.273 179.047 100.285 178.824 99.4551 178.377C98.6257 177.93 97.9557 177.356 97.4453 176.654C96.9349 175.952 96.5202 175.123 96.2012 174.166C95.8822 173.209 95.627 172.252 95.4355 171.295C96.1374 169.891 96.8073 168.679 97.4453 167.658C98.0833 166.637 98.5618 165.329 98.8809 163.734C100.029 162.905 100.891 161.884 101.465 160.672C101.975 159.523 102.262 158.247 102.326 156.844C103.028 156.397 103.538 155.791 103.857 155.025C104.113 154.324 104.272 153.558 104.336 152.729C102.805 152.601 101.21 152.473 99.5508 152.346C97.8281 152.218 96.2331 151.899 94.7656 151.389C94.7656 151.261 94.7975 151.133 94.8613 151.006C94.8613 150.878 94.8613 150.751 94.8613 150.623C94.8613 149.794 94.6699 149.028 94.2871 148.326C93.9043 147.688 93.7129 146.986 93.7129 146.221V145.455C94.2233 144.945 94.7018 144.402 95.1484 143.828C95.5312 143.318 95.946 142.839 96.3926 142.393C96.8392 141.946 97.3496 141.563 97.9238 141.244C98.498 140.989 99.2318 140.861 100.125 140.861C101.337 140.861 102.518 140.925 103.666 141.053C104.814 141.244 105.995 141.34 107.207 141.34C108.036 141.34 108.898 141.244 109.791 141.053C111.195 138.182 112.439 135.279 113.523 132.344C114.608 129.345 115.438 126.314 116.012 123.252C116.458 122.614 116.873 121.88 117.256 121.051C117.639 120.158 117.926 119.232 118.117 118.275C118.372 117.318 118.532 116.393 118.596 115.5C118.723 114.543 118.787 113.682 118.787 112.916C119.489 112.087 119.967 111.066 120.223 109.854C120.542 108.641 120.797 107.397 120.988 106.121C121.18 104.781 121.371 103.473 121.562 102.197C121.818 100.921 122.264 99.8047 122.902 98.8477V97.9863C122.966 97.0293 122.87 96.168 122.615 95.4023C122.934 95.2747 123.126 94.9876 123.189 94.541C123.253 94.0944 123.381 93.7116 123.572 93.3926C123.636 90.4577 123.955 87.5866 124.529 84.7793C125.104 81.9082 125.582 79.0371 125.965 76.166V75.8789C125.965 75.5599 125.837 75.4004 125.582 75.4004C125.391 75.3366 125.295 75.1452 125.295 74.8262C125.295 74.252 125.359 73.4863 125.486 72.5293C125.678 71.5723 125.805 70.7747 125.869 70.1367C126.252 66.6914 126.443 63.278 126.443 59.8965C126.443 57.0254 126.348 54.1862 126.156 51.3789C125.965 48.5716 125.773 45.7324 125.582 42.8613L126.348 41.7129C126.603 41.3301 126.826 40.9473 127.018 40.5645C127.656 40.3092 128.166 40.054 128.549 39.7988C128.995 39.4798 129.57 39.3203 130.271 39.3203C130.463 39.3203 130.622 39.3522 130.75 39.416C130.878 39.416 131.005 39.416 131.133 39.416C131.516 39.6712 131.803 40.0221 131.994 40.4688C132.249 40.9154 132.473 41.3301 132.664 41.7129C132.919 42.0957 133.238 42.4147 133.621 42.6699C134.004 42.9251 134.546 42.9889 135.248 42.8613C135.567 44.6478 136.46 45.5729 137.928 45.6367C138.247 46.5299 138.63 47.4232 139.076 48.3164C139.587 49.2096 140.257 49.9115 141.086 50.4219C141.022 50.6771 140.99 51.028 140.99 51.4746C140.99 52.3678 141.182 53.2292 141.564 54.0586C142.011 54.888 142.553 55.6536 143.191 56.3555V56.5469C143.191 57.2487 142.936 57.7272 142.426 57.9824C143 58.6204 143.415 59.3861 143.67 60.2793C143.925 61.1725 144.148 62.0977 144.34 63.0547C144.531 63.9479 144.755 64.8092 145.01 65.6387C145.329 66.4681 145.839 67.1061 146.541 67.5527V67.8398C146.541 68.1589 146.413 68.3503 146.158 68.4141C145.967 68.4779 145.871 68.6693 145.871 68.9883C147.02 71.0938 147.817 73.3906 148.264 75.8789C148.71 78.3672 149.285 80.7598 149.986 83.0566C150.242 83.3118 150.529 83.4714 150.848 83.5352C151.23 83.599 151.518 83.7585 151.709 84.0137C151.326 84.2689 151.135 84.7155 151.135 85.3535C151.135 85.9915 150.975 86.4701 150.656 86.7891C151.167 87.2357 151.39 87.9056 151.326 88.7988C151.326 89.6283 151.581 90.2344 152.092 90.6172V91C152.092 91.2552 152.028 91.4785 151.9 91.6699C151.773 91.7975 151.709 91.9889 151.709 92.2441V92.627C152.219 94.86 152.602 97.0931 152.857 99.3262C153.176 101.559 153.495 103.792 153.814 106.025C154.133 108.258 154.484 110.492 154.867 112.725C155.25 114.894 155.792 117.031 156.494 119.137C156.558 119.201 156.59 119.296 156.59 119.424C156.59 119.743 156.462 119.934 156.207 119.998C155.952 119.998 155.824 120.158 155.824 120.477C155.824 120.796 155.92 121.178 156.111 121.625C156.367 122.008 156.622 122.327 156.877 122.582C156.813 122.837 156.781 123.22 156.781 123.73C156.781 124.688 156.941 125.613 157.26 126.506C157.643 127.399 158.025 128.292 158.408 129.186C158.855 130.015 159.238 130.908 159.557 131.865C159.876 132.822 160.003 133.843 159.939 134.928C160.322 135.502 160.801 135.98 161.375 136.363C162.013 136.746 162.651 137.097 163.289 137.416C163.927 137.735 164.501 138.118 165.012 138.564C165.586 139.011 165.969 139.617 166.16 140.383C165.65 140.829 165.299 141.372 165.107 142.01C164.916 142.712 164.565 143.318 164.055 143.828C164.501 144.913 165.012 145.902 165.586 146.795C166.224 147.752 166.862 148.677 167.5 149.57L169.51 152.25C170.212 153.143 170.818 154.1 171.328 155.121C172.03 155.121 172.54 155.312 172.859 155.695C173.178 156.078 173.689 156.238 174.391 156.174C174.646 156.684 174.742 157.258 174.678 157.896C175.954 157.45 177.23 157.227 178.506 157.227C179.208 157.227 179.846 157.258 180.42 157.322C181.058 157.386 181.696 157.418 182.334 157.418C183.1 157.418 183.77 157.322 184.344 157.131C184.599 157.514 184.79 157.928 184.918 158.375C185.046 158.885 185.141 159.396 185.205 159.906L185.492 161.438C185.62 161.948 185.811 162.395 186.066 162.777ZM149.986 136.268C149.093 131.865 148.168 127.495 147.211 123.156C146.318 118.754 145.52 114.32 144.818 109.854C144.436 107.493 144.148 105.132 143.957 102.771C143.766 100.411 143.51 98.082 143.191 95.7852C142.936 93.4245 142.553 91.0957 142.043 88.7988C141.596 86.502 140.926 84.237 140.033 82.0039V81.8125C140.033 81.6211 140.097 81.4616 140.225 81.334C140.352 81.2064 140.416 80.9831 140.416 80.6641V80.2812C139.587 79.707 139.012 78.9095 138.693 77.8887C138.374 76.804 138.087 75.6875 137.832 74.5391C137.641 73.3268 137.354 72.1784 136.971 71.0938C136.652 69.9453 136.077 68.9883 135.248 68.2227C134.929 71.9232 134.578 75.6237 134.195 79.3242C133.876 82.9609 133.653 86.6296 133.525 90.3301C132.887 90.7129 132.473 91.3509 132.281 92.2441C132.09 93.1374 131.994 93.9349 131.994 94.6367C131.994 95.1471 132.026 95.6895 132.09 96.2637C132.154 96.7741 132.281 97.3164 132.473 97.8906C131.324 100.762 130.495 103.729 129.984 106.791C129.474 109.79 128.9 112.788 128.262 115.787C128.198 115.979 128.07 116.425 127.879 117.127C127.751 117.765 127.592 118.435 127.4 119.137C127.209 119.839 127.049 120.477 126.922 121.051C126.794 121.561 126.73 121.848 126.73 121.912C126.667 122.359 126.635 122.805 126.635 123.252C126.699 123.699 126.73 124.145 126.73 124.592L125.295 126.027C125.04 128.452 124.561 130.812 123.859 133.109C123.221 135.342 122.551 137.639 121.85 140C122.296 140.064 122.711 140.096 123.094 140.096C123.54 140.16 123.987 140.191 124.434 140.191C126.475 140.191 128.517 140.064 130.559 139.809C132.664 139.49 134.738 139.202 136.779 138.947C137.481 138.82 138.215 138.724 138.98 138.66C139.746 138.533 140.48 138.469 141.182 138.469C141.501 138.405 141.883 138.405 142.33 138.469C142.777 138.469 143.16 138.437 143.479 138.373C143.989 138.245 144.308 138.054 144.436 137.799C144.627 137.48 144.978 137.288 145.488 137.225C145.871 137.416 146.318 137.512 146.828 137.512C147.402 137.512 147.945 137.384 148.455 137.129C148.965 136.874 149.476 136.587 149.986 136.268ZM285.023 123.73C285.023 124.56 284.8 125.326 284.354 126.027C283.907 126.665 283.779 127.431 283.971 128.324C283.715 128.771 283.365 129.122 282.918 129.377C282.535 129.632 282.408 130.111 282.535 130.812C281.195 131.514 279.951 132.408 278.803 133.492C277.718 134.513 276.538 135.502 275.262 136.459C274.496 137.033 273.826 137.448 273.252 137.703C272.742 137.895 272.104 138.214 271.338 138.66L268.945 140.191C267.861 140.766 266.744 141.34 265.596 141.914C264.511 142.488 263.522 143.222 262.629 144.115C261.289 144.179 259.917 144.53 258.514 145.168C257.11 145.87 255.77 146.476 254.494 146.986C253.984 147.178 253.473 147.305 252.963 147.369C252.452 147.497 251.942 147.688 251.432 147.943L249.9 148.613C249.007 149.06 247.954 149.507 246.742 149.953C245.53 150.464 244.445 150.719 243.488 150.719C242.914 150.974 242.436 151.421 242.053 152.059C239.947 152.76 237.778 153.303 235.545 153.686C233.312 154.068 231.143 154.674 229.037 155.504C228.335 155.823 227.602 156.238 226.836 156.748C226.134 157.322 225.368 157.577 224.539 157.514C224.348 157.833 224.22 158.215 224.156 158.662C224.092 159.109 223.997 159.555 223.869 160.002H223.582C223.327 160.002 223.199 159.874 223.199 159.619C223.263 159.364 223.167 159.236 222.912 159.236C222.721 159.236 222.593 159.268 222.529 159.332C221.7 159.523 220.902 159.683 220.137 159.811C219.435 159.938 218.637 160.002 217.744 160.002C217.234 160.002 216.404 159.938 215.256 159.811C214.171 159.683 213.374 159.523 212.863 159.332C212.48 159.141 212.161 158.79 211.906 158.279C211.651 157.769 211.396 157.227 211.141 156.652C210.949 156.078 210.758 155.472 210.566 154.834C210.439 154.26 210.311 153.781 210.184 153.398C210.375 152.697 210.694 152.122 211.141 151.676C211.587 151.229 211.938 150.655 212.193 149.953C212.768 149.889 213.342 149.794 213.916 149.666C214.49 149.538 215.064 149.507 215.639 149.57C217.617 148.996 219.594 148.422 221.572 147.848C223.614 147.337 225.624 146.795 227.602 146.221C229.579 145.646 231.525 145.008 233.439 144.307C235.354 143.605 237.204 142.743 238.99 141.723H241C242.148 141.085 243.424 140.542 244.828 140.096C246.232 139.649 247.38 138.915 248.273 137.895C250.379 137.448 252.58 136.842 254.877 136.076C257.174 135.311 259.088 134.098 260.619 132.439C261.576 132.312 262.406 132.089 263.107 131.77C263.809 131.387 264.479 131.004 265.117 130.621L267.031 129.377C267.669 128.93 268.403 128.579 269.232 128.324C269.743 127.814 270.221 127.271 270.668 126.697C271.115 126.123 271.657 125.645 272.295 125.262C272.104 124.241 271.593 123.475 270.764 122.965C269.934 122.454 269.201 121.848 268.562 121.146H266.457C264.798 120.126 263.012 119.36 261.098 118.85C259.247 118.275 257.397 117.669 255.547 117.031C255.419 116.967 255.26 116.936 255.068 116.936C254.622 116.936 254.335 117.095 254.207 117.414C254.143 117.733 253.888 117.861 253.441 117.797C252.867 117.414 252.261 117.191 251.623 117.127C250.985 116.999 250.315 116.936 249.613 116.936C248.72 116.936 247.827 116.999 246.934 117.127C246.104 117.191 245.243 117.223 244.35 117.223C243.903 117.223 243.456 117.191 243.01 117.127C242.563 117.063 242.117 116.904 241.67 116.648H240.426C239.086 116.648 237.746 116.712 236.406 116.84C235.13 116.904 233.854 116.936 232.578 116.936C231.876 116.936 231.206 116.936 230.568 116.936C229.93 116.872 229.292 116.776 228.654 116.648C227.314 117.286 225.879 117.733 224.348 117.988C222.816 118.243 221.221 118.435 219.562 118.562C217.967 118.69 216.372 118.818 214.777 118.945C213.182 119.009 211.651 119.169 210.184 119.424C209.801 119.36 209.418 119.328 209.035 119.328C208.716 119.264 208.397 119.232 208.078 119.232C207.759 119.232 207.408 119.264 207.025 119.328C206.706 119.328 206.387 119.36 206.068 119.424C205.239 118.531 204.218 117.893 203.006 117.51C201.857 117.063 200.709 116.776 199.561 116.648C198.667 115.564 197.997 114.479 197.551 113.395C197.168 112.246 196.913 110.97 196.785 109.566H197.168C197.615 109.566 197.806 109.343 197.742 108.896C197.742 108.45 197.902 108.067 198.221 107.748C198.54 107.365 198.954 107.11 199.465 106.982C200.039 106.791 200.581 106.6 201.092 106.408C201.602 106.217 202.081 105.993 202.527 105.738C203.038 105.419 203.421 104.941 203.676 104.303H204.92C205.175 104.303 205.43 104.335 205.686 104.398C206.005 104.398 206.26 104.494 206.451 104.686C206.706 104.43 207.025 104.207 207.408 104.016C207.791 103.824 208.142 103.633 208.461 103.441C208.844 103.25 209.163 103.027 209.418 102.771C209.673 102.516 209.833 102.133 209.896 101.623C209.96 101.814 210.12 101.91 210.375 101.91C210.63 101.91 210.854 101.846 211.045 101.719C211.3 101.591 211.587 101.559 211.906 101.623C212.225 100.73 212.768 100.251 213.533 100.188C214.299 100.124 215.001 99.9004 215.639 99.5176C216.085 99.2624 216.5 98.9753 216.883 98.6562C217.266 98.2734 217.68 97.9225 218.127 97.6035L223.869 93.2012L232.674 86.502C235.609 84.2689 238.607 82.1953 241.67 80.2812C241.798 79.8984 241.989 79.6113 242.244 79.4199C242.499 79.2285 242.755 79.0371 243.01 78.8457C243.265 78.5905 243.456 78.3353 243.584 78.0801C243.775 77.8249 243.839 77.4421 243.775 76.9316C244.669 76.7402 245.339 76.3893 245.785 75.8789C246.296 75.3685 246.742 74.8262 247.125 74.252C247.508 73.6139 247.891 73.0078 248.273 72.4336C248.72 71.7956 249.294 71.3171 249.996 70.998C249.932 70.8066 249.9 70.5195 249.9 70.1367C249.9 69.6263 249.932 69.1159 249.996 68.6055C250.124 68.0951 250.379 67.6484 250.762 67.2656C250.188 65.9258 249.199 64.9688 247.795 64.3945C246.391 63.7565 245.051 63.2142 243.775 62.7676H243.488C243.169 62.7676 242.978 62.9271 242.914 63.2461C242.914 63.5013 242.755 63.6927 242.436 63.8203C241.415 63.5651 240.266 63.4375 238.99 63.4375C237.714 63.4375 236.438 63.5332 235.162 63.7246C233.95 63.916 232.706 63.9479 231.43 63.8203C231.238 64.0755 231.015 64.3307 230.76 64.5859C230.568 64.8411 230.313 65.0645 229.994 65.2559C228.654 65.3197 227.314 65.5111 225.975 65.8301L221.955 66.7871L219.754 67.2656C219.435 67.3932 219.212 67.6165 219.084 67.9355C218.956 68.2546 218.861 68.6055 218.797 68.9883C218.414 68.9245 218.159 68.765 218.031 68.5098C217.967 68.2546 217.744 68.0632 217.361 67.9355C215.894 68.8288 214.299 69.5625 212.576 70.1367C210.917 70.7109 209.418 71.6042 208.078 72.8164C207.632 72.306 206.993 72.0508 206.164 72.0508C205.462 72.0508 204.697 72.2741 203.867 72.7207C203.038 73.1673 202.527 73.7415 202.336 74.4434C201.698 74.3158 201.219 74.252 200.9 74.252C200.199 74.252 199.592 74.4434 199.082 74.8262C198.635 75.209 198.189 75.6556 197.742 76.166C197.296 76.6126 196.817 77.0592 196.307 77.5059C195.796 77.9525 195.158 78.2077 194.393 78.2715C194.393 78.5905 194.393 78.9414 194.393 79.3242C194.456 79.6432 194.488 79.9941 194.488 80.377C194.488 83.248 194.329 86.1191 194.01 88.9902C193.691 91.7975 193.531 94.6367 193.531 97.5078C193.531 98.1458 193.563 98.7839 193.627 99.4219C193.691 99.9961 193.723 100.634 193.723 101.336C193.723 101.527 193.563 101.942 193.244 102.58C192.989 103.218 192.798 103.697 192.67 104.016C192.925 104.717 193.021 105.419 192.957 106.121C192.957 106.823 193.117 107.493 193.436 108.131C192.861 108.641 192.574 109.343 192.574 110.236C192.574 110.619 192.574 111.002 192.574 111.385C192.638 111.768 192.67 112.15 192.67 112.533V113.682C192.479 114.958 192.351 116.266 192.287 117.605C192.223 118.882 192.191 120.158 192.191 121.434C192.191 122.008 192.191 122.997 192.191 124.4C192.255 125.74 192.351 127.271 192.479 128.994C192.606 130.653 192.798 132.376 193.053 134.162C193.308 135.949 193.627 137.607 194.01 139.139C194.456 140.606 194.999 141.818 195.637 142.775C196.275 143.732 197.04 144.211 197.934 144.211C198.125 144.211 198.348 144.179 198.604 144.115C198.923 144.051 199.082 143.892 199.082 143.637C199.082 143.382 199.018 143.158 198.891 142.967C198.827 142.775 198.795 142.552 198.795 142.297L198.891 142.105C199.401 142.361 199.943 142.52 200.518 142.584C201.156 142.648 201.794 142.712 202.432 142.775C203.07 142.839 203.676 142.935 204.25 143.062C204.824 143.254 205.335 143.605 205.781 144.115C205.526 144.626 205.398 145.168 205.398 145.742C205.398 146.508 205.59 147.21 205.973 147.848C206.355 148.549 206.611 149.251 206.738 149.953C205.526 150.336 204.41 150.751 203.389 151.197C202.432 151.708 201.475 152.154 200.518 152.537C199.561 152.984 198.54 153.367 197.455 153.686C196.37 154.068 195.126 154.324 193.723 154.451C192.829 153.877 192.064 153.367 191.426 152.92C190.788 152.473 189.926 152.186 188.842 152.059C187.183 149.826 185.811 147.305 184.727 144.498C183.642 141.755 182.781 138.883 182.143 135.885C181.568 132.886 181.154 129.887 180.898 126.889C180.707 123.826 180.611 120.955 180.611 118.275C180.611 115.34 180.707 112.438 180.898 109.566C181.154 106.632 181.473 103.697 181.855 100.762C181.983 99.8685 182.111 98.9753 182.238 98.082C182.366 97.125 182.493 96.1999 182.621 95.3066C182.749 94.9876 182.844 94.6367 182.908 94.2539C183.036 93.8073 183.1 93.4245 183.1 93.1055C183.1 92.0208 183.068 90.9362 183.004 89.8516C182.94 88.7669 182.908 87.7142 182.908 86.6934C182.908 85.0983 183.004 83.4714 183.195 81.8125C183.259 81.4935 183.355 81.0788 183.482 80.5684C183.674 80.0579 183.77 79.6113 183.77 79.2285C183.77 78.7181 183.642 78.3672 183.387 78.1758C183.132 77.9844 182.908 77.6654 182.717 77.2188C182.908 76.5807 183.068 75.9746 183.195 75.4004C183.323 74.7624 183.387 74.1243 183.387 73.4863C183.387 72.2741 183.163 71.2214 182.717 70.3281C183.036 68.6693 183.514 67.0423 184.152 65.4473C184.79 63.8522 185.907 62.64 187.502 61.8105C188.778 61.8743 190.054 62.002 191.33 62.1934C192.67 62.3848 193.818 62.9271 194.775 63.8203C195.222 63.5651 195.732 63.4056 196.307 63.3418L198.125 63.1504C198.763 63.0866 199.337 62.9909 199.848 62.8633C200.358 62.6719 200.805 62.321 201.188 61.8105C202.464 61.5553 203.835 61.2044 205.303 60.7578C206.77 60.2474 208.046 59.6732 209.131 59.0352H211.236C211.683 58.7161 212.193 58.4928 212.768 58.3652L214.586 57.8867C215.224 57.6953 215.798 57.5039 216.309 57.3125C216.883 57.1211 217.329 56.8021 217.648 56.3555H218.031C219.499 56.3555 220.934 56.0365 222.338 55.3984C223.742 54.7604 225.113 54.1862 226.453 53.6758C226.772 53.5482 227.251 53.3249 227.889 53.0059C228.59 52.6868 229.069 52.5273 229.324 52.5273C230.217 52.3997 231.111 52.3359 232.004 52.3359C232.897 52.2721 233.79 52.1445 234.684 51.9531C236.725 51.6341 238.735 51.2832 240.713 50.9004C242.755 50.4538 244.796 50.2305 246.838 50.2305C247.54 50.2305 248.178 50.2624 248.752 50.3262C249.39 50.3262 250.06 50.3581 250.762 50.4219C250.826 50.6771 250.985 50.9004 251.24 51.0918C251.495 51.2194 251.719 51.347 251.91 51.4746C252.165 51.6022 252.389 51.7936 252.58 52.0488C252.771 52.2402 252.835 52.5273 252.771 52.9102C252.899 53.0378 253.027 53.1016 253.154 53.1016C253.346 53.1016 253.505 53.0059 253.633 52.8145C253.824 52.623 254.079 52.5273 254.398 52.5273H254.877C255.706 53.4206 256.504 54.2819 257.27 55.1113C258.099 55.877 259.12 56.515 260.332 57.0254C260.842 58.9395 261.449 60.8216 262.15 62.6719C262.852 64.5221 263.203 66.5 263.203 68.6055C263.203 69.8815 263.012 71.1257 262.629 72.3379C261.736 72.7845 261.098 73.4863 260.715 74.4434C260.332 75.4004 259.981 76.3255 259.662 77.2188C257.876 78.112 256.376 79.2923 255.164 80.7598C253.952 82.2272 252.708 83.6947 251.432 85.1621H249.9C249.645 85.1621 249.454 85.2578 249.326 85.4492L248.465 86.4062C247.891 86.9167 247.253 87.4271 246.551 87.9375C245.913 88.4479 245.434 89.1178 245.115 89.9473C243.137 91.0319 241.223 92.2441 239.373 93.584C237.587 94.9238 235.864 96.3275 234.205 97.7949C233.503 98.3691 232.801 99.0391 232.1 99.8047C231.398 100.507 230.696 101.113 229.994 101.623C229.611 101.942 229.165 102.229 228.654 102.484C228.208 102.676 227.793 102.931 227.41 103.25C226.581 103.888 225.815 104.558 225.113 105.26C224.411 105.898 223.678 106.504 222.912 107.078C225.783 106.951 228.686 106.887 231.621 106.887C234.556 106.823 237.459 106.759 240.33 106.695C241.798 106.695 243.233 106.663 244.637 106.6C246.04 106.472 247.476 106.408 248.943 106.408C249.199 106.408 249.422 106.472 249.613 106.6C249.805 106.663 250.028 106.727 250.283 106.791C251.368 106.982 252.325 107.206 253.154 107.461C256.217 108.035 259.279 108.546 262.342 108.992C265.404 109.439 268.403 110.173 271.338 111.193C272.167 111.512 272.773 111.863 273.156 112.246C273.603 112.629 274.368 112.725 275.453 112.533C276.346 113.426 277.303 114.128 278.324 114.639C279.409 115.149 280.493 115.596 281.578 115.979C282.408 117.255 283.173 118.467 283.875 119.615C284.641 120.764 285.023 122.135 285.023 123.73ZM404.461 143.924C404.333 145.2 403.887 146.189 403.121 146.891C402.355 147.656 401.367 148.039 400.154 148.039C399.516 148.039 398.91 147.943 398.336 147.752C397.124 148.709 395.688 149.443 394.029 149.953C392.37 150.464 390.807 150.974 389.34 151.484C387.553 151.421 385.799 151.261 384.076 151.006C382.354 150.751 380.567 150.687 378.717 150.814C378.079 150.368 377.409 150.081 376.707 149.953C376.005 149.826 375.271 149.73 374.506 149.666C373.804 149.666 373.102 149.57 372.4 149.379C371.762 149.188 371.124 148.741 370.486 148.039H365.701C365.255 148.039 364.585 147.816 363.691 147.369C362.862 146.986 361.905 146.572 360.82 146.125C359.799 145.678 358.683 145.264 357.471 144.881C356.322 144.498 355.238 144.307 354.217 144.307H353.643C352.941 143.732 352.111 143.286 351.154 142.967C350.261 142.712 349.336 142.456 348.379 142.201C347.422 142.01 346.497 141.786 345.604 141.531C344.71 141.276 343.945 140.925 343.307 140.479C342.669 140.032 341.935 139.585 341.105 139.139C340.276 138.628 339.415 138.405 338.521 138.469C337.309 137.767 336.033 137.161 334.693 136.65C333.417 136.14 332.109 135.661 330.77 135.215L326.846 133.779C325.57 133.269 324.294 132.663 323.018 131.961C322.826 132.025 322.603 132.025 322.348 131.961C322.092 131.897 321.869 131.865 321.678 131.865C321.295 131.865 321.072 131.993 321.008 132.248C320.561 131.801 320.051 131.419 319.477 131.1C318.966 130.781 318.456 130.398 317.945 129.951C317.69 130.015 317.435 130.079 317.18 130.143C316.988 130.143 316.733 130.143 316.414 130.143C315.84 130.143 315.266 130.079 314.691 129.951C314.181 129.824 313.671 129.664 313.16 129.473C312.586 130.749 312.203 132.184 312.012 133.779C311.82 135.374 311.661 137.033 311.533 138.756C311.469 140.415 311.374 142.074 311.246 143.732C311.118 145.455 310.831 147.018 310.385 148.422C310.512 148.932 310.576 149.443 310.576 149.953V151.58C310.576 152.665 310.736 153.526 311.055 154.164C310.927 154.738 310.799 155.281 310.672 155.791C310.608 156.301 310.512 156.812 310.385 157.322C310.449 158.024 310.48 158.662 310.48 159.236C310.544 159.874 310.576 160.544 310.576 161.246V162.873C310.576 163.447 310.512 164.021 310.385 164.596C309.747 164.979 309.109 165.329 308.471 165.648C307.833 166.031 307.195 166.478 306.557 166.988C306.11 166.159 305.344 165.68 304.26 165.553C304.005 165.872 303.813 166.286 303.686 166.797C303.622 167.371 303.335 167.658 302.824 167.658C301.931 166.956 301.197 166.382 300.623 165.936C300.049 165.489 299.411 164.819 298.709 163.926C298.645 163.798 298.613 163.639 298.613 163.447C298.613 163.128 298.677 162.841 298.805 162.586C298.932 162.331 298.996 162.076 298.996 161.82C298.996 161.055 298.9 160.385 298.709 159.811C298.581 158.981 298.486 158.152 298.422 157.322C298.358 156.557 298.326 155.791 298.326 155.025C298.326 153.941 298.39 152.888 298.518 151.867C298.709 150.846 299.028 149.794 299.475 148.709C300.176 146.859 300.655 144.913 300.91 142.871C301.229 140.829 301.452 138.788 301.58 136.746C301.708 134.641 301.771 132.535 301.771 130.43C301.835 128.324 301.963 126.314 302.154 124.4C301.708 123.38 301.165 122.582 300.527 122.008C299.953 121.37 299.666 120.381 299.666 119.041C299.666 117.829 300.049 116.904 300.814 116.266C301.58 115.564 302.25 114.734 302.824 113.777C302.697 113.395 302.792 113.139 303.111 113.012L304.26 102.963C304.324 102.261 304.419 101.495 304.547 100.666C304.738 99.8366 304.866 99.071 304.93 98.3691C305.057 96.9017 305.121 95.4661 305.121 94.0625C305.121 92.6589 305.185 91.2552 305.312 89.8516C305.632 86.7253 305.919 83.6309 306.174 80.5684C306.493 77.5059 306.652 74.4434 306.652 71.3809C306.652 69.9134 306.589 68.446 306.461 66.9785C306.397 65.5111 306.206 64.0436 305.887 62.5762C304.802 62.8952 303.59 63.2461 302.25 63.6289C300.974 63.9479 299.889 64.5221 298.996 65.3516H298.23C296.572 65.3516 295.008 65.6706 293.541 66.3086C292.137 66.9466 290.702 67.5527 289.234 68.127C288.596 68.446 287.958 68.6693 287.32 68.7969C286.682 68.8607 286.012 68.9883 285.311 69.1797C284.992 69.2435 284.641 69.4349 284.258 69.7539C283.875 70.0729 283.524 70.2962 283.205 70.4238L281.578 70.8066C281.132 70.9342 280.94 71.2214 281.004 71.668C281.068 72.1146 280.908 72.4017 280.525 72.5293C280.206 72.8483 279.76 73.0078 279.186 73.0078C278.611 72.944 278.165 72.9121 277.846 72.9121H277.463C275.868 74.0605 274.337 75.0495 272.869 75.8789C271.338 76.6445 269.551 77.1549 267.51 77.4102L265.404 78.75C264.702 79.1966 263.905 79.4199 263.012 79.4199C262.31 79.4199 261.736 79.2923 261.289 79.0371C260.779 78.2715 260.396 77.4102 260.141 76.4531C259.822 75.4961 259.311 74.6667 258.609 73.9648C258.928 73.6458 259.152 73.2311 259.279 72.7207C259.343 72.1465 259.439 71.6361 259.566 71.1895C261.48 70.36 263.426 69.5625 265.404 68.7969C267.318 68.0312 269.169 67.1061 270.955 66.0215C271.146 66.0853 271.434 66.1172 271.816 66.1172C272.454 66.1172 273.029 66.0215 273.539 65.8301C274.049 65.6387 274.56 65.4154 275.07 65.1602C275.581 64.9049 276.091 64.6816 276.602 64.4902C277.112 64.2988 277.718 64.235 278.42 64.2988C280.589 63.0866 282.886 62.0977 285.311 61.332C287.735 60.5664 290.032 59.5137 292.201 58.1738C292.52 58.1738 292.775 58.2376 292.967 58.3652C293.222 58.4928 293.477 58.5566 293.732 58.5566C293.988 58.5566 294.147 58.5247 294.211 58.4609C294.594 57.9505 295.104 57.5996 295.742 57.4082C296.38 57.153 297.018 56.9616 297.656 56.834C298.358 56.6426 298.996 56.4193 299.57 56.1641C300.208 55.8451 300.623 55.3665 300.814 54.7285C301.133 54.9837 301.612 55.1113 302.25 55.1113C303.335 55.1113 304.324 54.888 305.217 54.4414C306.174 53.9948 307.195 53.7715 308.279 53.7715C308.535 53.7715 308.758 53.8353 308.949 53.9629C309.204 54.0267 309.46 54.0586 309.715 54.0586C310.225 54.0586 310.48 53.8991 310.48 53.5801C310.544 53.2611 310.736 52.974 311.055 52.7188C314.947 52.0169 318.807 51.3789 322.635 50.8047C326.527 50.2305 330.451 49.9434 334.406 49.9434C334.98 49.5605 335.618 49.3691 336.32 49.3691C337.022 49.3691 337.66 49.5605 338.234 49.9434C339.319 49.8158 340.404 49.7201 341.488 49.6562C342.573 49.5924 343.658 49.5605 344.742 49.5605C347.23 49.5605 349.783 49.7201 352.398 50.0391C355.014 50.3581 357.598 50.8685 360.15 51.5703C362.766 52.2083 365.255 53.1016 367.615 54.25C369.976 55.3346 372.177 56.6426 374.219 58.1738C374.41 58.748 374.665 59.3223 374.984 59.8965C375.303 60.4707 375.718 60.9173 376.229 61.2363C376.229 61.3639 376.197 61.4596 376.133 61.5234C376.133 61.5872 376.133 61.6829 376.133 61.8105C376.133 62.5124 376.324 63.1823 376.707 63.8203C377.154 64.4583 377.377 65.224 377.377 66.1172C377.377 67.0104 377.217 67.9036 376.898 68.7969C376.643 69.6901 376.548 70.5833 376.611 71.4766C375.91 72.4974 375.303 73.4225 374.793 74.252C374.346 75.0814 374.059 76.1341 373.932 77.4102C372.783 78.5586 371.762 79.8346 370.869 81.2383C369.976 82.5781 369.051 83.918 368.094 85.2578C367.201 86.5339 366.18 87.7142 365.031 88.7988C363.883 89.8835 362.511 90.7448 360.916 91.3828C360.852 92.0208 360.597 92.7227 360.15 93.4883H358.141C357.949 93.9987 357.63 94.3815 357.184 94.6367L355.844 95.4023C355.397 95.6576 355.014 95.9766 354.695 96.3594C354.44 96.7422 354.312 97.2845 354.312 97.9863C354.185 97.9225 354.025 97.8906 353.834 97.8906C353.196 97.8906 352.43 98.2096 351.537 98.8477C350.708 99.4857 350.038 99.9961 349.527 100.379C348.443 101.145 347.326 101.846 346.178 102.484C345.093 103.122 344.136 104.016 343.307 105.164C340.755 106.249 338.33 107.525 336.033 108.992C333.736 110.396 331.248 111.512 328.568 112.342C327.548 113.426 326.335 114.288 324.932 114.926C323.592 115.5 322.284 116.138 321.008 116.84V117.127C321.008 117.637 321.199 118.148 321.582 118.658C321.965 119.105 322.411 119.52 322.922 119.902C323.432 120.221 323.975 120.445 324.549 120.572C325.187 120.7 325.729 120.7 326.176 120.572C327.452 121.721 328.919 122.646 330.578 123.348C332.237 124.049 333.96 124.688 335.746 125.262C337.533 125.836 339.287 126.442 341.01 127.08C342.732 127.718 344.327 128.516 345.795 129.473H348.092C349.559 130.749 351.282 131.706 353.26 132.344C355.301 132.982 357.247 133.556 359.098 134.066C359.863 134.768 360.82 135.311 361.969 135.693C363.181 136.012 364.329 136.172 365.414 136.172H365.988C366.243 136.172 366.467 136.14 366.658 136.076V136.268C366.658 136.587 366.754 136.81 366.945 136.938C367.137 137.001 367.328 137.065 367.52 137.129C367.775 137.129 367.998 137.193 368.189 137.32C368.445 137.384 368.636 137.512 368.764 137.703H369.721C371.061 137.703 372.337 137.99 373.549 138.564C374.761 139.075 376.037 139.33 377.377 139.33C377.951 139.33 378.398 139.266 378.717 139.139C379.1 139.266 379.387 139.521 379.578 139.904C379.77 140.287 380.025 140.606 380.344 140.861C380.79 140.798 381.205 140.734 381.588 140.67C381.971 140.67 382.354 140.67 382.736 140.67C384.14 140.67 385.448 140.829 386.66 141.148C387.872 141.467 389.117 141.946 390.393 142.584C392.434 141.691 394.444 140.957 396.422 140.383C398.4 139.809 400.505 139.521 402.738 139.521V139.713C402.738 140.479 402.93 141.18 403.312 141.818C403.759 142.52 404.142 143.222 404.461 143.924ZM367.807 67.5527C367.807 66.7871 367.647 66.181 367.328 65.7344C367.073 65.2878 366.722 64.9049 366.275 64.5859C365.829 64.2031 365.35 63.8522 364.84 63.5332C364.393 63.2142 363.979 62.7995 363.596 62.2891C361.937 61.7786 360.31 61.2044 358.715 60.5664C357.12 59.9284 355.493 59.3861 353.834 58.9395C353.005 58.748 352.175 58.5885 351.346 58.4609C350.516 58.2695 349.687 58.1738 348.857 58.1738H346.752C346.369 58.11 345.954 58.0462 345.508 57.9824C345.125 57.8548 344.742 57.7591 344.359 57.6953C343.466 57.5677 342.573 57.472 341.68 57.4082C340.85 57.3444 339.989 57.3125 339.096 57.3125C337.437 57.3125 335.778 57.3763 334.119 57.5039L329.143 57.8867C328.441 57.9505 327.707 57.9824 326.941 57.9824C326.176 57.9824 325.474 58.0462 324.836 58.1738C324.517 58.2376 324.07 58.3971 323.496 58.6523C322.922 58.8438 322.316 59.0671 321.678 59.3223C321.04 59.5137 320.402 59.737 319.764 59.9922C319.189 60.2474 318.679 60.4388 318.232 60.5664C318.296 61.013 318.328 61.4596 318.328 61.9062V63.1504C318.328 64.1074 318.296 65.0645 318.232 66.0215C318.169 66.9785 318.041 67.9355 317.85 68.8926C317.786 69.2754 317.69 69.6582 317.562 70.041C317.435 70.4238 317.339 70.8066 317.275 71.1895C317.148 71.7637 317.084 72.4017 317.084 73.1035V74.9219C316.956 76.3893 316.861 77.8249 316.797 79.2285C316.733 80.6322 316.637 82.0677 316.51 83.5352C316.127 87.7461 315.712 91.9251 315.266 96.0723C314.883 100.219 314.628 104.398 314.5 108.609C316.605 108.163 318.615 107.493 320.529 106.6C322.443 105.706 324.326 104.749 326.176 103.729C328.026 102.644 329.876 101.591 331.727 100.57C333.577 99.5495 335.523 98.6882 337.564 97.9863C338.075 97.2845 338.681 96.7103 339.383 96.2637C340.148 95.8171 340.786 95.2428 341.297 94.541C341.935 94.541 342.413 94.4134 342.732 94.1582C343.051 93.8392 343.466 93.6159 343.977 93.4883C347.039 90.8086 350.165 88.2884 353.355 85.9277C356.546 83.5671 359.608 81.0469 362.543 78.3672C362.798 77.474 363.213 76.6126 363.787 75.7832C364.425 74.89 365.031 73.9967 365.605 73.1035C366.18 72.2103 366.69 71.3171 367.137 70.4238C367.583 69.5306 367.807 68.5736 367.807 67.5527ZM401.973 144.785C401.973 145.806 401.622 146.731 400.92 147.561C400.218 148.39 399.612 149.188 399.102 149.953C398.208 150.4 397.347 150.655 396.518 150.719C395.752 150.846 394.923 151.07 394.029 151.389C393.71 151.452 393.359 151.676 392.977 152.059C392.466 151.995 391.956 151.771 391.445 151.389C390.935 151.07 390.424 150.846 389.914 150.719C389.212 150.464 388.287 150.304 387.139 150.24C386.054 150.176 385.257 149.857 384.746 149.283C383.853 148.39 383.087 147.21 382.449 145.742C381.875 144.275 381.396 142.712 381.014 141.053C380.695 139.394 380.439 137.767 380.248 136.172C380.12 134.513 380.057 133.077 380.057 131.865C380.057 129.824 380.184 127.782 380.439 125.74C380.695 123.699 381.077 121.721 381.588 119.807V119.328C381.588 119.009 381.588 118.754 381.588 118.562C381.652 118.307 381.684 118.02 381.684 117.701C381.684 117.51 381.652 117.318 381.588 117.127C381.588 116.936 381.492 116.776 381.301 116.648C382.13 114.543 382.736 112.374 383.119 110.141C383.502 107.908 383.789 105.674 383.98 103.441C384.236 101.145 384.491 98.8796 384.746 96.6465C385.065 94.3496 385.512 92.1165 386.086 89.9473C386.022 89.5645 385.958 89.1497 385.895 88.7031C385.895 88.2565 385.895 87.8418 385.895 87.459C385.895 86.3105 386.022 85.194 386.277 84.1094C386.533 82.9609 386.692 81.7806 386.756 80.5684C386.82 80.1855 386.82 79.8027 386.756 79.4199C386.692 78.9733 386.66 78.5267 386.66 78.0801C386.66 75.2728 386.788 72.5293 387.043 69.8496C387.362 67.1699 387.521 64.4583 387.521 61.7148C387.521 60.2474 387.394 58.8438 387.139 57.5039C386.947 56.1003 386.852 54.6966 386.852 53.293C386.852 52.6549 386.883 52.0488 386.947 51.4746C387.011 50.8366 387.202 50.2624 387.521 49.752C388.925 48.7949 390.584 48.3164 392.498 48.3164C393.902 48.3164 395.114 48.6992 396.135 49.4648C396.071 49.5924 396.039 49.7839 396.039 50.0391C396.039 50.3581 396.071 50.6452 396.135 50.9004C396.199 51.1556 396.23 51.4427 396.23 51.7617V52.1445C396.23 52.2721 396.199 52.3997 396.135 52.5273C396.581 53.293 396.868 54.1224 396.996 55.0156C397.188 55.8451 397.283 56.7064 397.283 57.5996C397.283 58.429 397.251 59.2585 397.188 60.0879C397.124 60.8535 397.092 61.651 397.092 62.4805C397.092 63.6289 397.092 64.7773 397.092 65.9258C397.156 67.0742 397.188 68.2227 397.188 69.3711C397.188 72.4336 397.028 75.4642 396.709 78.4629C396.454 81.3978 396.262 84.3965 396.135 87.459C396.007 90.0749 395.656 92.627 395.082 95.1152C394.572 97.6035 394.221 100.124 394.029 102.676C393.965 103.186 393.934 103.697 393.934 104.207C393.997 104.654 394.029 105.164 394.029 105.738C394.029 107.206 393.742 108.673 393.168 110.141C392.594 111.544 392.307 113.044 392.307 114.639C392.307 115.404 392.434 116.074 392.689 116.648C392.307 117.669 391.956 118.882 391.637 120.285C391.382 121.689 391.126 123.156 390.871 124.688C390.68 126.155 390.52 127.622 390.393 129.09C390.265 130.493 390.201 131.738 390.201 132.822C390.201 134.354 390.393 135.917 390.775 137.512C391.158 139.043 391.796 140.447 392.689 141.723C393.327 141.914 394.093 142.01 394.986 142.01C395.88 142.01 396.773 142.042 397.666 142.105C398.559 142.169 399.389 142.329 400.154 142.584C400.92 142.839 401.494 143.35 401.877 144.115C401.941 144.243 401.973 144.37 401.973 144.498V144.785ZM515.189 35.3965C515.189 35.9707 515.158 36.5449 515.094 37.1191C515.094 37.6934 515.062 38.2357 514.998 38.7461C514.807 39.0651 514.424 39.1927 513.85 39.1289C513.339 39.0651 512.924 39.0332 512.605 39.0332C512.286 39.0332 511.999 39.097 511.744 39.2246C511.553 39.2884 511.457 39.4798 511.457 39.7988C511.457 40.1816 511.489 40.4368 511.553 40.5645C511.042 40.5007 510.5 40.4368 509.926 40.373C509.352 40.3092 508.841 40.1178 508.395 39.7988C507.501 39.9902 506.64 40.2454 505.811 40.5645C505.045 40.8835 504.279 41.2344 503.514 41.6172C502.748 42 501.951 42.3509 501.121 42.6699C500.292 42.9889 499.43 43.1803 498.537 43.2441C497.963 43.8822 497.229 44.3607 496.336 44.6797C495.443 44.9987 494.518 45.2858 493.561 45.541C492.604 45.7962 491.71 46.1152 490.881 46.498C490.051 46.8171 489.382 47.3275 488.871 48.0293C487.467 48.1569 486.128 48.5078 484.852 49.082C483.576 49.6562 482.299 50.2624 481.023 50.9004C479.811 51.5384 478.567 52.1445 477.291 52.7188C476.015 53.293 474.643 53.6758 473.176 53.8672C472.793 54.25 472.314 54.569 471.74 54.8242C471.23 55.0794 470.688 55.3346 470.113 55.5898C469.539 55.7812 468.997 56.0046 468.486 56.2598C467.976 56.515 467.561 56.8659 467.242 57.3125H467.051C466.796 57.3125 466.604 57.2487 466.477 57.1211C466.349 56.9935 466.158 56.9297 465.902 56.9297C465.711 56.9297 465.583 56.9616 465.52 57.0254C463.988 57.7272 462.457 58.4609 460.926 59.2266C459.395 59.9922 457.799 60.7259 456.141 61.4277C452.887 62.7676 449.601 64.0755 446.283 65.3516C442.965 66.6276 439.775 68.1908 436.713 70.041C436.011 72.5931 435.437 75.209 434.99 77.8887C434.544 80.5046 433.746 83.0247 432.598 85.4492V89.9473C431.96 91.1595 431.545 92.4993 431.354 93.9668C431.162 95.4342 431.066 96.8379 431.066 98.1777C431.066 98.6882 431.066 99.1667 431.066 99.6133C431.13 99.9961 431.162 100.411 431.162 100.857C433.012 100.347 434.799 99.7728 436.521 99.1348C438.308 98.4967 440.094 97.9225 441.881 97.4121C442.774 97.0931 443.667 96.8698 444.561 96.7422C445.518 96.6146 446.443 96.3913 447.336 96.0723C448.038 95.8809 448.771 95.6257 449.537 95.3066C450.303 94.9238 451.036 94.5729 451.738 94.2539C453.652 93.4245 455.598 92.6908 457.576 92.0527C459.618 91.4147 461.691 90.9362 463.797 90.6172C464.435 90.1068 465.137 89.6283 465.902 89.1816C466.668 88.735 467.434 88.5117 468.199 88.5117C468.773 88.5117 469.252 88.6074 469.635 88.7988C470.719 88.1608 471.995 87.5866 473.463 87.0762C474.93 86.5658 476.302 86.3743 477.578 86.502C477.897 86.0553 478.28 85.7682 478.727 85.6406C479.173 85.4492 479.652 85.3535 480.162 85.3535C480.417 85.3535 480.641 85.3854 480.832 85.4492C481.087 85.4492 481.374 85.4492 481.693 85.4492C482.331 85.0026 483.033 84.6836 483.799 84.4922C484.564 84.3008 485.33 84.1413 486.096 84.0137C486.861 83.8861 487.595 83.7266 488.297 83.5352C489.062 83.2799 489.732 82.8971 490.307 82.3867C491.2 82.4505 491.902 82.7057 492.412 83.1523C492.986 83.599 493.465 84.1413 493.848 84.7793C494.23 85.4173 494.549 86.0872 494.805 86.7891C495.06 87.4909 495.379 88.1608 495.762 88.7988C495.634 89.3092 495.443 89.724 495.188 90.043C494.932 90.2982 494.645 90.5534 494.326 90.8086C494.007 91.0638 493.72 91.319 493.465 91.5742C493.21 91.8294 493.05 92.1803 492.986 92.627C490.753 92.627 488.584 92.946 486.479 93.584C484.437 94.222 482.395 94.9557 480.354 95.7852C478.376 96.6146 476.334 97.4121 474.229 98.1777C472.187 98.8796 470.081 99.3262 467.912 99.5176C467.593 99.8366 467.178 100.092 466.668 100.283L465.232 100.762C464.786 100.889 464.371 101.081 463.988 101.336C463.605 101.527 463.318 101.846 463.127 102.293C462.744 102.102 462.329 102.006 461.883 102.006C460.798 102.006 459.745 102.293 458.725 102.867C457.704 103.441 456.555 103.729 455.279 103.729C454.769 103.729 454.418 103.697 454.227 103.633C453.908 104.207 453.429 104.622 452.791 104.877C452.217 105.132 451.579 105.355 450.877 105.547C450.239 105.674 449.601 105.866 448.963 106.121C448.389 106.376 447.942 106.823 447.623 107.461C447.432 107.397 447.208 107.365 446.953 107.365H446.379C445.358 107.365 444.178 107.557 442.838 107.939C441.562 108.258 440.637 108.896 440.062 109.854C439.552 109.726 439.105 109.662 438.723 109.662C437.829 109.662 437.032 109.854 436.33 110.236C435.628 110.555 434.926 110.938 434.225 111.385L432.119 112.725C431.417 113.171 430.652 113.49 429.822 113.682C428.163 116.042 427.015 118.754 426.377 121.816C425.739 124.879 425.26 128.069 424.941 131.387C424.686 134.704 424.431 137.99 424.176 141.244C423.921 144.562 423.41 147.592 422.645 150.336C423.027 151.357 423.314 152.441 423.506 153.59C423.697 154.738 423.857 155.887 423.984 157.035C424.112 158.247 424.24 159.46 424.367 160.672C424.495 161.884 424.718 163.033 425.037 164.117C425.356 165.457 425.962 166.637 426.855 167.658C427.812 168.743 428.482 169.955 428.865 171.295C429.184 171.359 429.503 171.391 429.822 171.391C430.205 171.454 430.588 171.486 430.971 171.486C433.268 171.486 435.277 171.04 437 170.146C438.786 169.253 440.445 168.137 441.977 166.797C443.508 165.521 444.975 164.117 446.379 162.586C447.846 161.118 449.41 159.811 451.068 158.662H452.887C453.333 158.152 453.716 157.609 454.035 157.035C454.354 156.461 454.705 155.919 455.088 155.408C455.471 154.898 455.917 154.451 456.428 154.068C456.938 153.749 457.576 153.526 458.342 153.398C458.533 152.441 458.98 151.708 459.682 151.197C460.383 150.687 460.862 149.921 461.117 148.9C461.245 148.964 461.404 148.996 461.596 148.996C462.106 148.996 462.489 148.868 462.744 148.613L464.18 147.273C464.69 146.763 465.232 146.253 465.807 145.742C466.445 145.296 467.051 144.849 467.625 144.402C469.475 143.062 471.326 141.723 473.176 140.383C475.026 139.107 476.717 137.607 478.248 135.885C478.312 135.949 478.408 135.98 478.535 135.98C479.046 135.98 479.396 135.821 479.588 135.502C479.779 135.183 480.226 135.087 480.928 135.215C481.311 134.641 481.661 134.066 481.98 133.492C482.299 132.854 482.555 132.184 482.746 131.482L485.809 131.865C486.829 131.993 487.85 132.057 488.871 132.057C489.19 132.057 489.477 132.057 489.732 132.057C490.051 131.993 490.339 131.897 490.594 131.77C491.359 132.982 491.774 134.29 491.838 135.693C491.902 137.033 492.061 138.373 492.316 139.713C492.189 139.713 492.093 139.713 492.029 139.713C492.029 139.649 491.965 139.617 491.838 139.617C491.519 139.617 491.2 139.745 490.881 140C490.626 140.191 490.339 140.447 490.02 140.766L489.062 141.723C488.743 142.042 488.456 142.297 488.201 142.488C487.499 142.935 486.766 143.318 486 143.637C485.234 144.02 484.501 144.402 483.799 144.785C483.097 145.168 482.427 145.615 481.789 146.125C481.151 146.699 480.641 147.401 480.258 148.23C478.982 148.741 477.738 149.283 476.525 149.857C475.377 150.432 474.26 151.038 473.176 151.676C472.857 151.995 472.57 152.314 472.314 152.633C472.059 152.952 471.868 153.303 471.74 153.686C470.018 154.26 468.582 155.121 467.434 156.27C466.349 157.418 465.232 158.662 464.084 160.002L463.988 159.906C463.542 159.906 463.255 160.066 463.127 160.385C463.063 160.704 462.712 160.799 462.074 160.672C460.862 162.012 459.586 163.256 458.246 164.404C456.906 165.553 455.535 166.701 454.131 167.85C452.727 168.998 451.324 170.146 449.92 171.295C448.516 172.507 447.208 173.783 445.996 175.123C445.167 175.378 444.369 175.697 443.604 176.08C442.838 176.463 442.264 177.037 441.881 177.803H441.594C440.892 177.803 440.382 177.962 440.062 178.281C439.807 178.6 439.488 179.015 439.105 179.525C437.766 179.844 436.394 180.195 434.99 180.578C433.587 180.961 432.151 181.152 430.684 181.152C429.663 181.152 428.674 180.961 427.717 180.578C426.824 180.195 425.93 179.685 425.037 179.047C424.208 178.473 423.41 177.835 422.645 177.133C421.943 176.431 421.273 175.761 420.635 175.123C420.252 173.847 419.742 172.507 419.104 171.104C418.529 169.764 418.242 168.456 418.242 167.18C418.242 166.861 418.274 166.542 418.338 166.223C418.465 165.967 418.529 165.712 418.529 165.457C418.529 165.01 418.37 164.819 418.051 164.883C417.796 164.947 417.604 164.787 417.477 164.404C417.349 163.766 417.253 163.033 417.189 162.203C417.189 161.438 417.126 160.704 416.998 160.002C416.807 158.535 416.551 157.035 416.232 155.504C415.977 153.973 415.69 152.473 415.371 151.006C415.626 150.878 415.818 150.655 415.945 150.336C416.137 150.081 416.328 149.826 416.52 149.57C416.328 149.06 416.137 148.486 415.945 147.848C415.818 147.273 415.754 146.667 415.754 146.029C415.754 144.753 416.232 143.796 417.189 143.158C417.189 142.712 417.062 142.361 416.807 142.105C416.615 141.914 416.52 141.563 416.52 141.053C416.52 140.925 416.551 140.574 416.615 140C416.743 139.362 416.87 138.66 416.998 137.895C417.189 137.129 417.349 136.395 417.477 135.693C417.604 134.992 417.7 134.513 417.764 134.258C418.21 131.323 418.593 128.452 418.912 125.645C419.231 122.773 419.678 119.902 420.252 117.031C419.614 116.521 418.785 116.138 417.764 115.883C416.807 115.564 416.137 115.149 415.754 114.639C415.435 114.192 415.18 113.618 414.988 112.916C414.797 112.214 414.701 111.608 414.701 111.098C414.701 109.247 415.435 107.78 416.902 106.695C418.37 105.547 419.933 104.877 421.592 104.686C422.421 102.452 423.027 100.188 423.41 97.8906C423.857 95.5299 424.208 93.1693 424.463 90.8086L425.229 83.6309C425.484 81.2064 425.867 78.8138 426.377 76.4531H425.803C424.527 76.4531 423.283 76.6445 422.07 77.0273C420.858 77.4102 419.614 77.6016 418.338 77.6016H418.146C416.296 76.1341 415.371 74.3796 415.371 72.3379C415.371 71.1257 415.626 69.9134 416.137 68.7012C417.158 68.3184 418.083 67.8079 418.912 67.1699C419.742 66.5319 420.571 65.8939 421.4 65.2559C422.294 64.554 423.187 63.9479 424.08 63.4375C424.973 62.9271 425.962 62.6081 427.047 62.4805C427.174 60.6302 427.493 58.7799 428.004 56.9297C428.514 55.0794 428.77 53.2292 428.77 51.3789C428.77 50.9961 428.738 50.6133 428.674 50.2305C428.674 49.8477 428.61 49.4648 428.482 49.082C428.929 48.5078 429.216 47.9017 429.344 47.2637C429.535 46.6257 429.631 45.9557 429.631 45.2539C429.631 44.4883 429.567 43.7546 429.439 43.0527C429.376 42.2871 429.28 41.5534 429.152 40.8516C429.727 40.5964 430.173 40.3411 430.492 40.0859C430.811 39.7669 431.098 39.4798 431.354 39.2246C431.673 38.9694 432.055 38.7461 432.502 38.5547C432.949 38.3633 433.587 38.2676 434.416 38.2676C435.628 38.2676 436.649 38.5228 437.479 39.0332C438.372 39.4798 439.137 40.0859 439.775 40.8516C440.413 41.6172 440.956 42.4785 441.402 43.4355C441.913 44.3926 442.391 45.3496 442.838 46.3066C442.71 47.0085 442.423 47.5189 441.977 47.8379C441.53 48.1569 441.147 48.5716 440.828 49.082C440.956 50.1029 441.083 51.0918 441.211 52.0488C441.339 52.9421 441.339 53.8991 441.211 54.9199C441.849 55.2389 442.455 55.3984 443.029 55.3984C443.986 55.3984 444.848 55.1432 445.613 54.6328C446.443 54.1224 447.017 53.4206 447.336 52.5273H447.527C447.719 52.5273 447.878 52.5911 448.006 52.7188C448.197 52.8464 448.421 52.9102 448.676 52.9102H449.059C449.76 52.2721 450.526 51.7936 451.355 51.4746C452.185 51.0918 453.046 50.7409 453.939 50.4219C454.833 50.1029 455.694 49.7839 456.523 49.4648C457.417 49.082 458.246 48.6035 459.012 48.0293C459.395 48.2207 459.809 48.3164 460.256 48.3164C460.894 48.3164 461.5 48.1888 462.074 47.9336C462.712 47.6784 463.318 47.4232 463.893 47.168C464.467 46.849 465.073 46.5618 465.711 46.3066C466.413 46.0514 467.146 45.9238 467.912 45.9238C468.04 45.9238 468.199 45.9557 468.391 46.0195C468.582 46.0195 468.742 46.0195 468.869 46.0195C469.316 46.0195 469.571 45.86 469.635 45.541C469.699 45.222 469.699 44.9349 469.635 44.6797C471.676 44.1693 473.431 43.5951 474.898 42.957C476.43 42.2552 478.12 41.4577 479.971 40.5645C479.971 40.5007 480.035 40.4688 480.162 40.4688C480.354 40.4688 480.481 40.5645 480.545 40.7559C480.609 40.9473 480.641 41.1068 480.641 41.2344C481.023 41.043 481.215 40.724 481.215 40.2773C481.279 39.8307 481.438 39.4479 481.693 39.1289C481.949 39.1927 482.299 39.2246 482.746 39.2246C483.32 39.2246 483.895 39.097 484.469 38.8418C485.107 38.5866 485.713 38.2995 486.287 37.9805C486.861 37.6615 487.436 37.3743 488.01 37.1191C488.584 36.8639 489.158 36.7363 489.732 36.7363C490.243 36.7363 490.658 36.8639 490.977 37.1191C491.359 36.9277 491.742 36.6725 492.125 36.3535C492.508 35.9707 492.923 35.7793 493.369 35.7793C493.497 35.7793 493.592 35.8112 493.656 35.875C493.784 35.9388 493.911 36.0026 494.039 36.0664C494.358 35.7474 494.645 35.4922 494.9 35.3008C495.219 35.1094 495.379 34.7904 495.379 34.3438C497.74 34.0885 499.909 33.5781 501.887 32.8125C503.928 31.9831 505.874 30.8984 507.725 29.5586C508.426 29.6862 509.096 29.8457 509.734 30.0371C510.436 30.1647 511.138 30.2285 511.84 30.2285C512.223 30.9303 512.574 31.6322 512.893 32.334C513.212 33.0358 513.913 33.3548 514.998 33.291C515.062 33.61 515.094 33.9609 515.094 34.3438C515.158 34.7266 515.189 35.0775 515.189 35.3965ZM598.834 118.084C598.834 119.36 598.611 120.413 598.164 121.242C597.781 122.008 597.335 122.901 596.824 123.922C596.697 123.858 596.537 123.826 596.346 123.826C595.963 123.826 595.612 123.922 595.293 124.113C594.974 124.305 594.655 124.464 594.336 124.592C592.486 126.633 590.572 128.611 588.594 130.525C586.68 132.439 584.542 134.13 582.182 135.598C581.544 135.98 580.906 136.363 580.268 136.746C579.63 137.065 578.96 137.384 578.258 137.703C578.003 137.831 577.747 137.958 577.492 138.086C577.301 138.15 577.109 138.245 576.918 138.373C576.471 138.628 575.993 139.043 575.482 139.617C575.036 140.191 574.493 140.766 573.855 141.34C573.281 141.978 572.643 142.488 571.941 142.871C571.24 143.318 570.474 143.509 569.645 143.445C569.134 143.764 568.688 144.179 568.305 144.689C567.922 145.2 567.475 145.71 566.965 146.221C564.221 147.178 561.701 148.422 559.404 149.953C557.171 151.548 554.842 153.079 552.418 154.547C550.951 155.504 549.483 156.27 548.016 156.844C547.697 156.971 547.314 157.067 546.867 157.131C546.484 157.195 546.07 157.29 545.623 157.418C543.518 157.928 541.38 158.343 539.211 158.662C537.105 158.981 534.968 159.141 532.799 159.141C530.119 159.141 527.535 158.822 525.047 158.184C525.047 157.992 524.983 157.865 524.855 157.801C524.728 157.737 524.568 157.673 524.377 157.609C524.249 157.546 524.122 157.45 523.994 157.322C523.867 157.258 523.867 157.099 523.994 156.844C522.59 156.716 521.346 156.365 520.262 155.791C519.241 155.217 518.571 154.196 518.252 152.729C518.061 152.856 517.901 153.016 517.773 153.207C517.646 153.398 517.423 153.462 517.104 153.398C516.21 152.122 515.221 150.942 514.137 149.857C513.052 148.773 512.255 147.465 511.744 145.934C511.617 145.615 511.521 145.296 511.457 144.977C511.457 144.721 511.425 144.434 511.361 144.115C511.042 143.222 510.468 142.775 509.639 142.775C509.766 142.52 509.83 142.201 509.83 141.818C509.83 141.627 509.798 141.436 509.734 141.244C509.734 141.053 509.734 140.861 509.734 140.67C509.734 140.351 509.83 140.032 510.021 139.713C509.383 138.245 508.937 136.81 508.682 135.406C508.426 133.939 508.299 132.439 508.299 130.908C508.299 128.93 508.395 126.984 508.586 125.07C508.777 123.092 508.873 121.115 508.873 119.137C509.256 118.371 509.543 117.478 509.734 116.457C509.99 115.436 510.404 114.607 510.979 113.969C510.915 113.586 510.787 113.395 510.596 113.395C510.404 113.331 510.309 113.139 510.309 112.82C510.309 111.672 510.532 110.428 510.979 109.088C511.425 107.748 511.648 106.376 511.648 104.973C512.223 104.654 512.574 104.175 512.701 103.537C512.893 102.899 513.243 102.389 513.754 102.006V101.527C513.754 100.57 513.85 99.6133 514.041 98.6562C514.296 97.6992 514.52 96.7741 514.711 95.8809C514.966 94.9238 515.158 93.9987 515.285 93.1055C515.477 92.1484 515.54 91.2233 515.477 90.3301C515.604 90.1387 515.764 89.7878 515.955 89.2773C516.21 88.7031 516.434 88.1289 516.625 87.5547C516.88 86.9167 517.072 86.3105 517.199 85.7363C517.391 85.1621 517.486 84.7474 517.486 84.4922C517.486 84.1094 517.423 83.7585 517.295 83.4395C517.167 83.1204 517.104 82.7695 517.104 82.3867C517.104 82.0677 517.199 81.6211 517.391 81.0469C517.582 80.4089 517.742 79.8984 517.869 79.5156C518.124 78.431 518.348 77.3145 518.539 76.166C518.794 74.9538 519.018 73.8053 519.209 72.7207C519.783 69.2116 520.198 65.7025 520.453 62.1934C520.708 58.6204 520.868 55.0475 520.932 51.4746C521.825 50.9642 522.75 50.4857 523.707 50.0391C524.728 49.5924 525.781 49.3691 526.865 49.3691C527.184 49.3691 527.503 49.401 527.822 49.4648C528.141 49.5286 528.46 49.6243 528.779 49.752C529.098 51.028 529.609 52.0488 530.311 52.8145C531.012 53.5801 531.65 54.5052 532.225 55.5898C531.842 56.6107 531.587 57.6634 531.459 58.748L531.172 62.002C531.108 63.0866 530.98 64.1712 530.789 65.2559C530.598 66.2767 530.279 67.2656 529.832 68.2227C529.96 68.5417 530.023 68.8607 530.023 69.1797V70.1367C530.023 71.0299 529.928 71.8913 529.736 72.7207C529.609 73.5501 529.449 74.4115 529.258 75.3047C529.066 76.1341 528.907 76.9635 528.779 77.793C528.652 78.6224 528.652 79.4518 528.779 80.2812C528.588 80.6003 528.396 80.8555 528.205 81.0469C528.014 81.1745 527.886 81.3978 527.822 81.7168L527.631 83.5352C527.503 84.237 527.376 84.9388 527.248 85.6406C527.184 86.2786 527.089 86.9486 526.961 87.6504C526.514 89.5645 526.004 91.4785 525.43 93.3926C524.919 95.3066 524.664 97.2845 524.664 99.3262V99.9004C524.09 100.794 523.643 101.91 523.324 103.25C523.005 104.526 522.91 105.706 523.037 106.791C522.335 108.641 521.665 110.46 521.027 112.246C520.389 114.033 520.07 115.883 520.07 117.797C520.07 118.116 520.07 118.467 520.07 118.85C520.134 119.169 520.198 119.488 520.262 119.807C519.751 121.083 519.432 122.391 519.305 123.73C519.177 125.007 519.113 126.283 519.113 127.559C519.113 128.452 519.145 129.505 519.209 130.717C519.337 131.865 519.496 133.077 519.688 134.354C519.943 135.566 520.23 136.746 520.549 137.895C520.868 139.043 521.219 139.968 521.602 140.67C523.069 143.031 524.983 144.881 527.344 146.221C529.768 147.624 532.32 148.518 535 148.9C536.085 148.518 536.946 148.294 537.584 148.23C538.286 148.167 539.243 148.167 540.455 148.23C541.476 147.72 542.497 147.337 543.518 147.082C544.602 146.827 545.687 146.54 546.771 146.221C547.09 146.093 547.41 145.965 547.729 145.838C548.111 145.71 548.43 145.583 548.686 145.455C549.005 145.327 549.355 145.04 549.738 144.594C550.121 144.147 550.472 143.764 550.791 143.445C552.131 143.062 553.407 142.52 554.619 141.818C555.831 141.18 557.012 140.51 558.16 139.809L561.701 137.703C562.913 137.001 564.189 136.395 565.529 135.885C566.04 135.693 566.327 135.438 566.391 135.119C566.518 134.736 566.71 134.29 566.965 133.779C567.092 133.907 567.284 133.971 567.539 133.971C568.305 133.971 568.847 133.747 569.166 133.301C569.485 132.79 569.868 132.28 570.314 131.77C571.144 131.642 571.941 131.419 572.707 131.1C573.473 130.717 574.047 130.143 574.43 129.377C576.025 129.058 577.428 128.484 578.641 127.654C579.853 126.825 581.033 125.932 582.182 124.975C583.33 123.954 584.479 122.997 585.627 122.104C586.775 121.146 588.083 120.381 589.551 119.807C589.742 119.488 589.87 119.201 589.934 118.945C589.997 118.69 590.093 118.403 590.221 118.084C591.305 117.956 592.167 117.669 592.805 117.223C593.443 116.712 594.176 116.202 595.006 115.691C596.792 115.883 598.068 116.68 598.834 118.084ZM614.146 72.0508C614.146 72.8802 613.955 73.4225 613.572 73.6777C613.189 73.8691 612.934 74.252 612.807 74.8262C612.615 75.5918 612.424 76.3893 612.232 77.2188C612.105 78.0482 611.913 78.8457 611.658 79.6113C610.382 83.5033 608.564 86.8848 606.203 89.7559C603.906 92.627 601.418 95.5299 598.738 98.4648C597.845 98.6562 597.016 98.752 596.25 98.752C595.421 98.752 594.719 98.5924 594.145 98.2734C593.57 97.9544 592.932 97.5397 592.23 97.0293C592.167 96.5827 592.103 96.168 592.039 95.7852C592.039 95.3385 592.039 94.8919 592.039 94.4453V92.7227C592.039 92.0208 592.103 91.4147 592.23 90.9043C592.358 90.2663 592.645 89.7559 593.092 89.373C593.538 88.9902 593.794 88.3522 593.857 87.459C593.985 87.5228 594.145 87.5547 594.336 87.5547C594.591 87.5547 594.814 87.459 595.006 87.2676C595.197 87.0762 595.421 87.0443 595.676 87.1719C598.993 82.2591 601.418 76.8678 602.949 70.998C602.694 69.9134 602.407 68.8607 602.088 67.8398C601.833 66.819 601.418 65.8301 600.844 64.873C601.227 64.2988 601.482 63.6608 601.609 62.959C601.801 62.1934 602.024 61.4915 602.279 60.8535C602.598 60.1517 603.045 59.5775 603.619 59.1309C604.257 58.6204 605.182 58.3652 606.395 58.3652C607.607 58.3652 608.819 58.6842 610.031 59.3223C611.243 59.8965 612.296 60.5983 613.189 61.4277C613.126 61.5553 613.094 61.7786 613.094 62.0977C613.094 62.7995 613.253 63.4056 613.572 63.916C613.955 64.3626 614.146 64.9049 614.146 65.543C614.146 66.181 614.051 66.819 613.859 67.457C613.732 68.0951 613.668 68.765 613.668 69.4668C613.668 69.9772 613.732 70.4876 613.859 70.998C614.051 71.5085 614.146 71.8594 614.146 72.0508ZM711.189 127.941C711.189 129.026 710.902 129.983 710.328 130.812C709.818 131.578 709.626 132.535 709.754 133.684C708.861 134.194 708.127 134.864 707.553 135.693C706.979 136.523 706.436 137.384 705.926 138.277C701.715 141.021 697.185 143.222 692.336 144.881C687.551 146.604 682.606 147.465 677.502 147.465C677.183 147.465 676.896 147.305 676.641 146.986C676.385 146.731 676.13 146.444 675.875 146.125C675.62 145.806 675.333 145.487 675.014 145.168C674.758 144.913 674.439 144.785 674.057 144.785C673.61 144.785 673.259 144.881 673.004 145.072C673.004 144.945 673.004 144.817 673.004 144.689C673.068 144.626 673.1 144.53 673.1 144.402C673.1 143.637 673.004 142.839 672.812 142.01C672.621 141.244 672.525 140.479 672.525 139.713C672.525 138.82 672.685 138.086 673.004 137.512H674.152C674.79 137.512 675.396 137.48 675.971 137.416C676.609 137.288 677.279 137.225 677.98 137.225C678.682 137.225 679.32 137.416 679.895 137.799C683.404 137.671 686.721 137.033 689.848 135.885C693.038 134.673 696.26 133.492 699.514 132.344C700.024 131.642 700.311 130.876 700.375 130.047C700.503 129.154 700.758 128.324 701.141 127.559C699.482 126.155 697.791 125.07 696.068 124.305C694.41 123.475 692.464 123.188 690.23 123.443C688.891 122.614 687.455 122.135 685.924 122.008C684.456 121.88 682.957 121.689 681.426 121.434C681.043 121.37 680.628 121.306 680.182 121.242C679.799 121.115 679.384 121.051 678.938 121.051C678.618 121.051 678.299 121.146 677.98 121.338C677.725 121.465 677.661 121.689 677.789 122.008C677.47 121.497 677.023 121.21 676.449 121.146C675.939 121.019 675.492 120.764 675.109 120.381C673.068 120.253 671.281 119.902 669.75 119.328C668.219 118.69 666.528 117.988 664.678 117.223C664.167 117.031 663.657 116.904 663.146 116.84C662.7 116.712 662.253 116.521 661.807 116.266C660.658 115.691 659.733 114.926 659.031 113.969C658.329 113.012 657.787 111.959 657.404 110.811C656.958 109.598 656.639 108.354 656.447 107.078C656.256 105.802 656.064 104.622 655.873 103.537C656.447 102.516 656.99 101.464 657.5 100.379C657.947 99.2943 658.329 98.1458 658.648 96.9336C659.031 96.7422 659.414 96.5827 659.797 96.4551C660.18 96.3275 660.594 96.168 661.041 95.9766C660.977 95.849 660.945 95.6895 660.945 95.498C660.945 95.179 661.041 94.86 661.232 94.541C661.488 94.222 661.551 93.903 661.424 93.584C662.827 92.3079 664.167 91 665.443 89.6602C666.783 88.2565 667.932 86.7253 668.889 85.0664C669.846 84.7474 670.611 84.2689 671.186 83.6309C671.76 82.9928 672.334 82.3548 672.908 81.7168C673.482 81.015 674.12 80.4089 674.822 79.8984C675.524 79.3242 676.417 78.9733 677.502 78.8457C677.757 78.3991 678.108 78.0482 678.555 77.793C679.001 77.474 679.448 77.1868 679.895 76.9316C680.341 76.6764 680.756 76.3893 681.139 76.0703C681.521 75.7513 681.809 75.3047 682 74.7305C683.021 74.7305 683.946 74.5391 684.775 74.1562C685.669 73.7734 686.53 73.3587 687.359 72.9121C688.189 72.4655 689.018 72.0508 689.848 71.668C690.741 71.2852 691.698 71.0938 692.719 71.0938C692.974 71.0938 693.229 71.1257 693.484 71.1895C693.74 71.1895 694.027 71.2214 694.346 71.2852C694.792 71.7318 695.079 72.2741 695.207 72.9121C695.398 73.4863 695.526 74.1243 695.59 74.8262C695.654 75.528 695.686 76.2298 695.686 76.9316C695.749 77.6335 695.877 78.2715 696.068 78.8457C695.494 79.9303 694.856 81.015 694.154 82.0996C693.516 83.1842 692.655 84.0137 691.57 84.5879H691.379C690.932 84.6517 690.518 84.556 690.135 84.3008C689.752 84.0456 689.305 83.918 688.795 83.918C688.476 83.918 688.221 84.0137 688.029 84.2051L687.551 84.6836C687.423 84.8112 687.232 84.9388 686.977 85.0664C686.785 85.194 686.498 85.194 686.115 85.0664C685.222 85.3854 684.871 85.9277 685.062 86.6934C683.85 86.821 682.829 87.2038 682 87.8418C681.171 88.416 680.405 89.0859 679.703 89.8516C679.001 90.5534 678.299 91.2233 677.598 91.8613C676.896 92.4355 676.066 92.7546 675.109 92.8184C674.025 94.7324 672.685 96.4232 671.09 97.8906C669.559 99.3581 668.283 101.017 667.262 102.867C667.453 103.378 667.581 103.92 667.645 104.494C667.708 105.068 667.804 105.674 667.932 106.312C668.506 107.078 669.176 107.748 669.941 108.322C670.771 108.896 671.568 109.471 672.334 110.045H672.621C673.897 110.045 675.077 110.3 676.162 110.811C677.247 111.257 678.395 111.48 679.607 111.48C680.245 111.48 680.788 111.353 681.234 111.098C682.893 111.48 684.52 111.799 686.115 112.055C687.774 112.31 689.433 112.501 691.092 112.629C691.921 112.757 692.751 112.82 693.58 112.82C694.473 112.82 695.303 112.916 696.068 113.107C696.77 113.299 697.472 113.554 698.174 113.873C698.876 114.128 699.577 114.415 700.279 114.734C701.747 115.372 703.118 116.074 704.395 116.84C705.734 117.605 706.915 118.531 707.936 119.615C708.956 120.636 709.754 121.848 710.328 123.252C710.902 124.592 711.189 126.155 711.189 127.941Z" fill="white"/>
</g>
<defs>
<clipPath id="clip0_15_4">
<rect width="727" height="200" fill="white"/>
</clipPath>
</defs>
</svg>
