<svg width="500" height="200" viewBox="0 0 500 200" fill="none" xmlns="http://www.w3.org/2000/svg">
<g clip-path="url(#clip0_2_2)">
<path d="M105.707 153.777C105.516 154.862 105.069 155.628 104.367 156.074C103.729 156.585 103.123 157.286 102.549 158.18H102.166C101.528 158.18 100.89 158.243 100.252 158.371C99.6777 158.499 99.0716 158.658 98.4336 158.85C98.1146 158.722 97.7318 158.626 97.2852 158.562C96.8385 158.499 96.5514 158.275 96.4238 157.893C95.9134 158.148 95.2116 158.275 94.3184 158.275C92.8509 158.275 91.4473 157.861 90.1074 157.031C88.8314 156.202 87.4915 155.564 86.0879 155.117C85.7051 154.352 85.2266 153.65 84.6523 153.012C84.1419 152.438 83.5996 151.863 83.0254 151.289C82.515 150.715 82.0046 150.109 81.4941 149.471C80.9837 148.833 80.569 148.067 80.25 147.174C80.1224 146.791 79.9629 146.568 79.7715 146.504C79.5801 146.44 79.293 146.44 78.9102 146.504C78.974 145.802 78.8783 145.196 78.623 144.686C78.4316 144.175 77.9531 143.856 77.1875 143.729C77.1875 142.899 77.0599 142.197 76.8047 141.623C76.5495 141.049 76.2305 140.538 75.8477 140.092C75.5286 139.709 75.1458 139.294 74.6992 138.848C74.3164 138.401 73.9974 137.859 73.7422 137.221C73.168 137.093 72.5938 136.997 72.0195 136.934C71.5091 136.934 70.9349 136.934 70.2969 136.934C67.2344 136.934 64.2676 137.508 61.3965 138.656C61.0775 138.784 60.7266 138.943 60.3438 139.135C60.0247 139.326 59.7057 139.486 59.3867 139.613C59.2591 139.613 59.1315 139.613 59.0039 139.613C58.9401 139.677 58.8444 139.709 58.7168 139.709C58.2702 139.709 57.8555 139.613 57.4727 139.422C57.0898 139.294 56.6751 139.23 56.2285 139.23C56.0371 139.23 55.8138 139.262 55.5586 139.326C55.3672 139.454 55.1758 139.549 54.9844 139.613C54.0273 139.932 53.1341 140.124 52.3047 140.188C49.6888 140.698 46.9134 141.081 43.9785 141.336C41.1074 141.591 38.4596 142.261 36.0352 143.346C35.5247 143.601 35.2057 143.984 35.0781 144.494C34.9505 145.068 34.9186 145.611 34.9824 146.121C34.2806 146.632 33.7383 147.301 33.3555 148.131C33.0365 148.96 32.7174 149.822 32.3984 150.715C32.1432 151.672 31.8561 152.597 31.5371 153.49C31.2181 154.383 30.7715 155.149 30.1973 155.787C30.3887 156.17 30.4844 156.585 30.4844 157.031C30.4844 157.988 30.1654 158.945 29.5273 159.902C28.8893 160.859 28.4108 161.785 28.0918 162.678C27.7728 163.571 27.5176 164.432 27.3262 165.262C27.1348 166.155 26.8477 166.952 26.4648 167.654C26.082 168.356 25.5716 168.93 24.9336 169.377C24.2318 169.824 23.2747 170.047 22.0625 170.047C20.9141 170.047 19.9251 169.824 19.0957 169.377C18.2663 168.93 17.5964 168.356 17.0859 167.654C16.5755 166.952 16.1608 166.123 15.8418 165.166C15.5228 164.209 15.2676 163.252 15.0762 162.295C15.778 160.891 16.4479 159.679 17.0859 158.658C17.724 157.637 18.2025 156.329 18.5215 154.734C19.6699 153.905 20.5312 152.884 21.1055 151.672C21.6159 150.523 21.903 149.247 21.9668 147.844C22.6686 147.397 23.179 146.791 23.498 146.025C23.7533 145.324 23.9128 144.558 23.9766 143.729C22.4453 143.601 20.8503 143.473 19.1914 143.346C17.4688 143.218 15.8737 142.899 14.4062 142.389C14.4062 142.261 14.4382 142.133 14.502 142.006C14.502 141.878 14.502 141.751 14.502 141.623C14.502 140.794 14.3105 140.028 13.9277 139.326C13.5449 138.688 13.3535 137.986 13.3535 137.221V136.455C13.8639 135.945 14.3424 135.402 14.7891 134.828C15.1719 134.318 15.5866 133.839 16.0332 133.393C16.4798 132.946 16.9902 132.563 17.5645 132.244C18.1387 131.989 18.8724 131.861 19.7656 131.861C20.9779 131.861 22.1582 131.925 23.3066 132.053C24.4551 132.244 25.6354 132.34 26.8477 132.34C27.6771 132.34 28.5384 132.244 29.4316 132.053C30.8353 129.182 32.0794 126.279 33.1641 123.344C34.2487 120.345 35.0781 117.314 35.6523 114.252C36.099 113.614 36.5137 112.88 36.8965 112.051C37.2793 111.158 37.5664 110.232 37.7578 109.275C38.013 108.318 38.1725 107.393 38.2363 106.5C38.3639 105.543 38.4277 104.682 38.4277 103.916C39.1296 103.087 39.6081 102.066 39.8633 100.854C40.1823 99.6413 40.4375 98.3971 40.6289 97.1211C40.8203 95.7812 41.0117 94.4733 41.2031 93.1973C41.4583 91.9212 41.9049 90.8047 42.543 89.8477V88.9863C42.6068 88.0293 42.5111 87.168 42.2559 86.4023C42.5749 86.2747 42.7663 85.9876 42.8301 85.541C42.8939 85.0944 43.0215 84.7116 43.2129 84.3926C43.2767 81.4577 43.5957 78.5866 44.1699 75.7793C44.7441 72.9082 45.2227 70.0371 45.6055 67.166V66.8789C45.6055 66.5599 45.4779 66.4004 45.2227 66.4004C45.0312 66.3366 44.9355 66.1452 44.9355 65.8262C44.9355 65.252 44.9993 64.4863 45.127 63.5293C45.3184 62.5723 45.446 61.7747 45.5098 61.1367C45.8926 57.6914 46.084 54.278 46.084 50.8965C46.084 48.0254 45.9883 45.1862 45.7969 42.3789C45.6055 39.5716 45.4141 36.7324 45.2227 33.8613L45.9883 32.7129C46.2435 32.3301 46.4668 31.9473 46.6582 31.5645C47.2962 31.3092 47.8066 31.054 48.1895 30.7988C48.6361 30.4798 49.2103 30.3203 49.9121 30.3203C50.1035 30.3203 50.263 30.3522 50.3906 30.416C50.5182 30.416 50.6458 30.416 50.7734 30.416C51.1562 30.6712 51.4434 31.0221 51.6348 31.4688C51.89 31.9154 52.1133 32.3301 52.3047 32.7129C52.5599 33.0957 52.8789 33.4147 53.2617 33.6699C53.6445 33.9251 54.1868 33.9889 54.8887 33.8613C55.2077 35.6478 56.1009 36.5729 57.5684 36.6367C57.8874 37.5299 58.2702 38.4232 58.7168 39.3164C59.2272 40.2096 59.8971 40.9115 60.7266 41.4219C60.6628 41.6771 60.6309 42.028 60.6309 42.4746C60.6309 43.3678 60.8223 44.2292 61.2051 45.0586C61.6517 45.888 62.194 46.6536 62.832 47.3555V47.5469C62.832 48.2487 62.5768 48.7272 62.0664 48.9824C62.6406 49.6204 63.0553 50.3861 63.3105 51.2793C63.5658 52.1725 63.7891 53.0977 63.9805 54.0547C64.1719 54.9479 64.3952 55.8092 64.6504 56.6387C64.9694 57.4681 65.4798 58.1061 66.1816 58.5527V58.8398C66.1816 59.1589 66.054 59.3503 65.7988 59.4141C65.6074 59.4779 65.5117 59.6693 65.5117 59.9883C66.6602 62.0938 67.4577 64.3906 67.9043 66.8789C68.3509 69.3672 68.9251 71.7598 69.627 74.0566C69.8822 74.3118 70.1693 74.4714 70.4883 74.5352C70.8711 74.599 71.1582 74.7585 71.3496 75.0137C70.9668 75.2689 70.7754 75.7155 70.7754 76.3535C70.7754 76.9915 70.6159 77.4701 70.2969 77.7891C70.8073 78.2357 71.0306 78.9056 70.9668 79.7988C70.9668 80.6283 71.222 81.2344 71.7324 81.6172V82C71.7324 82.2552 71.6686 82.4785 71.541 82.6699C71.4134 82.7975 71.3496 82.9889 71.3496 83.2441V83.627C71.86 85.86 72.2428 88.0931 72.498 90.3262C72.8171 92.5592 73.1361 94.7923 73.4551 97.0254C73.7741 99.2585 74.125 101.492 74.5078 103.725C74.8906 105.894 75.4329 108.031 76.1348 110.137C76.1986 110.201 76.2305 110.296 76.2305 110.424C76.2305 110.743 76.1029 110.934 75.8477 110.998C75.5924 110.998 75.4648 111.158 75.4648 111.477C75.4648 111.796 75.5605 112.178 75.752 112.625C76.0072 113.008 76.2624 113.327 76.5176 113.582C76.4538 113.837 76.4219 114.22 76.4219 114.73C76.4219 115.688 76.5814 116.613 76.9004 117.506C77.2832 118.399 77.666 119.292 78.0488 120.186C78.4954 121.015 78.8783 121.908 79.1973 122.865C79.5163 123.822 79.6439 124.843 79.5801 125.928C79.9629 126.502 80.4414 126.98 81.0156 127.363C81.6536 127.746 82.2917 128.097 82.9297 128.416C83.5677 128.735 84.1419 129.118 84.6523 129.564C85.2266 130.011 85.6094 130.617 85.8008 131.383C85.2904 131.829 84.9395 132.372 84.748 133.01C84.5566 133.712 84.2057 134.318 83.6953 134.828C84.1419 135.913 84.6523 136.902 85.2266 137.795C85.8646 138.752 86.5026 139.677 87.1406 140.57L89.1504 143.25C89.8522 144.143 90.4583 145.1 90.9688 146.121C91.6706 146.121 92.181 146.312 92.5 146.695C92.819 147.078 93.3294 147.238 94.0312 147.174C94.2865 147.684 94.3822 148.258 94.3184 148.896C95.5944 148.45 96.8704 148.227 98.1465 148.227C98.8483 148.227 99.4863 148.258 100.061 148.322C100.699 148.386 101.337 148.418 101.975 148.418C102.74 148.418 103.41 148.322 103.984 148.131C104.24 148.514 104.431 148.928 104.559 149.375C104.686 149.885 104.782 150.396 104.846 150.906L105.133 152.438C105.26 152.948 105.452 153.395 105.707 153.777ZM69.627 127.268C68.7337 122.865 67.8086 118.495 66.8516 114.156C65.9583 109.754 65.1608 105.32 64.459 100.854C64.0762 98.4928 63.7891 96.1322 63.5977 93.7715C63.4062 91.4108 63.151 89.082 62.832 86.7852C62.5768 84.4245 62.194 82.0957 61.6836 79.7988C61.237 77.502 60.5671 75.237 59.6738 73.0039V72.8125C59.6738 72.6211 59.7376 72.4616 59.8652 72.334C59.9928 72.2064 60.0566 71.9831 60.0566 71.6641V71.2812C59.2272 70.707 58.653 69.9095 58.334 68.8887C58.015 67.804 57.7279 66.6875 57.4727 65.5391C57.2812 64.3268 56.9941 63.1784 56.6113 62.0938C56.2923 60.9453 55.7181 59.9883 54.8887 59.2227C54.5697 62.9232 54.2188 66.6237 53.8359 70.3242C53.5169 73.9609 53.2936 77.6296 53.166 81.3301C52.528 81.7129 52.1133 82.3509 51.9219 83.2441C51.7305 84.1374 51.6348 84.9349 51.6348 85.6367C51.6348 86.1471 51.6667 86.6895 51.7305 87.2637C51.7943 87.7741 51.9219 88.3164 52.1133 88.8906C50.9648 91.7617 50.1354 94.7285 49.625 97.791C49.1146 100.79 48.5404 103.788 47.9023 106.787C47.8385 106.979 47.7109 107.425 47.5195 108.127C47.3919 108.765 47.2324 109.435 47.041 110.137C46.8496 110.839 46.6901 111.477 46.5625 112.051C46.4349 112.561 46.3711 112.848 46.3711 112.912C46.3073 113.359 46.2754 113.805 46.2754 114.252C46.3392 114.699 46.3711 115.145 46.3711 115.592L44.9355 117.027C44.6803 119.452 44.2018 121.812 43.5 124.109C42.862 126.342 42.1921 128.639 41.4902 131C41.9368 131.064 42.3516 131.096 42.7344 131.096C43.181 131.16 43.6276 131.191 44.0742 131.191C46.1159 131.191 48.1576 131.064 50.1992 130.809C52.3047 130.49 54.3783 130.202 56.4199 129.947C57.1217 129.82 57.8555 129.724 58.6211 129.66C59.3867 129.533 60.1204 129.469 60.8223 129.469C61.1413 129.405 61.5241 129.405 61.9707 129.469C62.4173 129.469 62.8001 129.437 63.1191 129.373C63.6296 129.245 63.9486 129.054 64.0762 128.799C64.2676 128.48 64.6185 128.288 65.1289 128.225C65.5117 128.416 65.9583 128.512 66.4688 128.512C67.043 128.512 67.5853 128.384 68.0957 128.129C68.6061 127.874 69.1165 127.587 69.627 127.268ZM143.893 106.404C143.893 107.106 143.637 107.648 143.127 108.031C142.617 108.35 142.361 108.797 142.361 109.371C142.361 109.626 142.489 109.945 142.744 110.328C141.851 110.328 141.245 110.615 140.926 111.189C140.607 111.764 140.288 112.402 139.969 113.104H138.725C138.406 113.104 138.15 113.167 137.959 113.295C137.768 113.423 137.576 113.614 137.385 113.869C137.257 114.061 137.066 114.38 136.811 114.826C135.598 115.081 134.418 115.496 133.27 116.07C132.185 116.581 131.1 117.155 130.016 117.793C128.995 118.367 127.942 118.973 126.857 119.611C125.773 120.186 124.656 120.664 123.508 121.047C122.934 122.004 122.104 122.77 121.02 123.344H120.732C120.413 123.408 120.126 123.376 119.871 123.248C119.68 123.057 119.424 122.961 119.105 122.961C118.914 122.961 118.786 122.993 118.723 123.057C116.809 124.333 114.671 124.971 112.311 124.971C111.673 124.971 111.066 124.939 110.492 124.875C109.918 124.747 109.312 124.684 108.674 124.684C108.482 124.684 108.355 124.747 108.291 124.875L108.1 125.258C108.036 125.385 107.94 125.513 107.812 125.641C107.749 125.768 107.525 125.832 107.143 125.832C106.441 125.832 105.739 125.736 105.037 125.545C104.335 125.354 103.602 125.322 102.836 125.449C101.368 124.62 100.22 123.822 99.3906 123.057C98.5612 122.291 97.7956 121.143 97.0938 119.611C96.7747 118.91 96.3281 118.24 95.7539 117.602C95.2435 116.964 94.8607 116.262 94.6055 115.496C94.5417 115.241 94.446 114.794 94.3184 114.156C94.1908 113.454 94.0632 112.721 93.9355 111.955C93.8079 111.189 93.6803 110.456 93.5527 109.754C93.4889 109.052 93.457 108.574 93.457 108.318C93.457 107.553 93.4889 106.819 93.5527 106.117C93.6803 105.352 93.8079 104.586 93.9355 103.82C94.3184 101.396 94.5736 98.9714 94.7012 96.5469C94.8926 94.0586 95.4349 91.666 96.3281 89.3691C96.2005 88.6673 96.1367 87.9974 96.1367 87.3594V85.2539C96.1367 84.0417 95.9772 83.0208 95.6582 82.1914C96.1686 81.362 96.4238 80.4368 96.4238 79.416C96.4238 78.2676 95.9453 77.5977 94.9883 77.4062V77.1191C94.9883 75.7793 94.5417 74.7266 93.6484 73.9609C93.6484 71.7279 94.1908 70.069 95.2754 68.9844C96.4238 67.8359 97.9232 66.847 99.7734 66.0176C100.029 65.6348 100.124 65.3158 100.061 65.0605C100.507 65.1882 100.922 65.3158 101.305 65.4434C101.688 65.571 102.07 65.6348 102.453 65.6348C103.091 65.6348 103.665 65.5391 104.176 65.3477C104.367 66.1133 104.846 66.5918 105.611 66.7832C106.441 66.9108 107.111 67.1022 107.621 67.3574V68.6016C107.621 70.5794 108.1 72.4616 109.057 74.248C108.801 74.7585 108.642 75.3008 108.578 75.875C108.514 76.4492 108.482 76.9915 108.482 77.502C108.482 78.2676 108.514 79.0332 108.578 79.7988C108.642 80.5645 108.674 81.2982 108.674 82C108.674 82.7656 108.578 83.5312 108.387 84.2969C108.259 85.0625 107.908 85.7324 107.334 86.3066C107.27 87.1361 107.206 88.0931 107.143 89.1777C107.143 90.1986 107.079 91.2513 106.951 92.3359C106.887 93.4206 106.728 94.4733 106.473 95.4941C106.217 96.515 105.835 97.3444 105.324 97.9824C105.26 98.9395 105.197 99.9284 105.133 100.949C105.133 101.906 105.133 102.831 105.133 103.725C105.133 105.128 105.197 106.787 105.324 108.701C105.516 110.615 105.962 112.21 106.664 113.486C106.983 113.997 107.589 114.38 108.482 114.635C109.439 114.89 110.205 115.018 110.779 115.018C111.481 115.018 112.183 114.922 112.885 114.73C113.65 114.475 114.193 114.061 114.512 113.486C114.895 113.55 115.15 113.742 115.277 114.061C115.405 114.38 115.628 114.635 115.947 114.826C119.584 113.295 123.221 111.827 126.857 110.424C130.494 109.02 134.067 107.393 137.576 105.543C138.087 105.798 138.629 105.926 139.203 105.926C139.841 105.926 140.479 105.862 141.117 105.734C141.755 105.607 142.393 105.543 143.031 105.543H143.701C143.829 105.926 143.893 106.213 143.893 106.404ZM215 63.5293C215 64.1035 214.872 64.6458 214.617 65.1562L213.947 66.5918C213.756 67.0384 213.564 67.5169 213.373 68.0273C213.182 68.5378 213.118 69.1439 213.182 69.8457C212.288 70.8665 211.395 71.8555 210.502 72.8125C209.609 73.7695 208.811 74.8542 208.109 76.0664C207.408 76.0026 206.865 76.1621 206.482 76.5449C206.163 76.9277 205.908 77.4382 205.717 78.0762C204.377 78.5228 203.197 79.2246 202.176 80.1816C201.155 81.0749 200.262 82.0638 199.496 83.1484C196.115 84.5521 192.956 86.2747 190.021 88.3164C187.087 90.3581 184.407 92.7507 181.982 95.4941C183.131 95.4941 184.247 95.6217 185.332 95.877C186.48 96.1322 187.597 96.4193 188.682 96.7383C189.83 96.9935 190.947 97.2487 192.031 97.5039C193.116 97.6953 194.232 97.7272 195.381 97.5996C196.21 98.3652 197.135 99.0033 198.156 99.5137C199.241 100.024 200.294 100.503 201.314 100.949C202.399 101.396 203.42 101.906 204.377 102.48C205.398 103.055 206.291 103.757 207.057 104.586C207.057 104.714 207.025 104.841 206.961 104.969C206.961 105.033 206.961 105.128 206.961 105.256C206.961 105.766 207.089 106.277 207.344 106.787C207.599 107.234 207.727 107.712 207.727 108.223C207.408 108.733 207.12 109.275 206.865 109.85C206.61 110.424 206.291 110.934 205.908 111.381C205.589 111.827 205.206 112.21 204.76 112.529C204.313 112.848 203.707 113.04 202.941 113.104C202.622 114.188 202.112 115.049 201.41 115.688C200.708 116.262 199.911 116.804 199.018 117.314C198.188 117.761 197.359 118.24 196.529 118.75C195.7 119.197 194.998 119.803 194.424 120.568C192.51 121.015 190.628 121.653 188.777 122.482C186.991 123.248 185.396 124.365 183.992 125.832C183.035 125.96 182.046 126.119 181.025 126.311C180.068 126.438 179.111 126.502 178.154 126.502C176.814 126.502 175.73 126.247 174.9 125.736C174.071 125.162 173.592 124.141 173.465 122.674C173.656 122.227 173.943 121.844 174.326 121.525L175.57 120.568C176.017 120.249 176.4 119.93 176.719 119.611C177.102 119.229 177.389 118.782 177.58 118.271C177.708 118.271 177.867 118.303 178.059 118.367C178.25 118.367 178.441 118.367 178.633 118.367C179.398 118.367 180.005 118.208 180.451 117.889C180.898 117.57 181.312 117.251 181.695 116.932C182.142 116.613 182.62 116.326 183.131 116.07C183.641 115.815 184.311 115.719 185.141 115.783C185.587 114.954 186.257 114.348 187.15 113.965C188.044 113.518 188.969 113.135 189.926 112.816C190.883 112.434 191.776 112.019 192.605 111.572C193.499 111.062 194.105 110.328 194.424 109.371C194.105 108.861 193.69 108.478 193.18 108.223C192.669 107.904 192.095 107.648 191.457 107.457L189.639 106.883C189.064 106.691 188.554 106.468 188.107 106.213C187.406 106.404 186.736 106.5 186.098 106.5C184.758 106.5 183.45 106.372 182.174 106.117C180.898 105.862 179.59 105.734 178.25 105.734C177.038 105.734 175.985 105.894 175.092 106.213C174.773 106.149 174.422 106.053 174.039 105.926C173.72 105.798 173.401 105.671 173.082 105.543C171.615 106.117 170.083 106.404 168.488 106.404H162.268C161.757 106.404 161.247 106.468 160.736 106.596C160.035 107.872 159.684 109.243 159.684 110.711C159.684 111.796 159.843 112.848 160.162 113.869C160.481 114.826 160.8 115.847 161.119 116.932C162.395 118.08 163.576 119.452 164.66 121.047C165.745 122.578 166.287 124.269 166.287 126.119C166.287 126.566 166.255 126.917 166.191 127.172C165.553 126.725 164.724 126.502 163.703 126.502C162.81 126.502 161.949 126.63 161.119 126.885C160.354 127.14 159.524 127.331 158.631 127.459C157.929 127.14 157.195 126.821 156.43 126.502C155.664 126.119 154.93 125.673 154.229 125.162C153.718 124.077 153.208 123.057 152.697 122.1C152.187 121.079 151.549 120.122 150.783 119.229V118.846C150.783 116.613 150.592 114.411 150.209 112.242C149.89 110.073 149.73 107.872 149.73 105.639C149.73 104.618 149.762 103.597 149.826 102.576C149.954 101.492 150.273 100.503 150.783 99.6094C150.592 98.0781 150.496 96.4831 150.496 94.8242C150.496 91.5065 150.688 88.1888 151.07 84.8711C151.453 81.5534 151.645 78.1719 151.645 74.7266C151.645 74.0247 151.613 73.3229 151.549 72.6211C151.549 71.9193 151.517 71.2174 151.453 70.5156H151.07C150.241 70.5156 149.443 70.6432 148.678 70.8984C147.912 71.0898 147.146 71.3132 146.381 71.5684C145.615 71.8236 144.818 72.0788 143.988 72.334C143.159 72.5254 142.329 72.6211 141.5 72.6211C140.99 72.8763 140.575 73.1315 140.256 73.3867C139.937 73.6419 139.618 73.8652 139.299 74.0566C138.98 74.248 138.629 74.4076 138.246 74.5352C137.799 74.6628 137.289 74.6947 136.715 74.6309C136.013 75.0775 135.471 75.4284 135.088 75.6836C134.641 75.875 134.035 76.0983 133.27 76.3535C132.887 76.4811 132.568 76.6725 132.312 76.9277L131.547 77.5977C131.292 77.7891 131.005 77.9805 130.686 78.1719C130.367 78.3633 129.952 78.459 129.441 78.459C128.995 78.459 128.676 78.4271 128.484 78.3633C128.102 78.0443 127.783 77.6615 127.527 77.2148C127.208 76.7682 126.921 76.3535 126.666 75.9707C126.347 75.5241 126.028 75.1413 125.709 74.8223C125.326 74.4395 124.88 74.1523 124.369 73.9609C124.624 73.6419 124.752 73.3867 124.752 73.1953C124.688 72.9401 124.656 72.653 124.656 72.334C124.656 72.1426 124.688 72.015 124.752 71.9512C125.071 70.8027 125.645 69.9095 126.475 69.2715C127.304 68.5697 128.229 68.0273 129.25 67.6445C130.271 67.1979 131.324 66.8151 132.408 66.4961C133.429 66.1771 134.386 65.7943 135.279 65.3477C137.768 65.4115 140.033 65.1882 142.074 64.6777C144.116 64.1035 146.221 63.306 148.391 62.2852C148.773 62.4766 149.156 62.5723 149.539 62.5723C149.858 62.5723 150.177 62.5404 150.496 62.4766L151.453 62.2852C152.219 61.6471 153.048 61.2324 153.941 61.041C154.835 60.8496 155.728 60.6901 156.621 60.5625C157.514 60.4349 158.376 60.3073 159.205 60.1797C160.035 59.9883 160.768 59.6374 161.406 59.127H161.789C163.32 59.127 164.852 58.8717 166.383 58.3613C167.978 57.8509 169.509 57.6595 170.977 57.7871C172.253 57.0853 173.433 56.6387 174.518 56.4473C175.602 56.2559 176.846 56.1602 178.25 56.1602C178.569 56.1602 178.952 56.0326 179.398 55.7773C179.845 55.4583 180.387 55.2988 181.025 55.2988C181.153 55.2988 181.249 55.3307 181.312 55.3945C181.44 55.3945 181.568 55.3945 181.695 55.3945C182.27 55.3945 182.652 55.2031 182.844 54.8203C183.099 54.4375 183.705 54.2461 184.662 54.2461C185.109 54.2461 185.523 54.278 185.906 54.3418C186.289 54.3418 186.672 54.3418 187.055 54.3418C187.501 54.3418 187.788 54.1823 187.916 53.8633C188.044 53.4805 188.331 53.321 188.777 53.3848C188.969 53.64 189.288 53.7676 189.734 53.7676C190.181 53.7038 190.532 53.6719 190.787 53.6719C191.234 53.6719 191.489 53.7995 191.553 54.0547C192.574 53.4167 193.69 53.002 194.902 52.8105C196.178 52.6191 197.391 52.5234 198.539 52.5234C198.986 52.5234 199.432 52.5553 199.879 52.6191C200.326 52.6191 200.804 52.651 201.314 52.7148C201.889 52.332 202.559 52.1406 203.324 52.1406C203.771 52.1406 204.473 52.332 205.43 52.7148C206.451 53.0977 207.503 53.5443 208.588 54.0547C209.673 54.5651 210.661 55.1074 211.555 55.6816C212.448 56.2559 212.99 56.7344 213.182 57.1172C213.309 57.2448 213.373 57.5319 213.373 57.9785C213.437 58.4251 213.533 58.8079 213.66 59.127C213.979 59.8926 214.266 60.6263 214.521 61.3281C214.84 61.9661 215 62.6999 215 63.5293ZM204.377 64.582C204.377 64.4544 204.345 64.3268 204.281 64.1992C204.281 64.0078 204.281 63.8483 204.281 63.7207C203.962 63.3379 203.516 63.0508 202.941 62.8594C202.431 62.668 201.857 62.5085 201.219 62.3809C200.645 62.2533 200.038 62.1576 199.4 62.0938C198.826 61.9661 198.316 61.8066 197.869 61.6152C196.529 62.0618 195.062 62.2852 193.467 62.2852C191.999 62.2852 190.691 62.0618 189.543 61.6152C188.969 62.1895 188.235 62.6361 187.342 62.9551C186.449 63.2741 185.492 63.5293 184.471 63.7207C183.514 63.8483 182.525 63.944 181.504 64.0078C180.547 64.0078 179.686 64.0078 178.92 64.0078C178.665 64.0078 178.218 64.1992 177.58 64.582C176.942 64.9648 176.368 65.1562 175.857 65.1562C175.475 65.1562 175.124 64.9967 174.805 64.6777C174.23 65.1243 173.433 65.5072 172.412 65.8262C171.391 66.1452 170.339 66.4323 169.254 66.6875C168.169 66.8789 167.053 67.1022 165.904 67.3574C164.82 67.6126 163.895 67.8678 163.129 68.123C162.363 69.7819 161.949 71.6003 161.885 73.5781C161.821 75.4922 161.789 77.3743 161.789 79.2246C161.789 80.3092 161.725 81.362 161.598 82.3828C161.47 83.4036 161.406 84.4564 161.406 85.541C161.406 86.0514 161.438 86.5938 161.502 87.168C161.566 87.6784 161.757 88.1888 162.076 88.6992C161.566 89.082 161.215 89.5924 161.023 90.2305C160.896 90.8047 160.832 91.3789 160.832 91.9531C160.832 92.6549 160.896 93.293 161.023 93.8672C161.151 94.4414 161.279 94.9837 161.406 95.4941C163.448 95.3027 165.298 94.9199 166.957 94.3457C168.68 93.7715 170.275 93.0697 171.742 92.2402C173.273 91.4108 174.741 90.4538 176.145 89.3691C177.548 88.2845 179.016 87.1361 180.547 85.9238C181.185 85.7962 181.695 85.6048 182.078 85.3496C182.525 85.0944 183.067 84.9668 183.705 84.9668C183.96 84.0736 184.439 83.4674 185.141 83.1484C185.842 82.7656 186.385 82.2233 186.768 81.5215C187.533 81.3301 188.171 81.0749 188.682 80.7559C189.256 80.373 189.798 80.0221 190.309 79.7031C190.819 79.3203 191.361 78.9694 191.936 78.6504C192.574 78.3314 193.275 78.14 194.041 78.0762C195.126 76.8001 196.242 75.5241 197.391 74.248C198.603 72.972 200.007 71.9512 201.602 71.1855C201.857 70.5475 202.144 70.0052 202.463 69.5586C202.782 69.0482 203.069 68.5697 203.324 68.123C203.643 67.6126 203.898 67.1022 204.09 66.5918C204.281 66.0176 204.377 65.3477 204.377 64.582ZM276.824 70.1328V70.5156C276.378 70.6432 276.154 70.9622 276.154 71.4727C275.452 71.7917 274.719 72.0469 273.953 72.2383C273.188 72.3659 272.454 72.5892 271.752 72.9082C271.05 72.8444 270.316 72.8125 269.551 72.8125C268.849 72.7487 268.147 72.7168 267.445 72.7168C265.531 72.7168 263.617 72.7806 261.703 72.9082C259.789 73.0358 257.875 73.0358 255.961 72.9082C255.068 73.4186 254.079 73.8333 252.994 74.1523C251.973 74.4076 250.984 74.5352 250.027 74.5352C249.262 74.5352 248.592 74.4395 248.018 74.248C246.486 75.0137 244.796 75.6517 242.945 76.1621C241.159 76.6725 239.34 77.1829 237.49 77.6934C235.64 78.14 233.854 78.6823 232.131 79.3203C230.472 79.8945 229.005 80.724 227.729 81.8086C227.601 82.7018 227.505 83.5951 227.441 84.4883C227.378 85.3177 227.346 86.1471 227.346 86.9766C227.346 87.8698 227.378 88.6992 227.441 89.4648C227.569 90.2305 227.792 90.9961 228.111 91.7617C228.43 91.8893 228.781 91.985 229.164 92.0488C229.611 92.1126 229.993 92.1445 230.312 92.1445C230.632 92.1445 230.951 92.1126 231.27 92.0488C231.589 91.9212 231.812 91.6979 231.939 91.3789C232.896 91.2513 233.854 91.2194 234.811 91.2832C235.768 91.2832 236.725 91.2832 237.682 91.2832C238.639 91.2832 239.564 91.2513 240.457 91.1875C241.414 91.1237 242.339 90.9642 243.232 90.709C244.253 90.4538 245.242 90.2943 246.199 90.2305C247.22 90.1667 248.209 90.1029 249.166 90.0391C250.123 89.9753 251.112 89.8796 252.133 89.752C253.154 89.5605 254.206 89.2096 255.291 88.6992C256.12 89.0182 256.95 89.1777 257.779 89.1777C258.673 89.1777 259.534 89.2415 260.363 89.3691C260.81 89.6882 261.161 90.0391 261.416 90.4219C261.735 90.8047 261.895 91.2513 261.895 91.7617C261.895 92.6549 261.576 93.5482 260.938 94.4414C260.299 95.3346 259.789 96.1641 259.406 96.9297H258.354C256.822 96.9297 255.323 97.153 253.855 97.5996C252.452 97.9824 251.016 98.4609 249.549 99.0352C248.145 99.5456 246.71 100.024 245.242 100.471C243.839 100.854 242.371 101.045 240.84 101.045C240.585 101.045 240.425 101.204 240.361 101.523C240.361 101.779 240.298 101.97 240.17 102.098C239.851 102.034 239.372 102.002 238.734 102.002C237.267 102.002 235.863 102.161 234.523 102.48C233.184 102.799 231.812 102.959 230.408 102.959C230.025 102.959 229.643 102.959 229.26 102.959C228.877 102.895 228.494 102.831 228.111 102.768C227.792 103.278 227.378 103.629 226.867 103.82C226.357 103.948 225.878 104.203 225.432 104.586C225.24 105.16 225.113 105.862 225.049 106.691C225.049 107.521 225.017 108.382 224.953 109.275C224.953 110.105 224.889 110.902 224.762 111.668C224.634 112.434 224.379 113.04 223.996 113.486C224.06 113.805 224.315 113.933 224.762 113.869C225.208 113.742 225.432 113.933 225.432 114.443C225.432 115.018 225.368 115.624 225.24 116.262C225.113 116.9 225.049 117.538 225.049 118.176C225.049 119.388 225.176 120.728 225.432 122.195C225.751 123.599 226.197 124.907 226.771 126.119C227.41 127.331 228.239 128.352 229.26 129.182C230.281 129.947 231.557 130.33 233.088 130.33C234.109 130.33 235.066 130.139 235.959 129.756C236.852 129.373 237.586 128.735 238.16 127.842L238.639 127.746C238.894 127.746 239.117 127.778 239.309 127.842C239.564 127.906 239.819 127.938 240.074 127.938C240.457 127.938 240.936 127.714 241.51 127.268C242.148 126.757 242.818 126.183 243.52 125.545C244.285 124.907 245.051 124.301 245.816 123.727C246.582 123.089 247.316 122.642 248.018 122.387C248.464 121.493 248.879 120.6 249.262 119.707C249.708 118.814 250.346 118.112 251.176 117.602V114.826C251.814 114.124 252.484 113.486 253.186 112.912C253.951 112.338 254.525 111.604 254.908 110.711C255.227 110.839 255.514 110.934 255.77 110.998C256.089 111.062 256.408 111.094 256.727 111.094C257.046 111.094 257.365 111.062 257.684 110.998C258.066 110.934 258.417 110.839 258.736 110.711C259.247 111.413 259.63 112.21 259.885 113.104C260.204 113.933 260.587 114.73 261.033 115.496C260.459 116.645 259.789 118.016 259.023 119.611C258.258 121.206 257.428 122.801 256.535 124.396C255.642 125.992 254.685 127.523 253.664 128.99C252.707 130.394 251.75 131.479 250.793 132.244C250.602 132.436 250.187 132.659 249.549 132.914C248.847 133.424 248.209 133.903 247.635 134.35C247.061 134.86 246.518 135.434 246.008 136.072C244.158 136.646 242.371 137.412 240.648 138.369C238.99 139.326 237.331 140.251 235.672 141.145C234.906 140.953 234.077 140.857 233.184 140.857C232.418 140.857 231.652 140.889 230.887 140.953C230.121 141.081 229.292 141.145 228.398 141.145C228.143 140.826 227.76 140.602 227.25 140.475C226.803 140.411 226.644 140.092 226.771 139.518C224.602 139.39 222.848 138.784 221.508 137.699C220.168 136.678 219.02 135.402 218.062 133.871C217.169 132.34 216.436 130.681 215.861 128.895C215.287 127.108 214.681 125.385 214.043 123.727V123.439C214.043 123.12 214.171 122.929 214.426 122.865C214.681 122.801 214.809 122.61 214.809 122.291C214.809 122.163 214.777 122.068 214.713 122.004C214.521 121.302 214.362 120.696 214.234 120.186C214.107 119.675 214.043 119.069 214.043 118.367C214.043 117.346 214.107 116.357 214.234 115.4C214.362 114.38 214.426 113.359 214.426 112.338C214.426 111.317 214.298 110.424 214.043 109.658C214.298 109.339 214.521 108.924 214.713 108.414C214.84 107.84 214.936 107.266 215 106.691C215.064 106.117 215.096 105.543 215.096 104.969C215.16 104.395 215.255 103.884 215.383 103.438C215.128 102.736 214.904 102.13 214.713 101.619C214.521 101.045 214.426 100.375 214.426 99.6094V98.9395C215.064 97.8548 215.606 96.7383 216.053 95.5898C216.499 94.4414 216.978 93.2611 217.488 92.0488V91.7617C217.488 89.9115 217.424 88.0612 217.297 86.2109C217.169 84.3607 217.105 82.5104 217.105 80.6602V78.8418C217.105 78.2038 217.137 77.5977 217.201 77.0234C217.712 76.7682 218.094 76.4173 218.35 75.9707C218.605 75.5241 218.988 75.1732 219.498 74.918H222.656L223.23 73.9609C223.422 73.6419 223.549 73.291 223.613 72.9082C224.315 72.7168 224.985 72.4616 225.623 72.1426C226.325 71.7598 226.963 71.377 227.537 70.9941C228.43 70.4837 229.228 70.0371 229.93 69.6543C230.695 69.2077 231.429 68.8568 232.131 68.6016C232.896 68.2826 233.694 68.0273 234.523 67.8359C235.353 67.6445 236.31 67.485 237.395 67.3574C237.905 67.3574 238.224 67.2617 238.352 67.0703C238.543 66.8789 238.798 66.6556 239.117 66.4004C239.883 66.528 240.648 66.6556 241.414 66.7832C242.18 66.847 242.945 66.8789 243.711 66.8789C245.242 66.8789 246.678 66.5918 248.018 66.0176C249.932 66.0176 251.814 65.9857 253.664 65.9219C255.578 65.8581 257.492 65.8262 259.406 65.8262C261.065 65.8262 262.724 65.89 264.383 66.0176C266.042 66.1452 267.669 66.3685 269.264 66.6875C269.838 66.4961 270.476 66.4004 271.178 66.4004C271.943 66.4004 272.709 66.4961 273.475 66.6875C274.304 66.8151 275.102 66.8151 275.867 66.6875C275.931 67.3893 276.09 67.9954 276.346 68.5059C276.665 68.9525 276.824 69.4948 276.824 70.1328ZM394.635 114.348C394.507 115.305 394.156 116.038 393.582 116.549C393.072 117.059 392.465 117.538 391.764 117.984C391.445 117.921 391.126 117.889 390.807 117.889C390.551 117.825 390.264 117.793 389.945 117.793C387.967 117.729 386.085 117.984 384.299 118.559C382.576 119.133 380.79 119.548 378.939 119.803C378.301 119.93 377.695 119.994 377.121 119.994C376.611 119.93 376.068 119.962 375.494 120.09C373.452 120.409 371.283 120.664 368.986 120.855C366.689 121.047 364.393 121.302 362.096 121.621C359.799 121.876 357.534 122.227 355.301 122.674C353.132 123.057 351.09 123.631 349.176 124.396C348.984 124.269 348.793 124.141 348.602 124.014C348.41 123.822 348.187 123.727 347.932 123.727C347.294 123.727 346.688 123.822 346.113 124.014C345.539 124.205 344.965 124.269 344.391 124.205C343.753 124.588 343.051 124.875 342.285 125.066C341.583 125.194 340.85 125.322 340.084 125.449C339.382 125.513 338.68 125.641 337.979 125.832C337.277 126.023 336.607 126.374 335.969 126.885C335.458 126.63 334.82 126.502 334.055 126.502C333.353 126.438 332.874 126.183 332.619 125.736C331.152 126.438 329.589 126.885 327.93 127.076C326.335 127.268 324.708 127.331 323.049 127.268C321.964 127.204 320.72 127.044 319.316 126.789C317.913 126.534 316.509 126.183 315.105 125.736C313.702 125.226 312.394 124.652 311.182 124.014C309.969 123.312 309.044 122.482 308.406 121.525C307.96 120.887 307.641 120.186 307.449 119.42C307.258 118.654 306.811 118.08 306.109 117.697C306.301 116.23 306.524 114.794 306.779 113.391C307.035 111.987 307.29 110.551 307.545 109.084C308.821 107.999 310.033 106.851 311.182 105.639C312.33 104.426 313.415 103.15 314.436 101.811C315.648 101.236 316.764 100.535 317.785 99.7051C318.87 98.8757 319.923 98.0462 320.943 97.2168C322.028 96.3236 323.081 95.4622 324.102 94.6328C325.186 93.8034 326.335 93.0697 327.547 92.4316C327.738 91.985 327.993 91.6341 328.312 91.3789C328.695 91.0599 329.078 90.7728 329.461 90.5176C329.844 90.1986 330.195 89.8796 330.514 89.5605C330.833 89.1777 331.056 88.7311 331.184 88.2207C333.417 86.8809 335.363 85.1901 337.021 83.1484C338.68 81.1068 339.765 78.8099 340.275 76.2578C339.191 75.3646 337.947 74.7904 336.543 74.5352C335.203 74.2161 333.799 73.9928 332.332 73.8652C331.056 73.8014 329.716 73.8014 328.312 73.8652C326.973 73.929 325.601 73.8971 324.197 73.7695C322.794 74.2161 321.326 74.5033 319.795 74.6309C318.327 74.7585 316.86 74.8861 315.393 75.0137C313.925 75.0775 312.458 75.2689 310.99 75.5879C309.587 75.8431 308.215 76.3535 306.875 77.1191C306.62 77.1191 306.365 77.0872 306.109 77.0234C305.918 76.9596 305.695 76.9277 305.439 76.9277C303.398 76.8639 301.484 77.2786 299.697 78.1719C297.911 79.0013 296.156 79.8307 294.434 80.6602C294.306 80.9154 294.242 81.1068 294.242 81.2344C294.242 81.6172 294.306 82 294.434 82.3828C294.625 82.7018 294.721 83.0527 294.721 83.4355C294.657 83.4993 294.625 83.5632 294.625 83.627C294.625 83.6908 294.593 83.7546 294.529 83.8184C294.465 84.1374 294.37 84.4245 294.242 84.6797C294.178 84.9349 294.083 85.222 293.955 85.541C293.253 87.5827 292.87 89.5924 292.807 91.5703C292.743 93.2292 292.743 94.8561 292.807 96.4512C292.87 98.0462 292.87 99.6732 292.807 101.332C292.679 103.374 292.36 105.288 291.85 107.074C292.169 108.605 292.456 110.232 292.711 111.955C292.966 113.614 293.285 115.273 293.668 116.932C294.051 118.59 294.497 120.217 295.008 121.812C295.582 123.344 296.316 124.811 297.209 126.215C297.145 126.342 297.177 126.438 297.305 126.502C297.432 126.566 297.56 126.598 297.688 126.598H298.453C298.772 126.598 298.9 126.725 298.836 126.98C298.964 127.172 299.059 127.363 299.123 127.555C299.187 127.682 299.314 127.81 299.506 127.938C299.633 128.129 299.633 128.384 299.506 128.703C299.442 129.979 299.123 131.16 298.549 132.244C297.975 133.329 297.624 134.509 297.496 135.785C296.73 135.977 296.029 136.072 295.391 136.072C294.306 136.008 293.349 135.689 292.52 135.115C291.69 134.605 290.924 133.967 290.223 133.201C289.521 132.436 288.851 131.67 288.213 130.904C287.575 130.075 286.873 129.373 286.107 128.799C285.661 127.012 285.214 125.035 284.768 122.865C284.385 120.696 283.715 118.846 282.758 117.314C283.013 116.74 283.141 116.038 283.141 115.209C283.204 113.933 283.077 112.689 282.758 111.477C282.503 110.201 282.439 108.924 282.566 107.648C282.566 106.947 282.63 106.245 282.758 105.543C282.949 104.841 283.077 104.139 283.141 103.438C283.204 102.353 283.077 101.3 282.758 100.279C282.503 99.2585 282.407 98.2057 282.471 97.1211C282.535 96.6107 282.63 96.1322 282.758 95.6855C282.949 95.1751 283.204 94.7285 283.523 94.3457C283.204 93.5801 283.109 92.8464 283.236 92.1445C283.3 91.0599 283.428 90.0391 283.619 89.082C283.811 88.125 283.938 87.168 284.002 86.2109C284.002 85.7005 283.97 85.222 283.906 84.7754C283.842 84.265 283.747 83.7865 283.619 83.3398L282.758 83.0527C282.375 83.0527 281.992 83.1484 281.609 83.3398C281.29 83.5312 281.003 83.7546 280.748 84.0098C280.493 84.265 280.27 84.4883 280.078 84.6797C279.887 84.8073 279.695 84.8711 279.504 84.8711C279.376 84.8711 279.217 84.8711 279.025 84.8711C278.898 84.8073 278.77 84.7754 278.643 84.7754C278.515 84.7754 278.26 84.903 277.877 85.1582C277.558 85.4134 277.143 85.7005 276.633 86.0195C276.186 86.2747 275.74 86.5618 275.293 86.8809C274.846 87.1361 274.495 87.2956 274.24 87.3594C273.538 87.2318 272.964 87.0085 272.518 86.6895C272.135 86.3066 271.752 85.9557 271.369 85.6367C271.05 85.2539 270.699 84.9349 270.316 84.6797C269.934 84.3607 269.455 84.2331 268.881 84.2969C268.689 83.9141 268.594 83.4993 268.594 83.0527C268.53 82.6061 268.53 82.1595 268.594 81.7129V80.1816C269.04 79.3522 269.646 78.6823 270.412 78.1719C271.114 77.5977 271.88 77.1191 272.709 76.7363L275.197 75.5879C276.027 75.2051 276.792 74.7266 277.494 74.1523H278.355C279.504 74.2161 280.493 73.9928 281.322 73.4824C282.215 72.972 283.045 72.3978 283.811 71.7598C284.576 71.0579 285.342 70.3561 286.107 69.6543C286.937 68.9525 287.83 68.4102 288.787 68.0273C289.489 68.3464 290.223 68.6335 290.988 68.8887C291.754 69.0801 292.551 69.2077 293.381 69.2715C294.21 69.2715 295.072 69.1439 295.965 68.8887C296.858 68.6335 297.56 68.1549 298.07 67.4531C298.389 67.5807 298.645 67.6764 298.836 67.7402C299.091 67.7402 299.378 67.7402 299.697 67.7402C300.654 67.804 301.611 67.6764 302.568 67.3574C303.525 66.9746 304.451 66.528 305.344 66.0176C306.62 66.0814 307.864 66.0176 309.076 65.8262C310.352 65.571 311.596 65.3158 312.809 65.0605C314.085 64.8053 315.329 64.582 316.541 64.3906C317.817 64.1354 319.093 64.0397 320.369 64.1035C322.475 64.1673 324.548 63.9759 326.59 63.5293C328.632 63.0827 330.705 62.9232 332.811 63.0508C334.278 63.1146 335.714 63.2422 337.117 63.4336C338.585 63.5612 340.052 63.5931 341.52 63.5293C342.349 63.9121 343.083 64.263 343.721 64.582C344.423 64.8372 345.284 64.901 346.305 64.7734C348.346 66.4961 350.197 68.5059 351.855 70.8027V72.4297C351.792 73.8971 351.536 75.3327 351.09 76.7363C350.643 78.14 350.101 79.5436 349.463 80.9473C348.889 82.2871 348.251 83.627 347.549 84.9668C346.847 86.2428 346.177 87.5189 345.539 88.7949C341.392 92.5592 337.245 96.2917 333.098 99.9922C328.951 103.693 324.676 107.266 320.273 110.711C320.146 111.349 319.954 111.923 319.699 112.434C319.508 112.944 319.38 113.486 319.316 114.061C319.316 114.38 319.348 114.635 319.412 114.826C319.859 114.954 320.242 115.209 320.561 115.592C320.943 115.911 321.071 116.357 320.943 116.932H321.805C322.124 116.932 322.283 117.059 322.283 117.314L323.814 117.41C326.239 117.538 328.663 117.474 331.088 117.219C333.512 116.964 335.937 116.676 338.361 116.357C340.85 116.038 343.306 115.751 345.73 115.496C348.155 115.177 350.579 114.986 353.004 114.922C353.578 114.73 354.184 114.571 354.822 114.443C355.46 114.316 356.035 114.061 356.545 113.678H356.832C357.279 113.678 357.598 113.805 357.789 114.061C358.044 114.316 358.395 114.475 358.842 114.539C359.161 114.539 359.48 114.475 359.799 114.348C360.182 114.22 360.564 114.124 360.947 114.061C361.84 113.805 362.766 113.646 363.723 113.582C364.743 113.518 365.732 113.423 366.689 113.295C370.39 112.976 374.059 112.785 377.695 112.721C381.332 112.593 384.969 112.115 388.605 111.285C388.924 111.732 389.371 112.051 389.945 112.242C390.52 112.37 391.126 112.529 391.764 112.721C392.402 112.848 392.976 113.008 393.486 113.199C394.061 113.391 394.443 113.773 394.635 114.348ZM447.941 69.4629C447.686 70.2923 447.271 71.0579 446.697 71.7598L445.07 73.7695C444.56 74.4076 444.113 75.1094 443.73 75.875C443.411 76.5768 443.316 77.4062 443.443 78.3633C443.316 78.3633 443.156 78.3633 442.965 78.3633C442.773 78.2995 442.614 78.2676 442.486 78.2676C441.465 78.2676 440.668 78.5228 440.094 79.0332C439.583 79.4798 438.882 79.8626 437.988 80.1816C437.861 79.7988 437.701 79.4479 437.51 79.1289C437.318 78.7461 437.031 78.4909 436.648 78.3633C435.117 78.6823 433.586 78.9375 432.055 79.1289C430.523 79.2565 428.992 79.4479 427.461 79.7031C426.759 79.8307 426.057 80.0221 425.355 80.2773C424.654 80.4688 423.92 80.6602 423.154 80.8516C422.771 80.9792 422.357 81.043 421.91 81.043C421.464 80.9792 421.017 80.9792 420.57 81.043C419.039 81.1068 417.38 81.2344 415.594 81.4258C413.807 81.5534 412.212 82.0319 410.809 82.8613C410.171 82.7337 409.501 82.638 408.799 82.5742C408.097 82.5104 407.395 82.4785 406.693 82.4785C405.162 82.4785 403.471 82.638 401.621 82.957C399.835 83.2122 398.24 83.7546 396.836 84.584C396.517 84.4564 396.166 84.3607 395.783 84.2969C395.464 84.2331 395.081 84.2012 394.635 84.2012C394.507 84.2012 394.411 84.2331 394.348 84.2969C394.284 84.2969 394.188 84.2969 394.061 84.2969C393.997 84.8711 394.061 85.4453 394.252 86.0195C394.507 86.5299 394.922 86.9447 395.496 87.2637C395.241 87.9655 395.113 88.7311 395.113 89.5605C395.113 90.6452 395.177 91.7298 395.305 92.8145C395.496 93.8991 395.592 94.9837 395.592 96.0684C395.592 97.2806 395.432 98.2376 395.113 98.9395C395.751 100.854 396.07 102.895 396.07 105.064C396.07 105.83 396.007 106.596 395.879 107.361C395.815 108.063 395.783 108.829 395.783 109.658C395.783 110.36 396.038 110.934 396.549 111.381C397.059 111.764 397.314 112.306 397.314 113.008C397.314 113.263 397.251 113.518 397.123 113.773C398.016 113.582 398.878 113.327 399.707 113.008C400.536 112.625 401.398 112.434 402.291 112.434C402.801 112.434 403.28 112.529 403.727 112.721C404.237 112.912 404.684 113.167 405.066 113.486C405.003 113.805 404.939 114.156 404.875 114.539C404.875 114.922 404.875 115.305 404.875 115.688C404.875 116.389 404.875 117.059 404.875 117.697C404.939 118.271 405.003 118.91 405.066 119.611C404.556 120.505 403.95 121.302 403.248 122.004C402.61 122.706 402.163 123.599 401.908 124.684C400.951 124.684 400.09 124.907 399.324 125.354C398.622 125.736 397.952 126.183 397.314 126.693C396.676 127.14 396.038 127.587 395.4 128.033C394.762 128.416 394.061 128.607 393.295 128.607C392.338 128.607 391.668 128.48 391.285 128.225C390.902 127.906 390.615 127.587 390.424 127.268C390.232 126.949 390.041 126.661 389.85 126.406C389.722 126.151 389.403 126.055 388.893 126.119C388.765 125.29 388.51 124.524 388.127 123.822C387.744 123.057 387.329 122.323 386.883 121.621C386.5 120.919 386.085 120.217 385.639 119.516C385.256 118.75 384.969 117.984 384.777 117.219C384.395 115.56 384.235 113.837 384.299 112.051C384.363 110.264 384.076 108.542 383.438 106.883C383.565 105.99 383.661 105.096 383.725 104.203C383.788 103.246 383.82 102.321 383.82 101.428C383.82 99.6413 383.757 97.8867 383.629 96.1641C383.565 94.3776 383.501 92.5592 383.438 90.709C382.991 90.1348 382.704 89.4967 382.576 88.7949C382.512 88.0293 382.449 87.2956 382.385 86.5938C382.193 86.4023 381.97 86.2109 381.715 86.0195C381.523 85.8281 381.396 85.5729 381.332 85.2539C380.822 85.1263 380.439 85.0625 380.184 85.0625C379.29 85.0625 378.525 85.2858 377.887 85.7324C377.312 86.1152 376.77 86.3066 376.26 86.3066C375.749 86.3066 375.271 86.2428 374.824 86.1152C374.378 85.9876 373.931 85.9238 373.484 85.9238C373.102 85.9238 372.878 86.0195 372.814 86.2109C372.814 86.3385 372.687 86.4661 372.432 86.5938C372.24 86.7214 371.794 86.849 371.092 86.9766C370.39 87.1042 369.592 87.2318 368.699 87.3594C367.87 87.4232 367.04 87.487 366.211 87.5508C365.445 87.6146 364.935 87.6465 364.68 87.6465C363.659 87.6465 362.893 87.4551 362.383 87.0723C361.809 86.6257 361.139 86.1471 360.373 85.6367C360.501 85.2539 360.564 84.9987 360.564 84.8711C360.564 84.2331 360.373 83.7227 359.99 83.3398C359.607 82.8932 359.416 82.5104 359.416 82.1914C359.416 81.4896 359.703 80.9473 360.277 80.5645C360.788 80.1816 361.075 79.5755 361.139 78.7461C362.606 78.1081 364.105 77.6296 365.637 77.3105C367.168 76.9915 368.731 76.7363 370.326 76.5449C371.921 76.3535 373.484 76.1302 375.016 75.875C376.611 75.6198 378.174 75.2051 379.705 74.6309C380.152 74.6947 380.566 74.7585 380.949 74.8223C381.396 74.8223 381.842 74.8223 382.289 74.8223C384.203 74.8223 386.085 74.6309 387.936 74.248C389.85 73.8014 391.796 73.5781 393.773 73.5781C394.284 73.5781 394.794 73.61 395.305 73.6738C395.815 73.7376 396.326 73.8333 396.836 73.9609C399.388 73.5781 401.908 73.1634 404.396 72.7168C406.949 72.2702 409.564 71.8874 412.244 71.5684C413.52 71.4408 414.764 71.3451 415.977 71.2812C417.253 71.1536 418.529 70.9941 419.805 70.8027C420.251 70.7389 420.57 70.6432 420.762 70.5156C421.017 70.3242 421.145 69.9733 421.145 69.4629C421.719 69.7181 422.357 69.8457 423.059 69.8457C424.143 69.8457 425.196 69.6543 426.217 69.2715C427.238 68.8887 428.29 68.6973 429.375 68.6973C429.63 68.6973 429.854 68.7292 430.045 68.793C430.236 68.793 430.428 68.793 430.619 68.793C431.066 68.793 431.289 68.6016 431.289 68.2188C431.353 67.7721 431.672 67.485 432.246 67.3574C432.693 67.2298 433.331 67.1341 434.16 67.0703C434.99 67.0065 435.851 66.9427 436.744 66.8789C437.701 66.7513 438.562 66.6237 439.328 66.4961C440.158 66.3047 440.764 66.0495 441.146 65.7305L441.816 64.6777C442.965 64.7415 443.794 65.252 444.305 66.209C444.879 67.1022 445.198 68.0911 445.262 69.1758C445.517 69.431 445.868 69.5586 446.314 69.5586C446.825 69.4948 447.271 69.4629 447.654 69.4629H447.941ZM495.123 75.5879C494.74 76.1621 494.517 76.8001 494.453 77.502C494.389 78.2038 494.357 78.8418 494.357 79.416C494.357 80.1816 494.357 80.9473 494.357 81.7129C494.421 82.4147 494.453 83.1165 494.453 83.8184V85.2539C494.326 85.7005 494.134 86.1471 493.879 86.5938C493.624 87.0404 493.432 87.487 493.305 87.9336C492.411 90.2943 491.965 92.6549 491.965 95.0156V95.207C491.646 95.9727 491.327 96.6745 491.008 97.3125C490.753 97.9505 490.497 98.5885 490.242 99.2266C489.987 99.8008 489.796 100.439 489.668 101.141C489.54 101.779 489.508 102.544 489.572 103.438C488.679 105.671 487.499 107.712 486.031 109.562C484.564 111.349 483.128 113.199 481.725 115.113C480.385 115.624 479.141 116.294 477.992 117.123C476.908 117.952 475.855 118.878 474.834 119.898C472.856 120.536 470.91 121.27 468.996 122.1C467.082 122.929 465.359 124.046 463.828 125.449C462.616 125.577 461.404 125.768 460.191 126.023C458.979 126.279 457.799 126.661 456.65 127.172H455.502C454.928 127.172 454.513 127.044 454.258 126.789C453.428 127.236 452.567 127.555 451.674 127.746C450.781 127.874 449.887 127.938 448.994 127.938C447.846 127.938 446.697 127.874 445.549 127.746C444.464 127.555 443.348 127.363 442.199 127.172C441.561 126.279 440.668 125.609 439.52 125.162C438.371 124.652 437.35 124.173 436.457 123.727C434.607 121.174 433.267 118.718 432.438 116.357C431.608 113.933 430.747 111.221 429.854 108.223C429.981 107.329 430.204 106.468 430.523 105.639C430.842 104.745 430.97 103.788 430.906 102.768C432.055 99.4499 433.554 96.4512 435.404 93.7715C437.318 91.028 439.488 88.4121 441.912 85.9238C441.912 85.541 441.976 85.222 442.104 84.9668C442.295 84.7116 442.327 84.3288 442.199 83.8184C442.263 83.8822 442.391 83.9141 442.582 83.9141C443.092 83.9141 443.411 83.7865 443.539 83.5312C443.667 83.2122 443.699 82.8613 443.635 82.4785C445.932 81.0111 448.005 79.3203 449.855 77.4062C451.77 75.4922 453.939 73.8971 456.363 72.6211C456.555 72.0469 456.874 71.5684 457.32 71.1855C457.767 70.8027 458.118 70.3561 458.373 69.8457C460.415 69.2715 462.265 68.4102 463.924 67.2617C465.583 66.1133 467.337 65.0924 469.188 64.1992C470.208 63.625 471.165 63.2422 472.059 63.0508C473.016 62.7956 474.036 62.5404 475.121 62.2852C475.504 62.1576 475.855 62.0618 476.174 61.998C476.493 61.9342 476.844 61.9023 477.227 61.9023C478.375 61.9023 479.492 62.1257 480.576 62.5723C481.661 62.9551 482.777 63.1465 483.926 63.1465C484.245 63.1465 484.5 63.1465 484.691 63.1465C484.947 63.0827 485.202 63.0189 485.457 62.9551C486.542 64.2949 487.913 65.3158 489.572 66.0176C489.955 66.9746 490.402 67.804 490.912 68.5059C491.486 69.2077 492.061 69.9095 492.635 70.6113C493.209 71.2493 493.719 71.9831 494.166 72.8125C494.676 73.5781 494.995 74.5033 495.123 75.5879ZM485.553 80.5645C485.553 80.2454 485.521 79.9583 485.457 79.7031C484.819 79.5117 484.213 79.2565 483.639 78.9375C483.064 78.6185 482.426 78.459 481.725 78.459C481.278 78.459 480.831 78.5547 480.385 78.7461C480.321 78.2995 480.13 77.9805 479.811 77.7891C479.555 77.5977 479.236 77.4382 478.854 77.3105C478.535 77.1191 478.184 76.9915 477.801 76.9277C477.482 76.8001 477.195 76.6087 476.939 76.3535C476.748 75.8431 476.525 75.3327 476.27 74.8223C476.078 74.248 475.695 73.8333 475.121 73.5781C474.547 74.1523 473.877 74.6309 473.111 75.0137C472.346 75.3327 471.548 75.6517 470.719 75.9707C469.953 76.2897 469.188 76.6725 468.422 77.1191C467.72 77.5658 467.114 78.1081 466.604 78.7461H464.881C464.498 79.4479 463.956 79.9902 463.254 80.373C462.552 80.6921 461.946 81.1706 461.436 81.8086C460.415 82.319 459.458 82.957 458.564 83.7227C457.735 84.4245 456.906 85.1901 456.076 86.0195C455.247 86.7852 454.417 87.5827 453.588 88.4121C452.822 89.2415 451.993 90.0072 451.1 90.709C450.27 92.4954 449.345 94.0586 448.324 95.3984C447.367 96.6745 446.442 97.9824 445.549 99.3223C444.719 100.662 443.986 102.13 443.348 103.725C442.773 105.256 442.486 107.17 442.486 109.467V110.424C442.486 110.743 442.518 111.062 442.582 111.381C443.411 112.274 444.081 113.231 444.592 114.252C445.166 115.273 446.091 116.007 447.367 116.453C448.643 116.964 449.983 117.187 451.387 117.123C452.854 117.059 454.258 117.219 455.598 117.602C458.66 117.027 461.595 116.102 464.402 114.826C467.273 113.486 469.985 111.891 472.537 110.041C472.92 109.722 473.367 109.403 473.877 109.084C474.387 108.701 474.802 108.318 475.121 107.936C475.44 107.617 475.695 107.266 475.887 106.883C476.142 106.5 476.397 106.149 476.652 105.83C477.163 105.001 477.737 104.171 478.375 103.342C479.013 102.512 479.683 101.747 480.385 101.045C480.704 99.6413 481.118 98.3014 481.629 97.0254C482.139 95.6855 482.65 94.3776 483.16 93.1016C483.671 91.8255 484.085 90.5176 484.404 89.1777C484.787 87.8379 484.979 86.4342 484.979 84.9668C484.979 84.6478 484.947 84.2969 484.883 83.9141C484.883 83.5312 484.851 83.1803 484.787 82.8613C485.298 82.1595 485.553 81.3939 485.553 80.5645Z" fill="black"/>
</g>
<defs>
<clipPath id="clip0_2_2">
<rect width="500" height="200" fill="white"/>
</clipPath>
</defs>
</svg>
