<svg width="460" height="160" viewBox="0 0 460 160" fill="none" xmlns="http://www.w3.org/2000/svg">
<g clip-path="url(#clip0_2_2)">
<path d="M140.352 76.043C140.234 76.7461 140.029 77.5371 139.736 78.416C139.502 79.2949 139.15 80.1152 138.682 80.877C138.271 81.5801 137.744 82.1953 137.1 82.7227C136.455 83.1914 135.693 83.4258 134.814 83.4258C134.17 83.4258 133.525 83.3672 132.881 83.25C132.236 83.0742 131.562 82.9863 130.859 82.9863C130.566 82.9863 130.244 83.1035 129.893 83.3379C129.6 83.5137 129.307 83.6016 129.014 83.6016C128.721 83.6016 128.457 83.5723 128.223 83.5137C128.047 83.3965 127.812 83.3379 127.52 83.3379C127.344 83.3379 127.021 83.3965 126.553 83.5137C126.084 83.6309 125.586 83.748 125.059 83.8652C124.531 83.9824 124.033 84.1289 123.564 84.3047C123.096 84.4219 122.773 84.5098 122.598 84.5684C121.016 85.0957 119.434 85.5645 117.852 85.9746C116.27 86.3848 114.629 86.6484 112.93 86.7656C112.578 86.6484 112.051 86.5312 111.348 86.4141C110.645 86.2383 110.117 86.1504 109.766 86.1504C109.062 86.1504 108.594 86.4434 108.359 87.0293C108.184 87.6152 107.803 88.0547 107.217 88.3477C106.514 88.7578 105.635 88.9922 104.58 89.0508C103.525 89.1094 102.471 89.1973 101.416 89.3145C100.361 89.4316 99.3652 89.666 98.4277 90.0176C97.5488 90.3105 96.9043 90.8965 96.4941 91.7754C96.2012 91.7168 95.8789 91.6875 95.5273 91.6875C95.2344 91.6289 94.9121 91.5996 94.5605 91.5996C92.6855 91.5996 90.9277 91.9805 89.2871 92.7422C87.6465 93.4453 85.9766 94.0898 84.2773 94.6758C84.5703 95.2031 84.7754 95.8477 84.8926 96.6094C85.0098 97.3711 85.127 98.1328 85.2441 98.8945C85.3613 99.5977 85.5078 100.301 85.6836 101.004C85.918 101.648 86.2988 102.146 86.8262 102.498C86.8262 102.85 86.7383 103.143 86.5625 103.377C86.4453 103.611 86.2988 103.816 86.123 103.992L85.5078 104.607C85.332 104.783 85.2148 105.047 85.1562 105.398C84.9805 106.102 84.8926 106.834 84.8926 107.596C84.8926 108.299 84.4824 108.826 83.6621 109.178C83.7207 109.354 83.75 109.676 83.75 110.145C83.75 110.73 83.6621 111.287 83.4863 111.814C83.3105 112.342 83.252 112.928 83.3105 113.572C82.3145 114.686 81.4648 115.828 80.7617 117C80.1172 118.172 79.6191 119.432 79.2676 120.779C77.0996 122.947 74.873 125.115 72.5879 127.283C70.3613 129.51 68.0469 131.648 65.6445 133.699C63.3008 135.75 60.8691 137.684 58.3496 139.5C55.8301 141.375 53.2227 143.016 50.5273 144.422H49.9121C48.5645 144.422 47.5098 144.656 46.748 145.125C45.9863 145.594 45.0195 146.004 43.8477 146.355C42.9688 146.121 41.9141 146.004 40.6836 146.004C39.9805 146.004 39.248 146.033 38.4863 146.092C37.7832 146.15 37.0508 146.18 36.2891 146.18C35.293 146.18 34.3848 146.062 33.5645 145.828C32.8027 145.594 32.041 145.33 31.2793 145.037C30.5762 144.744 29.8438 144.451 29.082 144.158C28.3203 143.865 27.5 143.66 26.6211 143.543C22.9883 139.91 20.1172 135.662 18.0078 130.799C15.8984 125.994 14.8438 121.043 14.8438 115.945C14.8438 113.602 15.166 111.316 15.8105 109.09C16.4551 106.805 16.7773 104.52 16.7773 102.234C17.832 100.125 18.7402 97.957 19.502 95.7305C20.3223 93.5039 21.1426 91.2773 21.9629 89.0508C22.7832 86.8242 23.6621 84.6562 24.5996 82.5469C25.5957 80.3789 26.7676 78.3281 28.1152 76.3945C28.4082 74.8711 28.877 73.5527 29.5215 72.4395C30.166 71.3262 30.8691 70.0957 31.6309 68.748C31.6309 67.459 31.8945 66.2871 32.4219 65.2324C33.0078 64.1191 33.3594 62.8887 33.4766 61.541C34.4141 60.6621 35.1758 59.666 35.7617 58.5527C36.3477 57.4395 36.9043 56.2969 37.4316 55.125C37.959 53.9531 38.5449 52.8398 39.1895 51.7852C39.8926 50.6719 40.8301 49.7344 42.002 48.9727C42.1191 48.5625 42.1777 48.123 42.1777 47.6543C42.2363 47.127 42.3828 46.7168 42.6172 46.4238L44.4629 44.4023C45.0488 43.6406 45.5762 42.8789 46.0449 42.1172C46.5723 41.2969 47.1289 40.5645 47.7148 39.9199C48.0664 39.5684 48.4473 39.2754 48.8574 39.041C49.2676 38.8066 49.6191 38.543 49.9121 38.25C50.2051 37.957 50.293 37.5762 50.1758 37.1074C50.1172 36.6387 50.2344 36.2578 50.5273 35.9648C50.6445 35.8477 50.8203 35.7305 51.0547 35.6133C51.2891 35.4961 51.4941 35.3789 51.6699 35.2617C52.4316 34.7344 53.0762 34.207 53.6035 33.6797C54.1309 33.1523 54.8633 32.7715 55.8008 32.5371C56.6211 31.8926 57.3535 31.248 57.998 30.6035C58.7012 29.959 59.4043 29.373 60.1074 28.8457C60.8105 28.3184 61.5723 27.9082 62.3926 27.6152C63.2129 27.2637 64.2383 27.0879 65.4688 27.0879C65.7031 27.0879 65.9375 27.1172 66.1719 27.1758C66.4062 27.1758 66.6406 27.1758 66.875 27.1758C69.2773 29.4023 70.7715 32.127 71.3574 35.3496C70.7129 36.1699 70.1855 37.0488 69.7754 37.9863C69.4238 38.9238 69.0137 39.8613 68.5449 40.7988C67.5488 41.1504 66.6113 41.6777 65.7324 42.3809C64.8535 43.0254 63.9746 43.6992 63.0957 44.4023C62.2754 45.1055 61.3965 45.7207 60.459 46.248C59.5801 46.7754 58.584 47.0391 57.4707 47.0391C57.002 47.4492 56.2402 48.123 55.1855 49.0605C54.1895 49.9395 53.1348 50.877 52.0215 51.873C50.9668 52.8691 49.9707 53.8066 49.0332 54.6855C48.1543 55.5645 47.5977 56.1797 47.3633 56.5312C47.1875 56.8242 47.041 57.0879 46.9238 57.3223C46.8066 57.5566 46.6895 57.8203 46.5723 58.1133L44.2871 61.9805C42.998 64.207 41.6797 66.4043 40.332 68.5723C38.9844 70.6816 37.8125 72.9082 36.8164 75.252C36.3477 76.3066 35.9668 77.3613 35.6738 78.416C35.3809 79.4707 35.0879 80.584 34.7949 81.7559C34.6777 82.1074 34.5312 82.459 34.3555 82.8105C34.1797 83.1621 34.0332 83.4844 33.916 83.7773C33.2715 85.0078 32.7441 86.1504 32.334 87.2051C31.9238 88.2598 31.6895 89.4902 31.6309 90.8965C30.166 94.1777 28.7891 97.4883 27.5 100.828C26.2695 104.109 25.332 107.508 24.6875 111.023C25.0391 112.195 25.1855 113.396 25.127 114.627C25.127 115.799 25.127 116.971 25.127 118.143C25.127 119.607 25.2148 120.809 25.3906 121.746C25.625 122.742 25.918 123.621 26.2695 124.383C26.6797 125.203 27.1191 126.023 27.5879 126.844C28.0566 127.723 28.5547 128.748 29.082 129.92C29.9609 130.623 30.752 131.355 31.4551 132.117C32.1582 132.938 32.832 133.816 33.4766 134.754C35.7031 135.867 37.959 136.424 40.2441 136.424C41.8848 136.424 43.5547 136.16 45.2539 135.633C46.9531 135.105 48.5938 134.432 50.1758 133.611C51.8164 132.85 53.3984 132 54.9219 131.062C56.4453 130.125 57.9102 129.217 59.3164 128.338C61.7773 126.873 63.916 125.291 65.7324 123.592C67.5488 121.893 69.1895 120.105 70.6543 118.23C72.1777 116.355 73.584 114.363 74.873 112.254C76.1621 110.086 77.5098 107.801 78.916 105.398C78.9746 105.105 79.0918 104.754 79.2676 104.344L79.7949 103.025C79.9707 102.557 80.1172 102.146 80.2344 101.795C80.4102 101.385 80.498 101.121 80.498 101.004C80.498 100.535 80.3809 100.213 80.1465 100.037C79.9707 99.8027 79.8828 99.5684 79.8828 99.334C79.8828 98.8652 80 98.543 80.2344 98.3672C80.4688 98.1914 80.7324 98.0156 81.0254 97.8398C81.377 97.6641 81.6699 97.459 81.9043 97.2246C82.1973 96.9902 82.3438 96.5508 82.3438 95.9062C82.2266 95.8477 82.0215 95.8184 81.7285 95.8184C81.4355 95.8184 81.1426 95.8477 80.8496 95.9062C80.5566 95.9648 80.2637 95.9941 79.9707 95.9941C79.2676 95.9941 78.6816 95.7598 78.2129 95.291C77.9199 95.4082 77.627 95.6133 77.334 95.9062C77.041 96.1406 76.748 96.4043 76.4551 96.6973C76.2207 96.9902 75.9863 97.2539 75.752 97.4883C75.5176 97.7227 75.3125 97.8398 75.1367 97.8398C74.8438 97.8398 74.6094 97.7812 74.4336 97.6641C74.3164 97.5469 74.1406 97.4883 73.9062 97.4883C72.9102 97.4883 72.0312 97.7227 71.2695 98.1914C70.5078 98.6602 69.6875 99.041 68.8086 99.334C68.6328 99.334 68.457 99.334 68.2812 99.334C68.1055 99.2754 67.9297 99.2461 67.7539 99.2461C67.1094 99.2461 66.4648 99.3633 65.8203 99.5977C65.2344 99.7734 64.6484 99.9785 64.0625 100.213C63.5352 100.447 62.9785 100.652 62.3926 100.828C61.8066 101.004 61.2207 101.062 60.6348 101.004C59.3457 101.473 58.1445 101.971 57.0312 102.498C55.9766 103.025 54.7461 103.23 53.3398 103.113C52.9297 103.289 52.4902 103.494 52.0215 103.729C51.6113 103.904 51.2012 104.139 50.791 104.432C50.4395 104.549 50.1758 104.607 50 104.607C49.707 104.607 49.4727 104.461 49.2969 104.168C48.8281 104.695 48.2129 105.076 47.4512 105.311C46.6895 105.486 45.8984 105.662 45.0781 105.838C44.2578 105.955 43.4668 106.131 42.7051 106.365C42.002 106.541 41.4453 106.922 41.0352 107.508C40.3906 106.98 39.6289 106.717 38.75 106.717C37.8711 106.717 37.0215 106.893 36.2012 107.244C35.3809 107.537 34.502 107.684 33.5645 107.684C33.2129 107.684 32.9785 107.625 32.8613 107.508C32.627 106.863 32.3633 106.219 32.0703 105.574C31.7773 104.93 31.3086 104.461 30.6641 104.168C30.5469 103.523 30.4297 102.908 30.3125 102.322C30.2539 101.678 30.2246 101.062 30.2246 100.477C30.2246 98.8945 30.6934 97.459 31.6309 96.1699C32.4512 95.877 33.2715 95.6426 34.0918 95.4668C34.9707 95.2324 35.8203 94.9688 36.6406 94.6758C37.2852 94.793 37.9297 94.8809 38.5742 94.9395C39.2188 94.998 39.8633 95.0273 40.5078 95.0273C42.9102 95.0273 45.2539 94.7344 47.5391 94.1484C49.8242 93.5039 52.0801 92.8301 54.3066 92.127C56.416 91.4824 58.5547 90.8965 60.7227 90.3691C62.8906 89.8418 65.0586 89.2559 67.2266 88.6113C69.2773 88.084 71.2988 87.498 73.291 86.8535C75.2832 86.1504 77.3633 85.7109 79.5312 85.5352C80.9375 84.5391 82.6367 83.8652 84.6289 83.5137C86.6797 83.1621 88.5547 82.7812 90.2539 82.3711C92.9492 81.7266 95.6152 81.082 98.252 80.4375C100.889 79.7344 103.584 79.1191 106.338 78.5918C109.385 77.9473 112.344 77.1562 115.215 76.2188C118.145 75.2812 121.074 74.2852 124.004 73.2305H124.883C125.879 73.2305 126.904 73.1133 127.959 72.8789C129.014 72.6445 130.068 72.5273 131.123 72.5273C131.416 72.5273 131.65 72.5566 131.826 72.6152C132.061 72.6152 132.295 72.6152 132.529 72.6152C132.705 72.6152 133.145 72.498 133.848 72.2637C134.551 71.9707 135.049 71.7656 135.342 71.6484C136.104 72.4688 136.953 73.2012 137.891 73.8457C138.828 74.4902 139.648 75.2227 140.352 76.043ZM168.213 110.584C168.037 111.404 167.656 112.078 167.07 112.605C166.543 113.074 165.898 113.455 165.137 113.748C164.375 114.041 163.584 114.246 162.764 114.363C162.002 114.422 161.299 114.451 160.654 114.451C160.361 114.451 160.068 114.451 159.775 114.451C159.541 114.393 159.277 114.363 158.984 114.363C158.691 114.363 158.545 114.51 158.545 114.803C158.545 115.096 158.398 115.301 158.105 115.418C157.812 115.301 157.52 115.213 157.227 115.154C156.934 115.096 156.641 115.066 156.348 115.066C155.938 115.066 155.527 115.096 155.117 115.154C154.766 115.213 154.414 115.242 154.062 115.242C153.594 115.242 153.242 115.184 153.008 115.066C152.832 114.949 152.656 114.832 152.48 114.715C152.363 114.539 152.217 114.363 152.041 114.188C151.924 114.012 151.719 113.865 151.426 113.748C151.016 113.572 150.664 113.543 150.371 113.66C150.137 113.777 149.756 113.602 149.229 113.133C148.525 112.547 147.91 111.844 147.383 111.023C146.914 110.145 146.445 109.236 145.977 108.299C145.508 107.361 145.01 106.424 144.482 105.486C143.955 104.549 143.34 103.729 142.637 103.025H141.934C140.879 103.025 140.146 103.465 139.736 104.344C139.443 104.168 139.15 103.963 138.857 103.729C138.564 103.436 138.242 103.201 137.891 103.025C136.543 103.436 135.137 103.787 133.672 104.08C132.207 104.373 130.742 104.52 129.277 104.52H128.047C127.695 104.52 127.314 104.461 126.904 104.344C126.318 104.578 125.791 104.871 125.322 105.223C124.854 105.516 124.326 105.662 123.74 105.662C123.389 105.662 122.979 105.545 122.51 105.311C122.158 105.311 121.982 105.457 121.982 105.75C122.041 106.043 121.865 106.189 121.455 106.189H120.664C119.844 106.189 119.023 106.219 118.203 106.277C117.441 106.336 116.65 106.365 115.83 106.365C114.717 106.365 113.574 106.219 112.402 105.926C112.109 106.102 111.787 106.189 111.436 106.189C111.201 106.307 111.025 106.512 110.908 106.805C110.791 107.039 110.674 107.273 110.557 107.508C110.439 107.684 110.264 107.859 110.029 108.035C109.854 108.152 109.59 108.182 109.238 108.123C109.121 108.826 108.828 109.383 108.359 109.793C107.891 110.203 107.656 110.818 107.656 111.639C107.012 111.99 106.484 112.43 106.074 112.957C105.664 113.484 105.254 114.041 104.844 114.627C104.434 115.213 103.994 115.77 103.525 116.297C103.115 116.824 102.588 117.234 101.943 117.527C101.65 117.879 101.562 118.436 101.68 119.197C101.035 119.725 100.244 120.193 99.3066 120.604C98.3691 121.014 97.4902 121.219 96.6699 121.219C94.9707 121.219 93.7988 120.311 93.1543 118.494C93.1543 117.908 93.2129 117.293 93.3301 116.648C93.3887 115.945 93.5059 115.301 93.6816 114.715C93.8574 114.07 94.1211 113.514 94.4727 113.045C94.8242 112.518 95.3223 112.137 95.9668 111.902C95.9668 111.375 95.791 111.023 95.4395 110.848C95.0879 110.613 94.9414 110.232 95 109.705C96.582 108.943 97.959 107.947 99.1309 106.717C100.303 105.486 101.357 104.197 102.295 102.85C103.291 101.443 104.287 100.037 105.283 98.6309C106.279 97.2246 107.393 95.9648 108.623 94.8516V93.0059C110.381 91.1309 111.523 89.0215 112.051 86.6777C112.695 86.5605 113.105 86.2676 113.281 85.7988C113.516 85.3301 113.633 84.7734 113.633 84.1289C113.926 84.1289 114.102 84.0117 114.16 83.7773C114.277 83.4844 114.541 83.3965 114.951 83.5137C115.479 82.1074 116.064 80.8184 116.709 79.6465C117.354 78.4746 117.998 77.3027 118.643 76.1309C119.287 74.9004 119.844 73.6406 120.312 72.3516C120.84 71.0625 121.221 69.627 121.455 68.0449C122.275 67.9863 122.715 67.6055 122.773 66.9023C122.891 66.1406 123.008 65.4668 123.125 64.8809C124.004 64.0605 124.648 63.0938 125.059 61.9805C125.527 60.8672 125.938 59.7246 126.289 58.5527C126.641 57.3223 127.021 56.1211 127.432 54.9492C127.9 53.7188 128.545 52.6348 129.365 51.6973V51.4336C129.365 51.1406 129.248 50.9648 129.014 50.9062C128.779 50.7891 128.662 50.584 128.662 50.291C128.721 50.2324 128.75 50.1738 128.75 50.1152C129.453 49.8223 129.98 49.3535 130.332 48.709C130.684 48.0059 131.211 47.5078 131.914 47.2148C133.145 48.2109 134.229 48.8262 135.166 49.0605C136.104 49.2363 137.334 49.3828 138.857 49.5C139.619 50.3203 140.029 51.3164 140.088 52.4883C140.205 53.6016 140.41 54.7148 140.703 55.8281C141.172 57.7031 141.67 59.5488 142.197 61.3652C142.783 63.123 143.223 64.9395 143.516 66.8145C143.691 67.9277 144.014 68.9824 144.482 69.9785C144.951 70.9746 145.273 72 145.449 73.0547C145.566 73.875 145.566 74.8125 145.449 75.8672C145.332 76.8633 145.449 77.7422 145.801 78.5039L146.416 79.9102C146.709 80.5547 146.943 81.2285 147.119 81.9316C147.354 82.6348 147.559 83.3379 147.734 84.041C148.203 85.7988 148.613 87.7031 148.965 89.7539C149.375 91.7461 149.99 93.5625 150.811 95.2031C151.104 95.7891 151.543 96.1992 152.129 96.4336C152.773 96.668 153.477 96.8438 154.238 96.9609C155 97.0195 155.732 97.0488 156.436 97.0488C157.197 96.9902 157.842 96.9609 158.369 96.9609H159.248C159.6 96.9609 159.951 97.0195 160.303 97.1367C160.537 97.6055 160.654 98.0156 160.654 98.3672C160.654 99.0703 160.42 99.627 159.951 100.037C159.482 100.447 159.248 100.916 159.248 101.443C159.248 101.736 159.365 102.059 159.6 102.41C159.365 102.352 159.014 102.322 158.545 102.322C157.197 102.322 155.879 102.557 154.59 103.025C155.059 104.021 155.674 104.871 156.436 105.574C157.256 106.219 158.105 106.834 158.984 107.42C159.57 106.951 160.186 106.717 160.83 106.717C161.533 106.717 162.178 106.893 162.764 107.244C163.408 107.537 164.082 107.684 164.785 107.684C165.312 107.684 165.693 107.596 165.928 107.42C166.396 107.947 166.777 108.504 167.07 109.09C167.363 109.617 167.744 110.115 168.213 110.584ZM140.703 96.5215C140.586 95.5254 140.381 94.8223 140.088 94.4121C139.854 93.9434 139.648 93.3867 139.473 92.7422C139.238 91.9219 139.062 91.043 138.945 90.1055C138.887 89.168 138.77 88.2598 138.594 87.3809C138.184 85.3887 137.715 83.3965 137.188 81.4043C136.719 79.4121 136.104 77.4785 135.342 75.6035C135.576 75.252 135.693 74.9297 135.693 74.6367V74.373C135.166 73.7871 134.785 73.084 134.551 72.2637C134.316 71.3848 134.082 70.5352 133.848 69.7148C133.672 68.8359 133.408 68.0449 133.057 67.3418C132.764 66.5801 132.266 65.9648 131.562 65.4961C131.387 65.8477 131.299 66.2578 131.299 66.7266C131.299 67.1367 131.328 67.5176 131.387 67.8691C131.504 68.2207 131.562 68.6016 131.562 69.0117C130.977 69.3047 130.537 69.7734 130.244 70.418C130.01 71.0039 129.6 71.4727 129.014 71.8242C128.545 73.6992 127.871 75.4863 126.992 77.1855C126.113 78.8262 125.176 80.4668 124.18 82.1074C123.242 83.748 122.334 85.418 121.455 87.1172C120.576 88.7578 119.873 90.4863 119.346 92.3027C118.584 92.8301 118.057 93.5039 117.764 94.3242C117.529 95.1445 117.412 95.9648 117.412 96.7852C117.939 97.0781 118.525 97.2539 119.17 97.3125C119.873 97.3125 120.547 97.3125 121.191 97.3125C121.836 97.3125 122.451 97.3711 123.037 97.4883C123.623 97.6055 124.15 97.8984 124.619 98.3672C125.381 98.1328 126.201 97.9863 127.08 97.9277C128.018 97.8105 128.779 97.5469 129.365 97.1367C130.537 97.5469 131.797 97.752 133.145 97.752C133.848 97.752 134.521 97.6934 135.166 97.5762C135.869 97.459 136.543 97.3125 137.188 97.1367C137.715 97.2539 138.125 97.459 138.418 97.752C138.711 97.9863 139.15 98.0742 139.736 98.0156C140.029 97.7812 140.205 97.5469 140.264 97.3125C140.322 97.0195 140.469 96.7559 140.703 96.5215ZM233.428 55.0371C233.428 55.5645 233.311 56.0625 233.076 56.5312L232.461 57.8496C232.285 58.2598 232.109 58.6992 231.934 59.168C231.758 59.6367 231.699 60.1934 231.758 60.8379C230.938 61.7754 230.117 62.6836 229.297 63.5625C228.477 64.4414 227.744 65.4375 227.1 66.5508C226.455 66.4922 225.957 66.6387 225.605 66.9902C225.312 67.3418 225.078 67.8105 224.902 68.3965C223.672 68.8066 222.588 69.4512 221.65 70.3301C220.713 71.1504 219.893 72.0586 219.189 73.0547C216.084 74.3438 213.184 75.9258 210.488 77.8008C207.793 79.6758 205.332 81.873 203.105 84.3926C204.16 84.3926 205.186 84.5098 206.182 84.7441C207.236 84.9785 208.262 85.2422 209.258 85.5352C210.312 85.7695 211.338 86.0039 212.334 86.2383C213.33 86.4141 214.355 86.4434 215.41 86.3262C216.172 87.0293 217.021 87.6152 217.959 88.084C218.955 88.5527 219.922 88.9922 220.859 89.4023C221.855 89.8125 222.793 90.2812 223.672 90.8086C224.609 91.3359 225.43 91.9805 226.133 92.7422C226.133 92.8594 226.104 92.9766 226.045 93.0938C226.045 93.1523 226.045 93.2402 226.045 93.3574C226.045 93.8262 226.162 94.2949 226.396 94.7637C226.631 95.1738 226.748 95.6133 226.748 96.082C226.455 96.5508 226.191 97.0488 225.957 97.5762C225.723 98.1035 225.43 98.5723 225.078 98.9824C224.785 99.3926 224.434 99.7441 224.023 100.037C223.613 100.33 223.057 100.506 222.354 100.564C222.061 101.561 221.592 102.352 220.947 102.938C220.303 103.465 219.57 103.963 218.75 104.432C217.988 104.842 217.227 105.281 216.465 105.75C215.703 106.16 215.059 106.717 214.531 107.42C212.773 107.83 211.045 108.416 209.346 109.178C207.705 109.881 206.24 110.906 204.951 112.254C204.072 112.371 203.164 112.518 202.227 112.693C201.348 112.811 200.469 112.869 199.59 112.869C198.359 112.869 197.363 112.635 196.602 112.166C195.84 111.639 195.4 110.701 195.283 109.354C195.459 108.943 195.723 108.592 196.074 108.299L197.217 107.42C197.627 107.127 197.979 106.834 198.271 106.541C198.623 106.189 198.887 105.779 199.062 105.311C199.18 105.311 199.326 105.34 199.502 105.398C199.678 105.398 199.854 105.398 200.029 105.398C200.732 105.398 201.289 105.252 201.699 104.959C202.109 104.666 202.49 104.373 202.842 104.08C203.252 103.787 203.691 103.523 204.16 103.289C204.629 103.055 205.244 102.967 206.006 103.025C206.416 102.264 207.031 101.707 207.852 101.355C208.672 100.945 209.521 100.594 210.4 100.301C211.279 99.9492 212.1 99.5684 212.861 99.1582C213.682 98.6895 214.238 98.0156 214.531 97.1367C214.238 96.668 213.857 96.3164 213.389 96.082C212.92 95.7891 212.393 95.5547 211.807 95.3789L210.137 94.8516C209.609 94.6758 209.141 94.4707 208.73 94.2363C208.086 94.4121 207.471 94.5 206.885 94.5C205.654 94.5 204.453 94.3828 203.281 94.1484C202.109 93.9141 200.908 93.7969 199.678 93.7969C198.564 93.7969 197.598 93.9434 196.777 94.2363C196.484 94.1777 196.162 94.0898 195.811 93.9727C195.518 93.8555 195.225 93.7383 194.932 93.6211C193.584 94.1484 192.178 94.4121 190.713 94.4121H185C184.531 94.4121 184.062 94.4707 183.594 94.5879C182.949 95.7598 182.627 97.0195 182.627 98.3672C182.627 99.3633 182.773 100.33 183.066 101.268C183.359 102.146 183.652 103.084 183.945 104.08C185.117 105.135 186.201 106.395 187.197 107.859C188.193 109.266 188.691 110.818 188.691 112.518C188.691 112.928 188.662 113.25 188.604 113.484C188.018 113.074 187.256 112.869 186.318 112.869C185.498 112.869 184.707 112.986 183.945 113.221C183.242 113.455 182.48 113.631 181.66 113.748C181.016 113.455 180.342 113.162 179.639 112.869C178.936 112.518 178.262 112.107 177.617 111.639C177.148 110.643 176.68 109.705 176.211 108.826C175.742 107.889 175.156 107.01 174.453 106.189V105.838C174.453 103.787 174.277 101.766 173.926 99.7734C173.633 97.7812 173.486 95.7598 173.486 93.709C173.486 92.7715 173.516 91.834 173.574 90.8965C173.691 89.9004 173.984 88.9922 174.453 88.1719C174.277 86.7656 174.189 85.3008 174.189 83.7773C174.189 80.7305 174.365 77.6836 174.717 74.6367C175.068 71.5898 175.244 68.4844 175.244 65.3203C175.244 64.6758 175.215 64.0312 175.156 63.3867C175.156 62.7422 175.127 62.0977 175.068 61.4531H174.717C173.955 61.4531 173.223 61.5703 172.52 61.8047C171.816 61.9805 171.113 62.1855 170.41 62.4199C169.707 62.6543 168.975 62.8887 168.213 63.123C167.451 63.2988 166.689 63.3867 165.928 63.3867C165.459 63.6211 165.078 63.8555 164.785 64.0898C164.492 64.3242 164.199 64.5293 163.906 64.7051C163.613 64.8809 163.291 65.0273 162.939 65.1445C162.529 65.2617 162.061 65.291 161.533 65.2324C160.889 65.6426 160.391 65.9648 160.039 66.1992C159.629 66.375 159.072 66.5801 158.369 66.8145C158.018 66.9316 157.725 67.1074 157.49 67.3418L156.787 67.957C156.553 68.1328 156.289 68.3086 155.996 68.4844C155.703 68.6602 155.322 68.748 154.854 68.748C154.443 68.748 154.15 68.7188 153.975 68.6602C153.623 68.3672 153.33 68.0156 153.096 67.6055C152.803 67.1953 152.539 66.8145 152.305 66.4629C152.012 66.0527 151.719 65.7012 151.426 65.4082C151.074 65.0566 150.664 64.793 150.195 64.6172C150.43 64.3242 150.547 64.0898 150.547 63.9141C150.488 63.6797 150.459 63.416 150.459 63.123C150.459 62.9473 150.488 62.8301 150.547 62.7715C150.84 61.7168 151.367 60.8965 152.129 60.3105C152.891 59.666 153.74 59.168 154.678 58.8164C155.615 58.4062 156.582 58.0547 157.578 57.7617C158.516 57.4688 159.395 57.1172 160.215 56.707C162.5 56.7656 164.58 56.5605 166.455 56.0918C168.33 55.5645 170.264 54.832 172.256 53.8945C172.607 54.0703 172.959 54.1582 173.311 54.1582C173.604 54.1582 173.896 54.1289 174.189 54.0703L175.068 53.8945C175.771 53.3086 176.533 52.9277 177.354 52.752C178.174 52.5762 178.994 52.4297 179.814 52.3125C180.635 52.1953 181.426 52.0781 182.188 51.9609C182.949 51.7852 183.623 51.4629 184.209 50.9941H184.561C185.967 50.9941 187.373 50.7598 188.779 50.291C190.244 49.8223 191.65 49.6465 192.998 49.7637C194.17 49.1191 195.254 48.709 196.25 48.5332C197.246 48.3574 198.389 48.2695 199.678 48.2695C199.971 48.2695 200.322 48.1523 200.732 47.918C201.143 47.625 201.641 47.4785 202.227 47.4785C202.344 47.4785 202.432 47.5078 202.49 47.5664C202.607 47.5664 202.725 47.5664 202.842 47.5664C203.369 47.5664 203.721 47.3906 203.896 47.0391C204.131 46.6875 204.688 46.5117 205.566 46.5117C205.977 46.5117 206.357 46.541 206.709 46.5996C207.061 46.5996 207.412 46.5996 207.764 46.5996C208.174 46.5996 208.438 46.4531 208.555 46.1602C208.672 45.8086 208.936 45.6621 209.346 45.7207C209.521 45.9551 209.814 46.0723 210.225 46.0723C210.635 46.0137 210.957 45.9844 211.191 45.9844C211.602 45.9844 211.836 46.1016 211.895 46.3359C212.832 45.75 213.857 45.3691 214.971 45.1934C216.143 45.0176 217.256 44.9297 218.311 44.9297C218.721 44.9297 219.131 44.959 219.541 45.0176C219.951 45.0176 220.391 45.0469 220.859 45.1055C221.387 44.7539 222.002 44.5781 222.705 44.5781C223.115 44.5781 223.76 44.7539 224.639 45.1055C225.576 45.457 226.543 45.8672 227.539 46.3359C228.535 46.8047 229.443 47.3027 230.264 47.8301C231.084 48.3574 231.582 48.7969 231.758 49.1484C231.875 49.2656 231.934 49.5293 231.934 49.9395C231.992 50.3496 232.08 50.7012 232.197 50.9941C232.49 51.6973 232.754 52.3711 232.988 53.0156C233.281 53.6016 233.428 54.2754 233.428 55.0371ZM223.672 56.0039C223.672 55.8867 223.643 55.7695 223.584 55.6523C223.584 55.4766 223.584 55.3301 223.584 55.2129C223.291 54.8613 222.881 54.5977 222.354 54.4219C221.885 54.2461 221.357 54.0996 220.771 53.9824C220.244 53.8652 219.688 53.7773 219.102 53.7188C218.574 53.6016 218.105 53.4551 217.695 53.2793C216.465 53.6895 215.117 53.8945 213.652 53.8945C212.305 53.8945 211.104 53.6895 210.049 53.2793C209.521 53.8066 208.848 54.2168 208.027 54.5098C207.207 54.8027 206.328 55.0371 205.391 55.2129C204.512 55.3301 203.604 55.418 202.666 55.4766C201.787 55.4766 200.996 55.4766 200.293 55.4766C200.059 55.4766 199.648 55.6523 199.062 56.0039C198.477 56.3555 197.949 56.5312 197.48 56.5312C197.129 56.5312 196.807 56.3848 196.514 56.0918C195.986 56.502 195.254 56.8535 194.316 57.1465C193.379 57.4395 192.412 57.7031 191.416 57.9375C190.42 58.1133 189.395 58.3184 188.34 58.5527C187.344 58.7871 186.494 59.0215 185.791 59.2559C185.088 60.7793 184.707 62.4492 184.648 64.2656C184.59 66.0234 184.561 67.752 184.561 69.4512C184.561 70.4473 184.502 71.4141 184.385 72.3516C184.268 73.2891 184.209 74.2559 184.209 75.252C184.209 75.7207 184.238 76.2188 184.297 76.7461C184.355 77.2148 184.531 77.6836 184.824 78.1523C184.355 78.5039 184.033 78.9727 183.857 79.5586C183.74 80.0859 183.682 80.6133 183.682 81.1406C183.682 81.7852 183.74 82.3711 183.857 82.8984C183.975 83.4258 184.092 83.9238 184.209 84.3926C186.084 84.2168 187.783 83.8652 189.307 83.3379C190.889 82.8105 192.354 82.166 193.701 81.4043C195.107 80.6426 196.455 79.7637 197.744 78.7676C199.033 77.7715 200.381 76.7168 201.787 75.6035C202.373 75.4863 202.842 75.3105 203.193 75.0762C203.604 74.8418 204.102 74.7246 204.688 74.7246C204.922 73.9043 205.361 73.3477 206.006 73.0547C206.65 72.7031 207.148 72.2051 207.5 71.5605C208.203 71.3848 208.789 71.1504 209.258 70.8574C209.785 70.5059 210.283 70.1836 210.752 69.8906C211.221 69.5391 211.719 69.2168 212.246 68.9238C212.832 68.6309 213.477 68.4551 214.18 68.3965C215.176 67.2246 216.201 66.0527 217.256 64.8809C218.369 63.709 219.658 62.7715 221.123 62.0684C221.357 61.4824 221.621 60.9844 221.914 60.5742C222.207 60.1055 222.471 59.666 222.705 59.2559C222.998 58.7871 223.232 58.3184 223.408 57.8496C223.584 57.3223 223.672 56.707 223.672 56.0039ZM346.982 101.707C346.865 102.586 346.543 103.26 346.016 103.729C345.547 104.197 344.99 104.637 344.346 105.047C344.053 104.988 343.76 104.959 343.467 104.959C343.232 104.9 342.969 104.871 342.676 104.871C340.859 104.812 339.131 105.047 337.49 105.574C335.908 106.102 334.268 106.482 332.568 106.717C331.982 106.834 331.426 106.893 330.898 106.893C330.43 106.834 329.932 106.863 329.404 106.98C327.529 107.273 325.537 107.508 323.428 107.684C321.318 107.859 319.209 108.094 317.1 108.387C314.99 108.621 312.91 108.943 310.859 109.354C308.867 109.705 306.992 110.232 305.234 110.936C305.059 110.818 304.883 110.701 304.707 110.584C304.531 110.408 304.326 110.32 304.092 110.32C303.506 110.32 302.949 110.408 302.422 110.584C301.895 110.76 301.367 110.818 300.84 110.76C300.254 111.111 299.609 111.375 298.906 111.551C298.262 111.668 297.588 111.785 296.885 111.902C296.24 111.961 295.596 112.078 294.951 112.254C294.307 112.43 293.691 112.752 293.105 113.221C292.637 112.986 292.051 112.869 291.348 112.869C290.703 112.811 290.264 112.576 290.029 112.166C288.682 112.811 287.246 113.221 285.723 113.396C284.258 113.572 282.764 113.631 281.24 113.572C280.244 113.514 279.102 113.367 277.812 113.133C276.523 112.898 275.234 112.576 273.945 112.166C272.656 111.697 271.455 111.17 270.342 110.584C269.229 109.939 268.379 109.178 267.793 108.299C267.383 107.713 267.09 107.068 266.914 106.365C266.738 105.662 266.328 105.135 265.684 104.783C265.859 103.436 266.064 102.117 266.299 100.828C266.533 99.5391 266.768 98.2207 267.002 96.873C268.174 95.877 269.287 94.8223 270.342 93.709C271.396 92.5957 272.393 91.4238 273.33 90.1934C274.443 89.666 275.469 89.0215 276.406 88.2598C277.402 87.498 278.369 86.7363 279.307 85.9746C280.303 85.1543 281.27 84.3633 282.207 83.6016C283.203 82.8398 284.258 82.166 285.371 81.5801C285.547 81.1699 285.781 80.8477 286.074 80.6133C286.426 80.3203 286.777 80.0566 287.129 79.8223C287.48 79.5293 287.803 79.2363 288.096 78.9434C288.389 78.5918 288.594 78.1816 288.711 77.7129C290.762 76.4824 292.549 74.9297 294.072 73.0547C295.596 71.1797 296.592 69.0703 297.061 66.7266C296.064 65.9062 294.922 65.3789 293.633 65.1445C292.402 64.8516 291.113 64.6465 289.766 64.5293C288.594 64.4707 287.363 64.4707 286.074 64.5293C284.844 64.5879 283.584 64.5586 282.295 64.4414C281.006 64.8516 279.658 65.1152 278.252 65.2324C276.904 65.3496 275.557 65.4668 274.209 65.584C272.861 65.6426 271.514 65.8184 270.166 66.1113C268.877 66.3457 267.617 66.8145 266.387 67.5176C266.152 67.5176 265.918 67.4883 265.684 67.4297C265.508 67.3711 265.303 67.3418 265.068 67.3418C263.193 67.2832 261.436 67.6641 259.795 68.4844C258.154 69.2461 256.543 70.0078 254.961 70.7695C254.844 71.0039 254.785 71.1797 254.785 71.2969C254.785 71.6484 254.844 72 254.961 72.3516C255.137 72.6445 255.225 72.9668 255.225 73.3184C255.166 73.377 255.137 73.4355 255.137 73.4941C255.137 73.5527 255.107 73.6113 255.049 73.6699C254.99 73.9629 254.902 74.2266 254.785 74.4609C254.727 74.6953 254.639 74.959 254.521 75.252C253.877 77.127 253.525 78.9727 253.467 80.7891C253.408 82.3125 253.408 83.8066 253.467 85.2715C253.525 86.7363 253.525 88.2305 253.467 89.7539C253.35 91.6289 253.057 93.3867 252.588 95.0273C252.881 96.4336 253.145 97.9277 253.379 99.5098C253.613 101.033 253.906 102.557 254.258 104.08C254.609 105.604 255.02 107.098 255.488 108.562C256.016 109.969 256.689 111.316 257.51 112.605C257.451 112.723 257.48 112.811 257.598 112.869C257.715 112.928 257.832 112.957 257.949 112.957H258.652C258.945 112.957 259.062 113.074 259.004 113.309C259.121 113.484 259.209 113.66 259.268 113.836C259.326 113.953 259.443 114.07 259.619 114.188C259.736 114.363 259.736 114.598 259.619 114.891C259.561 116.062 259.268 117.146 258.74 118.143C258.213 119.139 257.891 120.223 257.773 121.395C257.07 121.57 256.426 121.658 255.84 121.658C254.844 121.6 253.965 121.307 253.203 120.779C252.441 120.311 251.738 119.725 251.094 119.021C250.449 118.318 249.834 117.615 249.248 116.912C248.662 116.15 248.018 115.506 247.314 114.979C246.904 113.338 246.494 111.521 246.084 109.529C245.732 107.537 245.117 105.838 244.238 104.432C244.473 103.904 244.59 103.26 244.59 102.498C244.648 101.326 244.531 100.184 244.238 99.0703C244.004 97.8984 243.945 96.7266 244.062 95.5547C244.062 94.9102 244.121 94.2656 244.238 93.6211C244.414 92.9766 244.531 92.332 244.59 91.6875C244.648 90.6914 244.531 89.7246 244.238 88.7871C244.004 87.8496 243.916 86.8828 243.975 85.8867C244.033 85.418 244.121 84.9785 244.238 84.5684C244.414 84.0996 244.648 83.6895 244.941 83.3379C244.648 82.6348 244.561 81.9609 244.678 81.3164C244.736 80.3203 244.854 79.3828 245.029 78.5039C245.205 77.625 245.322 76.7461 245.381 75.8672C245.381 75.3984 245.352 74.959 245.293 74.5488C245.234 74.0801 245.146 73.6406 245.029 73.2305L244.238 72.9668C243.887 72.9668 243.535 73.0547 243.184 73.2305C242.891 73.4062 242.627 73.6113 242.393 73.8457C242.158 74.0801 241.953 74.2852 241.777 74.4609C241.602 74.5781 241.426 74.6367 241.25 74.6367C241.133 74.6367 240.986 74.6367 240.811 74.6367C240.693 74.5781 240.576 74.5488 240.459 74.5488C240.342 74.5488 240.107 74.666 239.756 74.9004C239.463 75.1348 239.082 75.3984 238.613 75.6914C238.203 75.9258 237.793 76.1895 237.383 76.4824C236.973 76.7168 236.65 76.8633 236.416 76.9219C235.771 76.8047 235.244 76.5996 234.834 76.3066C234.482 75.9551 234.131 75.6328 233.779 75.3398C233.486 74.9883 233.164 74.6953 232.812 74.4609C232.461 74.168 232.021 74.0508 231.494 74.1094C231.318 73.7578 231.23 73.377 231.23 72.9668C231.172 72.5566 231.172 72.1465 231.23 71.7363V70.3301C231.641 69.5684 232.197 68.9531 232.9 68.4844C233.545 67.957 234.248 67.5176 235.01 67.166L237.295 66.1113C238.057 65.7598 238.76 65.3203 239.404 64.793H240.195C241.25 64.8516 242.158 64.6465 242.92 64.1777C243.74 63.709 244.502 63.1816 245.205 62.5957C245.908 61.9512 246.611 61.3066 247.314 60.6621C248.076 60.0176 248.896 59.5195 249.775 59.168C250.42 59.4609 251.094 59.7246 251.797 59.959C252.5 60.1348 253.232 60.252 253.994 60.3105C254.756 60.3105 255.547 60.1934 256.367 59.959C257.188 59.7246 257.832 59.2852 258.301 58.6406C258.594 58.7578 258.828 58.8457 259.004 58.9043C259.238 58.9043 259.502 58.9043 259.795 58.9043C260.674 58.9629 261.553 58.8457 262.432 58.5527C263.311 58.2012 264.16 57.791 264.98 57.3223C266.152 57.3809 267.295 57.3223 268.408 57.1465C269.58 56.9121 270.723 56.6777 271.836 56.4434C273.008 56.209 274.15 56.0039 275.264 55.8281C276.436 55.5938 277.607 55.5059 278.779 55.5645C280.713 55.623 282.617 55.4473 284.492 55.0371C286.367 54.627 288.271 54.4805 290.205 54.5977C291.553 54.6562 292.871 54.7734 294.16 54.9492C295.508 55.0664 296.855 55.0957 298.203 55.0371C298.965 55.3887 299.639 55.7109 300.225 56.0039C300.869 56.2383 301.66 56.2969 302.598 56.1797C304.473 57.7617 306.172 59.6074 307.695 61.7168V63.2109C307.637 64.5586 307.402 65.877 306.992 67.166C306.582 68.4551 306.084 69.7441 305.498 71.0332C304.971 72.2637 304.385 73.4941 303.74 74.7246C303.096 75.8965 302.48 77.0684 301.895 78.2402C298.086 81.6973 294.277 85.125 290.469 88.5234C286.66 91.9219 282.734 95.2031 278.691 98.3672C278.574 98.9531 278.398 99.4805 278.164 99.9492C277.988 100.418 277.871 100.916 277.812 101.443C277.812 101.736 277.842 101.971 277.9 102.146C278.311 102.264 278.662 102.498 278.955 102.85C279.307 103.143 279.424 103.553 279.307 104.08H280.098C280.391 104.08 280.537 104.197 280.537 104.432L281.943 104.52C284.17 104.637 286.396 104.578 288.623 104.344C290.85 104.109 293.076 103.846 295.303 103.553C297.588 103.26 299.844 102.996 302.07 102.762C304.297 102.469 306.523 102.293 308.75 102.234C309.277 102.059 309.834 101.912 310.42 101.795C311.006 101.678 311.533 101.443 312.002 101.092H312.266C312.676 101.092 312.969 101.209 313.145 101.443C313.379 101.678 313.701 101.824 314.111 101.883C314.404 101.883 314.697 101.824 314.99 101.707C315.342 101.59 315.693 101.502 316.045 101.443C316.865 101.209 317.715 101.062 318.594 101.004C319.531 100.945 320.439 100.857 321.318 100.74C324.717 100.447 328.086 100.271 331.426 100.213C334.766 100.096 338.105 99.6562 341.445 98.8945C341.738 99.3047 342.148 99.5977 342.676 99.7734C343.203 99.8906 343.76 100.037 344.346 100.213C344.932 100.33 345.459 100.477 345.928 100.652C346.455 100.828 346.807 101.18 346.982 101.707ZM341.006 104.959C340.713 105.428 340.361 105.867 339.951 106.277C339.541 106.629 339.16 107.01 338.809 107.42C338.398 107.596 337.93 107.684 337.402 107.684C336.934 107.684 336.465 107.684 335.996 107.684C335.586 107.625 335.176 107.625 334.766 107.684C334.414 107.684 334.121 107.801 333.887 108.035C333.418 107.918 333.066 107.713 332.832 107.42C332.598 107.068 332.188 106.863 331.602 106.805C331.367 106.746 331.133 106.746 330.898 106.805C330.02 105.809 329.199 104.754 328.438 103.641C327.734 102.527 327.061 101.473 326.416 100.477C326.357 98.3086 326.182 96.1113 325.889 93.8848C325.83 93.3574 325.742 92.8301 325.625 92.3027C325.508 91.7754 325.42 91.2773 325.361 90.8086C325.361 90.2227 325.391 89.666 325.449 89.1387C325.566 88.5527 325.654 88.0254 325.713 87.5566C325.947 85.8574 326.211 84.1875 326.504 82.5469C326.797 80.9062 327.061 79.2363 327.295 77.5371C327.529 76.0137 327.646 74.4316 327.646 72.791C327.646 71.0918 327.383 69.5098 326.855 68.0449L326.768 67.6055C326.885 67.1367 327.002 66.7559 327.119 66.4629C327.295 66.1113 327.412 65.7305 327.471 65.3203C327.588 64.6758 327.441 64.207 327.031 63.9141C327.207 63.4453 327.5 63.1523 327.91 63.0352C328.32 62.8594 328.555 62.5078 328.613 61.9805C328.672 61.7461 328.672 61.5117 328.613 61.2773C329.082 61.1016 329.551 60.9551 330.02 60.8379C330.547 60.6621 331.045 60.6328 331.514 60.75C332.275 60.8672 332.949 61.1309 333.535 61.541C334.121 61.8926 334.678 62.3027 335.205 62.7715C336.143 65.584 336.523 68.5723 336.348 71.7363C336.172 74.8418 335.879 77.9766 335.469 81.1406C335.059 84.3047 334.795 87.4102 334.678 90.457C334.561 93.4453 335.029 96.2285 336.084 98.8066L336.26 98.8945C336.553 98.9531 336.787 98.8652 336.963 98.6309C337.139 98.3379 337.373 98.2207 337.666 98.2793C337.9 98.3965 338.047 98.4551 338.105 98.4551C338.34 99.627 338.721 100.74 339.248 101.795C339.775 102.85 340.361 103.904 341.006 104.959ZM404.99 61.1016V61.4531C404.58 61.5703 404.375 61.8633 404.375 62.332C403.73 62.625 403.057 62.8594 402.354 63.0352C401.65 63.1523 400.977 63.3574 400.332 63.6504C399.688 63.5918 399.014 63.5625 398.311 63.5625C397.666 63.5039 397.021 63.4746 396.377 63.4746C394.619 63.4746 392.861 63.5332 391.104 63.6504C389.346 63.7676 387.588 63.7676 385.83 63.6504C385.01 64.1191 384.102 64.5 383.105 64.793C382.168 65.0273 381.26 65.1445 380.381 65.1445C379.678 65.1445 379.062 65.0566 378.535 64.8809C377.129 65.584 375.576 66.1699 373.877 66.6387C372.236 67.1074 370.566 67.5762 368.867 68.0449C367.168 68.4551 365.527 68.9531 363.945 69.5391C362.422 70.0664 361.074 70.8281 359.902 71.8242C359.785 72.6445 359.697 73.4648 359.639 74.2852C359.58 75.0469 359.551 75.8086 359.551 76.5703C359.551 77.3906 359.58 78.1523 359.639 78.8555C359.756 79.5586 359.961 80.2617 360.254 80.9648C360.547 81.082 360.869 81.1699 361.221 81.2285C361.631 81.2871 361.982 81.3164 362.275 81.3164C362.568 81.3164 362.861 81.2871 363.154 81.2285C363.447 81.1113 363.652 80.9062 363.77 80.6133C364.648 80.4961 365.527 80.4668 366.406 80.5254C367.285 80.5254 368.164 80.5254 369.043 80.5254C369.922 80.5254 370.771 80.4961 371.592 80.4375C372.471 80.3789 373.32 80.2324 374.141 79.998C375.078 79.7637 375.986 79.6172 376.865 79.5586C377.803 79.5 378.711 79.4414 379.59 79.3828C380.469 79.3242 381.377 79.2363 382.314 79.1191C383.252 78.9434 384.219 78.6211 385.215 78.1523C385.977 78.4453 386.738 78.5918 387.5 78.5918C388.32 78.5918 389.111 78.6504 389.873 78.7676C390.283 79.0605 390.605 79.3828 390.84 79.7344C391.133 80.0859 391.279 80.4961 391.279 80.9648C391.279 81.7852 390.986 82.6055 390.4 83.4258C389.814 84.2461 389.346 85.0078 388.994 85.7109H388.027C386.621 85.7109 385.244 85.916 383.896 86.3262C382.607 86.6777 381.289 87.1172 379.941 87.6445C378.652 88.1133 377.334 88.5527 375.986 88.9629C374.697 89.3145 373.35 89.4902 371.943 89.4902C371.709 89.4902 371.562 89.6367 371.504 89.9297C371.504 90.1641 371.445 90.3398 371.328 90.457C371.035 90.3984 370.596 90.3691 370.01 90.3691C368.662 90.3691 367.373 90.5156 366.143 90.8086C364.912 91.1016 363.652 91.248 362.363 91.248C362.012 91.248 361.66 91.248 361.309 91.248C360.957 91.1895 360.605 91.1309 360.254 91.0723C359.961 91.541 359.58 91.8633 359.111 92.0391C358.643 92.1562 358.203 92.3906 357.793 92.7422C357.617 93.2695 357.5 93.9141 357.441 94.6758C357.441 95.4375 357.412 96.2285 357.354 97.0488C357.354 97.8105 357.295 98.543 357.178 99.2461C357.061 99.9492 356.826 100.506 356.475 100.916C356.533 101.209 356.768 101.326 357.178 101.268C357.588 101.15 357.793 101.326 357.793 101.795C357.793 102.322 357.734 102.879 357.617 103.465C357.5 104.051 357.441 104.637 357.441 105.223C357.441 106.336 357.559 107.566 357.793 108.914C358.086 110.203 358.496 111.404 359.023 112.518C359.609 113.631 360.371 114.568 361.309 115.33C362.246 116.033 363.418 116.385 364.824 116.385C365.762 116.385 366.641 116.209 367.461 115.857C368.281 115.506 368.955 114.92 369.482 114.1L369.922 114.012C370.156 114.012 370.361 114.041 370.537 114.1C370.771 114.158 371.006 114.188 371.24 114.188C371.592 114.188 372.031 113.982 372.559 113.572C373.145 113.104 373.76 112.576 374.404 111.99C375.107 111.404 375.811 110.848 376.514 110.32C377.217 109.734 377.891 109.324 378.535 109.09C378.945 108.27 379.326 107.449 379.678 106.629C380.088 105.809 380.674 105.164 381.436 104.695V102.146C382.021 101.502 382.637 100.916 383.281 100.389C383.984 99.8613 384.512 99.1875 384.863 98.3672C385.156 98.4844 385.42 98.5723 385.654 98.6309C385.947 98.6895 386.24 98.7188 386.533 98.7188C386.826 98.7188 387.119 98.6895 387.412 98.6309C387.764 98.5723 388.086 98.4844 388.379 98.3672C388.848 99.0117 389.199 99.7441 389.434 100.564C389.727 101.326 390.078 102.059 390.488 102.762C389.961 103.816 389.346 105.076 388.643 106.541C387.939 108.006 387.178 109.471 386.357 110.936C385.537 112.4 384.658 113.807 383.721 115.154C382.842 116.443 381.963 117.439 381.084 118.143C380.908 118.318 380.527 118.523 379.941 118.758C379.297 119.227 378.711 119.666 378.184 120.076C377.656 120.545 377.158 121.072 376.689 121.658C374.99 122.186 373.35 122.889 371.768 123.768C370.244 124.646 368.721 125.496 367.197 126.316C366.494 126.141 365.732 126.053 364.912 126.053C364.209 126.053 363.506 126.082 362.803 126.141C362.1 126.258 361.338 126.316 360.518 126.316C360.283 126.023 359.932 125.818 359.463 125.701C359.053 125.643 358.906 125.35 359.023 124.822C357.031 124.705 355.42 124.148 354.189 123.152C352.959 122.215 351.904 121.043 351.025 119.637C350.205 118.23 349.531 116.707 349.004 115.066C348.477 113.426 347.92 111.844 347.334 110.32V110.057C347.334 109.764 347.451 109.588 347.686 109.529C347.92 109.471 348.037 109.295 348.037 109.002C348.037 108.885 348.008 108.797 347.949 108.738C347.773 108.094 347.627 107.537 347.51 107.068C347.393 106.6 347.334 106.043 347.334 105.398C347.334 104.461 347.393 103.553 347.51 102.674C347.627 101.736 347.686 100.799 347.686 99.8613C347.686 98.9238 347.568 98.1035 347.334 97.4004C347.568 97.1074 347.773 96.7266 347.949 96.2578C348.066 95.7305 348.154 95.2031 348.213 94.6758C348.271 94.1484 348.301 93.6211 348.301 93.0938C348.359 92.5664 348.447 92.0977 348.564 91.6875C348.33 91.043 348.125 90.4863 347.949 90.0176C347.773 89.4902 347.686 88.875 347.686 88.1719V87.5566C348.271 86.5605 348.77 85.5352 349.18 84.4805C349.59 83.4258 350.029 82.3418 350.498 81.2285V80.9648C350.498 79.2656 350.439 77.5664 350.322 75.8672C350.205 74.168 350.146 72.4688 350.146 70.7695V69.0996C350.146 68.5137 350.176 67.957 350.234 67.4297C350.703 67.1953 351.055 66.873 351.289 66.4629C351.523 66.0527 351.875 65.7305 352.344 65.4961H355.244L355.771 64.6172C355.947 64.3242 356.064 64.002 356.123 63.6504C356.768 63.4746 357.383 63.2402 357.969 62.9473C358.613 62.5957 359.199 62.2441 359.727 61.8926C360.547 61.4238 361.279 61.0137 361.924 60.6621C362.627 60.252 363.301 59.9297 363.945 59.6953C364.648 59.4023 365.381 59.168 366.143 58.9922C366.904 58.8164 367.783 58.6699 368.779 58.5527C369.248 58.5527 369.541 58.4648 369.658 58.2891C369.834 58.1133 370.068 57.9082 370.361 57.6738C371.064 57.791 371.768 57.9082 372.471 58.0254C373.174 58.084 373.877 58.1133 374.58 58.1133C375.986 58.1133 377.305 57.8496 378.535 57.3223C380.293 57.3223 382.021 57.293 383.721 57.2344C385.479 57.1758 387.236 57.1465 388.994 57.1465C390.518 57.1465 392.041 57.2051 393.564 57.3223C395.088 57.4395 396.582 57.6445 398.047 57.9375C398.574 57.7617 399.16 57.6738 399.805 57.6738C400.508 57.6738 401.211 57.7617 401.914 57.9375C402.676 58.0547 403.408 58.0547 404.111 57.9375C404.17 58.582 404.316 59.1387 404.551 59.6074C404.844 60.0176 404.99 60.5156 404.99 61.1016ZM448.672 94.4121C448.672 95.0566 448.438 95.5547 447.969 95.9062C447.5 96.1992 447.266 96.6094 447.266 97.1367C447.266 97.3711 447.383 97.6641 447.617 98.0156C446.797 98.0156 446.24 98.2793 445.947 98.8066C445.654 99.334 445.361 99.9199 445.068 100.564H443.926C443.633 100.564 443.398 100.623 443.223 100.74C443.047 100.857 442.871 101.033 442.695 101.268C442.578 101.443 442.402 101.736 442.168 102.146C441.055 102.381 439.971 102.762 438.916 103.289C437.92 103.758 436.924 104.285 435.928 104.871C434.99 105.398 434.023 105.955 433.027 106.541C432.031 107.068 431.006 107.508 429.951 107.859C429.424 108.738 428.662 109.441 427.666 109.969H427.402C427.109 110.027 426.846 109.998 426.611 109.881C426.436 109.705 426.201 109.617 425.908 109.617C425.732 109.617 425.615 109.646 425.557 109.705C423.799 110.877 421.836 111.463 419.668 111.463C419.082 111.463 418.525 111.434 417.998 111.375C417.471 111.258 416.914 111.199 416.328 111.199C416.152 111.199 416.035 111.258 415.977 111.375L415.801 111.727C415.742 111.844 415.654 111.961 415.537 112.078C415.479 112.195 415.273 112.254 414.922 112.254C414.277 112.254 413.633 112.166 412.988 111.99C412.344 111.814 411.67 111.785 410.967 111.902C409.619 111.141 408.564 110.408 407.803 109.705C407.041 109.002 406.338 107.947 405.693 106.541C405.4 105.896 404.99 105.281 404.463 104.695C403.994 104.109 403.643 103.465 403.408 102.762C403.35 102.527 403.262 102.117 403.145 101.531C403.027 100.887 402.91 100.213 402.793 99.5098C402.676 98.8066 402.559 98.1328 402.441 97.4883C402.383 96.8438 402.354 96.4043 402.354 96.1699C402.354 95.4668 402.383 94.793 402.441 94.1484C402.559 93.4453 402.676 92.7422 402.793 92.0391C403.145 89.8125 403.379 87.5859 403.496 85.3594C403.672 83.0742 404.17 80.877 404.99 78.7676C404.873 78.123 404.814 77.5078 404.814 76.9219V74.9883C404.814 73.875 404.668 72.9375 404.375 72.1758C404.844 71.4141 405.078 70.5645 405.078 69.627C405.078 68.5723 404.639 67.957 403.76 67.7812V67.5176C403.76 66.2871 403.35 65.3203 402.529 64.6172C402.529 62.5664 403.027 61.043 404.023 60.0469C405.078 58.9922 406.455 58.084 408.154 57.3223C408.389 56.9707 408.477 56.6777 408.418 56.4434C408.828 56.5605 409.209 56.6777 409.561 56.7949C409.912 56.9121 410.264 56.9707 410.615 56.9707C411.201 56.9707 411.729 56.8828 412.197 56.707C412.373 57.4102 412.812 57.8496 413.516 58.0254C414.277 58.1426 414.893 58.3184 415.361 58.5527V59.6953C415.361 61.5117 415.801 63.2402 416.68 64.8809C416.445 65.3496 416.299 65.8477 416.24 66.375C416.182 66.9023 416.152 67.4004 416.152 67.8691C416.152 68.5723 416.182 69.2754 416.24 69.9785C416.299 70.6816 416.328 71.3555 416.328 72C416.328 72.7031 416.24 73.4062 416.064 74.1094C415.947 74.8125 415.625 75.4277 415.098 75.9551C415.039 76.7168 414.98 77.5957 414.922 78.5918C414.922 79.5293 414.863 80.4961 414.746 81.4922C414.688 82.4883 414.541 83.4551 414.307 84.3926C414.072 85.3301 413.721 86.0918 413.252 86.6777C413.193 87.5566 413.135 88.4648 413.076 89.4023C413.076 90.2812 413.076 91.1309 413.076 91.9512C413.076 93.2402 413.135 94.7637 413.252 96.5215C413.428 98.2793 413.838 99.7441 414.482 100.916C414.775 101.385 415.332 101.736 416.152 101.971C417.031 102.205 417.734 102.322 418.262 102.322C418.906 102.322 419.551 102.234 420.195 102.059C420.898 101.824 421.396 101.443 421.689 100.916C422.041 100.975 422.275 101.15 422.393 101.443C422.51 101.736 422.715 101.971 423.008 102.146C426.348 100.74 429.688 99.3926 433.027 98.1035C436.367 96.8145 439.648 95.3203 442.871 93.6211C443.34 93.8555 443.838 93.9727 444.365 93.9727C444.951 93.9727 445.537 93.9141 446.123 93.7969C446.709 93.6797 447.295 93.6211 447.881 93.6211H448.496C448.613 93.9727 448.672 94.2363 448.672 94.4121Z" fill="black"/>
</g>
<rect x="0.5" y="0.5" width="459" height="159" stroke="white"/>
<defs>
<clipPath id="clip0_2_2">
<rect width="460" height="160" fill="white"/>
</clipPath>
</defs>
</svg>
